SplineFontDB: 3.0
FontName: OldStandard-Regular
FullName: Old Standard Regular
FamilyName: Old Standard
Weight: Regular
Copyright: Copyright (C) 2006-2008 Alexey Kryukov <alexios@thessalonica.org.ru>
UComments: "2005-12-23: Created.+AAoACgAA-ss01 -- Romanian letters with commaaccent;+AAoA-ss02 -- insular forms;+AAoA-ss06 -- script theta;+AAoA-ss11 -- required Serbian forms;+AAoA-ss12 -- optional Serbian forms;+AAoACgAA-Ratios for small caps:+AAoACgAA-vstem 78.26+AAoA-hstem 75+AAoA-counters 66.2+AAoA" 
Version: 2.0.2
ItalicAngle: 0
UnderlinePosition: -158
UnderlineWidth: 40
Ascent: 762
Descent: 238
LayerCount: 3
Layer: 0 0 "Back"  1
Layer: 1 0 "Fore"  0
Layer: 2 1 "TTF"  0
XUID: [101 675 718133685 15030316]
FSType: 0
OS2Version: 0
OS2_WeightWidthSlopeOnly: 0
OS2_UseTypoMetrics: 1
CreationTime: 1222415241
ModificationTime: 1227532443
PfmFamily: 17
TTFWeight: 400
TTFWidth: 5
LineGap: 236
VLineGap: 0
Panose: 2 4 5 3 5 5 5 2 3 3
OS2TypoAscent: 0
OS2TypoAOffset: 1
OS2TypoDescent: 0
OS2TypoDOffset: 1
OS2TypoLinegap: 236
OS2WinAscent: 0
OS2WinAOffset: 1
OS2WinDescent: 0
OS2WinDOffset: 1
HheadAscent: 0
HheadAOffset: 1
HheadDescent: 0
HheadDOffset: 1
OS2SubXSize: 640
OS2SubYSize: 660
OS2SubXOff: 0
OS2SubYOff: 480
OS2SupXSize: 640
OS2SupYSize: 660
OS2SupXOff: 0
OS2SupYOff: 0
OS2StrikeYSize: 40
OS2StrikeYPos: 212
OS2FamilyClass: 768
OS2Vendor: 'PfEd'
OS2CodePages: 2000009f.00000000
Lookup: 3 0 0 "'aalt' Access All Alternates in Latin lookup 0"  {"'aalt' Access All Alternates in Latin lookup 0 subtable"  } ['aalt' ('cyrl' <'CSL ' 'SRB ' 'dflt' > 'grek' <'dflt' > 'latn' <'AZE ' 'CRT ' 'DEU ' 'MOL ' 'NLD ' 'ROM ' 'TRK ' 'dflt' > ) ]
Lookup: 4 0 0 "'ccmp' Standard Composition Rules"  {"'ccmp' Standard Composition Rules-1"  } ['ccmp' ('cyrl' <'CSL ' 'SRB ' 'dflt' > 'latn' <'AZE ' 'CRT ' 'DEU ' 'MOL ' 'NLD ' 'ROM ' 'TRK ' 'dflt' > ) ]

StartChar: exclam
Encoding: 33 33 1
Width: 280
Flags: W
TeX: 101 0
HStem: -12 124<91.5898 188.41> 674 20G<121.5 158.5>
VStem: 78 124<1.58984 98.4102 446.685 678.927>
LayerCount: 3
Fore
SplineSet
78 622 m 0
 78 666 103 694 140 694 c 24
 177 694 202 666 202 622 c 0
 202 534 176 452 168 356 c 10
 152 156 l 25
 128 156 l 25
 112 356 l 18
 104 452 78 534 78 622 c 0
78 50 m 0
 78 86 104 112 140 112 c 0
 176 112 202 86 202 50 c 0
 202 14 176 -12 140 -12 c 0
 104 -12 78 14 78 50 c 0
EndSplineSet
Validated: 1
Layer: 2
SplineSet
152 156 m 25,0,-1
 128 156 l 1,1,-1
 112 356 l 2,2,3
 109 395 109 395 93.5 484 c 128,-1,4
 78 573 78 573 78 622 c 0,5,6
 78 655 78 655 95 674.5 c 128,-1,7
 112 694 112 694 140 694 c 256,8,9
 168 694 168 694 185 674.5 c 128,-1,10
 202 655 202 655 202 622 c 0,11,12
 202 573 202 573 186.5 484 c 128,-1,13
 171 395 171 395 168 356 c 2,14,-1
 152 156 l 25,0,-1
140 -12 m 256,15,16
 113 -12 113 -12 95.5 5.5 c 128,-1,17
 78 23 78 23 78 50 c 256,18,19
 78 77 78 77 95.5 94.5 c 128,-1,20
 113 112 113 112 140 112 c 256,21,22
 167 112 167 112 184.5 94.5 c 128,-1,23
 202 77 202 77 202 50 c 256,24,25
 202 23 202 23 184.5 5.5 c 128,-1,26
 167 -12 167 -12 140 -12 c 256,15,16
EndSplineSet
Validated: 19457
EndChar

StartChar: numbersign
Encoding: 35 35 3
Width: 684
Flags: W
TeX: 110 0
HStem: 0 21G<166 213.163 356 403.061> 196 40<81 197 246 386 438 607> 450 40<81 238 287 428 477 610> 664 20G<270.01 317 459.907 507>
DStem2: 166 0 210 0 0.154553 0.987984<6.80034 198.436 245.529 455.721 502.813 692.319> 356 0 400 0 0.154553 0.987984<6.80034 198.282 245.838 455.721 502.813 692.319>
LayerCount: 3
Fore
SplineSet
81 196 m 1
 81 236 l 1
 202 236 l 1
 238 450 l 1
 81 450 l 1
 81 490 l 1
 244 490 l 1
 273 684 l 1
 317 684 l 1
 287 490 l 1
 433 490 l 1
 463 684 l 1
 507 684 l 1
 477 490 l 1
 610 490 l 1
 610 450 l 1
 472 450 l 1
 438 236 l 1
 607 236 l 1
 607 196 l 1
 430 196 l 1
 400 0 l 1
 356 0 l 1
 386 196 l 1
 241 196 l 1
 210 0 l 1
 166 0 l 1
 197 196 l 1
 81 196 l 1
246 236 m 1
 394 236 l 1
 428 450 l 1
 282 450 l 1
 246 236 l 1
EndSplineSet
Validated: 1
Layer: 2
SplineSet
280 684 m 1,0,-1
 324 684 l 1,1,-1
 294 490 l 1,2,-1
 440 490 l 1,3,-1
 470 684 l 1,4,-1
 514 684 l 1,5,-1
 484 490 l 1,6,-1
 610 490 l 1,7,-1
 610 450 l 1,8,-1
 479 450 l 1,9,-1
 445 236 l 1,10,-1
 607 236 l 1,11,-1
 607 196 l 1,12,-1
 437 196 l 1,13,-1
 407 0 l 1,14,-1
 363 0 l 1,15,-1
 393 196 l 1,16,-1
 248 196 l 1,17,-1
 217 0 l 1,18,-1
 173 0 l 1,19,-1
 204 196 l 1,20,-1
 81 196 l 1,21,-1
 81 236 l 1,22,-1
 209 236 l 1,23,-1
 245 450 l 1,24,-1
 81 450 l 1,25,-1
 81 490 l 1,26,-1
 251 490 l 1,27,-1
 280 684 l 1,0,-1
289 450 m 1,28,-1
 253 236 l 1,29,-1
 401 236 l 1,30,-1
 435 450 l 1,31,-1
 289 450 l 1,28,-1
EndSplineSet
Validated: 19457
EndChar

StartChar: dollar
Encoding: 36 36 4
Width: 580
VWidth: 1080
Flags: W
TeX: 100 0
HStem: -16 32<187.21 228 260 316> -10 33<348 383.529> 660 33<191.627 228> 668 32<260 316 348 383.902>
VStem: 62 62<78.0112 177> 86 48<470.197 605.978> 228 32<-84 -15 21 320 427 660 698 758> 316 32<-84 -15 23 285 392 663 699 758> 449 53<522.763 612.23> 456 44<90.2459 232.742>
LayerCount: 3
Fore
SplineSet
62 165 m 0x8b40
 62 189 71 209 86 224 c 0x87
 97 235 112 242 130 242 c 0
 141 242 152 237 160 230 c 0
 168 222 172 210 172 198 c 0
 172 176 166 164 136 132 c 0
 124 120 124 106 124 99 c 0x8b
 124 66 158 33 228 21 c 1
 228 333 l 1
 222 335 l 2
 129 372 86 436 86 518 c 0
 86 598 133 671 228 693 c 1xa7
 228 758 l 1
 260 758 l 1
 260 698 l 1
 270 699 281 700 292 700 c 0
 300 700 308 700 316 699 c 1
 316 758 l 1
 348 758 l 1
 348 695 l 1
 450 677 502 607 502 536 c 0
 502 510 500 488 488 468 c 0
 479 453 462 442 441 442 c 0
 426 442 418 446 408 456 c 0
 403 462 399 471 399 481 c 0
 399 509 417 526 428 536 c 0
 438 545 449 555 449 581 c 0x1780
 449 607 422 649 348 663 c 1
 348 379 l 1
 368 371 l 2
 455 337 500 264 500 187 c 0
 500 95 449 12 348 -10 c 1x5340
 348 -84 l 1
 316 -84 l 1
 316 -15 l 1
 308 -16 300 -16 292 -16 c 0
 281 -16 270 -16 260 -15 c 1
 260 -84 l 1
 228 -84 l 1
 228 -11 l 1
 125 7 62 69 62 165 c 0x8b40
260 17 m 1
 270 16 281 16 292 16 c 0
 300 16 308 16 316 17 c 1
 316 298 l 1
 260 320 l 1
 260 17 l 1
260 414 m 1
 316 392 l 1
 316 667 l 1
 308 668 300 668 292 668 c 0x13
 281 668 270 667 260 666 c 1
 260 414 l 1
134 540 m 0x27
 134 483 154 456 222 429 c 2
 228 427 l 1
 228 660 l 1
 160 640 134 587 134 540 c 0x27
348 23 m 1x4340
 421 43 456 102 456 155 c 0
 456 230 422 255 368 277 c 2
 348 285 l 1
 348 23 l 1x4340
EndSplineSet
Validated: 19457
Layer: 2
SplineSet
292 -16 m 0,0,1
 270 -16 270 -16 260 -15 c 1,2,-1
 260 -84 l 1,3,-1
 228 -84 l 1,4,-1
 228 -11 l 1,5,6
 150 3 150 3 106 48.5 c 128,-1,7
 62 94 62 94 62 165 c 0,8,9
 62 200 62 200 86 224 c 0,10,11
 104 242 104 242 130 242 c 0,12,13
 146 242 146 242 160 230 c 0,14,15
 172 218 172 218 172 198 c 0,16,17
 172 181 172 181 165 168.5 c 128,-1,18
 158 156 158 156 136 132 c 0,19,20
 124 120 124 120 124 99 c 0,21,22
 124 73 124 73 151 51.5 c 128,-1,23
 178 30 178 30 228 21 c 1,24,-1
 228 333 l 1,25,-1
 222 335 l 2,26,27
 86 389 86 389 86 518 c 0,28,29
 86 581 86 581 122.5 629 c 128,-1,30
 159 677 159 677 228 693 c 1,31,-1
 228 758 l 1,32,-1
 260 758 l 1,33,-1
 260 698 l 1,34,35
 280 700 280 700 292 700 c 0,36,37
 308 700 308 700 316 699 c 1,38,-1
 316 758 l 1,39,-1
 348 758 l 1,40,-1
 348 695 l 1,41,42
 421 682 421 682 461.5 637 c 128,-1,43
 502 592 502 592 502 536 c 0,44,45
 502 491 502 491 488 468 c 0,46,47
 472 442 472 442 441 442 c 0,48,49
 422 442 422 442 408 456 c 0,50,51
 399 467 399 467 399 481 c 0,52,53
 399 500 399 500 411 518 c 0,54,55
 417 526 417 526 427.5 535.5 c 128,-1,56
 438 545 438 545 441 550 c 0,57,58
 449 562 449 562 449 581 c 0,59,60
 449 604 449 604 423.5 628.5 c 128,-1,61
 398 653 398 653 348 663 c 1,62,-1
 348 379 l 1,63,-1
 368 371 l 2,64,65
 431 346 431 346 465.5 296.5 c 128,-1,66
 500 247 500 247 500 187 c 0,67,68
 500 115 500 115 460.5 60.5 c 128,-1,69
 421 6 421 6 348 -10 c 1,70,-1
 348 -84 l 1,71,-1
 316 -84 l 1,72,-1
 316 -15 l 1,73,74
 308 -16 308 -16 292 -16 c 0,0,1
260 320 m 1,75,-1
 260 17 l 1,76,77
 270 16 270 16 292 16 c 0,78,79
 308 16 308 16 316 17 c 1,80,-1
 316 298 l 1,81,-1
 260 320 l 1,75,-1
260 414 m 1,82,-1
 316 392 l 1,83,-1
 316 667 l 1,84,85
 308 668 308 668 292 668 c 0,86,87
 280 668 280 668 260 666 c 1,88,-1
 260 414 l 1,82,-1
134 540 m 0,89,90
 134 497 134 497 152.5 473 c 128,-1,91
 171 449 171 449 222 429 c 2,92,-1
 228 427 l 1,93,-1
 228 660 l 1,94,95
 180 646 180 646 157 612.5 c 128,-1,96
 134 579 134 579 134 540 c 0,89,90
456 155 m 0,97,98
 456 207 456 207 435 232.5 c 128,-1,99
 414 258 414 258 368 277 c 2,100,-1
 348 285 l 1,101,-1
 348 23 l 1,102,103
 400 37 400 37 428 74.5 c 128,-1,104
 456 112 456 112 456 155 c 0,97,98
EndSplineSet
Validated: 19457
EndChar

StartChar: percent
Encoding: 37 37 5
Width: 860
Flags: W
TeX: 112 0
HStem: -16 20<596.118 660.042> 322 20<596.118 660.042> 342 20<198.118 262.042> 680 20<198.118 262.042>
VStem: 96 64<418.798 621.949> 302 64<422.054 618.647> 494 64<60.7975 263.949> 700 64<64.0539 260.647>
DStem2: 198 -18 234 -18 0.509212 0.860641<18.3316 836.586>
LayerCount: 3
Fore
SplineSet
198 -18 m 25
 624 702 l 25
 660 702 l 25
 234 -18 l 25
 198 -18 l 25
558 162 m 0
 558 80 564 4 628 4 c 0
 692 4 700 80 700 162 c 0
 700 244 692 322 628 322 c 0
 564 322 558 244 558 162 c 0
494 162 m 0
 494 264 550 342 628 342 c 0
 706 342 764 264 764 162 c 0
 764 60 706 -16 628 -16 c 0
 550 -16 494 60 494 162 c 0
160 520 m 0
 160 438 166 362 230 362 c 0
 294 362 302 438 302 520 c 0
 302 602 294 680 230 680 c 0
 166 680 160 602 160 520 c 0
96 520 m 0
 96 622 152 700 230 700 c 0
 308 700 366 622 366 520 c 0
 366 418 308 342 230 342 c 0
 152 342 96 418 96 520 c 0
EndSplineSet
Validated: 1
Layer: 2
SplineSet
624 702 m 25,0,-1
 660 702 l 1,1,-1
 234 -18 l 1,2,-1
 198 -18 l 1,3,-1
 624 702 l 25,0,-1
628 4 m 0,4,5
 658 4 658 4 675 28 c 128,-1,6
 692 52 692 52 696 83 c 128,-1,7
 700 114 700 114 700 162 c 256,8,9
 700 210 700 210 696 241.5 c 128,-1,10
 692 273 692 273 675 297.5 c 128,-1,11
 658 322 658 322 628 322 c 0,12,13
 605 322 605 322 590 309.5 c 128,-1,14
 575 297 575 297 568.5 272 c 128,-1,15
 562 247 562 247 560 222.5 c 128,-1,16
 558 198 558 198 558 162 c 256,17,18
 558 126 558 126 560 102 c 128,-1,19
 562 78 562 78 568.5 53.5 c 128,-1,20
 575 29 575 29 590 16.5 c 128,-1,21
 605 4 605 4 628 4 c 0,4,5
628 -16 m 256,22,23
 570 -16 570 -16 532 34.5 c 128,-1,24
 494 85 494 85 494 162 c 256,25,26
 494 239 494 239 532 290.5 c 128,-1,27
 570 342 570 342 628 342 c 256,28,29
 686 342 686 342 725 290.5 c 128,-1,30
 764 239 764 239 764 162 c 256,31,32
 764 85 764 85 725 34.5 c 128,-1,33
 686 -16 686 -16 628 -16 c 256,22,23
230 362 m 0,34,35
 260 362 260 362 277 386 c 128,-1,36
 294 410 294 410 298 441 c 128,-1,37
 302 472 302 472 302 520 c 256,38,39
 302 568 302 568 298 599.5 c 128,-1,40
 294 631 294 631 277 655.5 c 128,-1,41
 260 680 260 680 230 680 c 0,42,43
 207 680 207 680 192 667.5 c 128,-1,44
 177 655 177 655 170.5 630 c 128,-1,45
 164 605 164 605 162 580.5 c 128,-1,46
 160 556 160 556 160 520 c 256,47,48
 160 484 160 484 162 460 c 128,-1,49
 164 436 164 436 170.5 411.5 c 128,-1,50
 177 387 177 387 192 374.5 c 128,-1,51
 207 362 207 362 230 362 c 0,34,35
230 342 m 256,52,53
 172 342 172 342 134 392.5 c 128,-1,54
 96 443 96 443 96 520 c 256,55,56
 96 597 96 597 134 648.5 c 128,-1,57
 172 700 172 700 230 700 c 256,58,59
 288 700 288 700 327 648.5 c 128,-1,60
 366 597 366 597 366 520 c 256,61,62
 366 443 366 443 327 392.5 c 128,-1,63
 288 342 288 342 230 342 c 256,52,53
EndSplineSet
Validated: 19457
Ligature2: "'frac' Diagonal Fractions-1" zero slash zero
Ligature2: "'frac' Diagonal Fractions-1" zero fraction zero
LCarets2: 2 320 540 
EndChar

StartChar: ampersand
Encoding: 38 38 6
Width: 786
Flags: W
TeX: 97 0
HStem: -18 44<565.42 656.531> -18 30<212.305 334.018> 366 32<484 560.375 645.583 732> 673 30<270.664 362.974>
VStem: 54 96<68.0579 219.66> 164 64<485.476 619.585> 399 36<516.912 640.151>
DStem2: 196 346 236 333 0.780869 0.624695<-66.3159 35.92 121.659 249.194> 311 393 246 341 0.576907 -0.81681<-157.139 -35.2256 4.97511 298.53>
LayerCount: 3
Fore
SplineSet
54 145 m 0x7e
 54 232 145 307 196 346 c 2
 226 369 l 1
 216 384 l 2
 185 431 164 485 164 530 c 0
 164 632 237 703 318 703 c 0
 402 703 435 639 435 580 c 0
 435 497 371 441 311 393 c 1
 483 149 l 1
 487 154 l 2
 534 212 568 288 568 326 c 0
 568 351 549 366 529 366 c 2
 484 366 l 1
 484 398 l 1
 732 398 l 1
 732 366 l 1
 701 366 l 2
 674 366 642 364 615 309 c 0
 557 191 530 155 503 121 c 1
 545 63 577 26 611 26 c 0
 667 26 692 69 708 102 c 1
 724 94 l 1
 708 59 672 -18 588 -18 c 0xbe
 535 -18 487 17 446 63 c 1
 397 20 328 -18 249 -18 c 0
 132 -18 54 34 54 145 c 0x7e
150 153 m 0
 150 53 215 12 261 12 c 0x7e
 326 12 380 45 425 87 c 1
 407 110 l 1
 246 341 l 1
 236 333 l 2
 196 301 150 249 150 153 c 0
228 560 m 0
 228 511 264 457 281 435 c 2
 291 422 l 1
 332 453 399 504 399 586 c 0
 399 632 365 673 319 673 c 0
 263 673 228 626 228 560 c 0
EndSplineSet
Validated: 19457
Layer: 2
SplineSet
54 145 m 0,0,1
 54 237 54 237 196 346 c 2,2,-1
 226 369 l 1,3,-1
 216 384 l 2,4,5
 164 463 164 463 164 530 c 0,6,7
 164 605 164 605 210 654 c 128,-1,8
 256 703 256 703 318 703 c 0,9,10
 376 703 376 703 405.5 666.5 c 128,-1,11
 435 630 435 630 435 580 c 0,12,13
 435 524 435 524 402.5 482 c 128,-1,14
 370 440 370 440 311 393 c 1,15,-1
 483 149 l 1,16,-1
 487 154 l 2,17,18
 522 197 522 197 545 247 c 128,-1,19
 568 297 568 297 568 326 c 0,20,21
 568 344 568 344 556.5 355 c 128,-1,22
 545 366 545 366 529 366 c 2,23,-1
 484 366 l 1,24,-1
 484 398 l 1,25,-1
 732 398 l 1,26,-1
 732 366 l 1,27,-1
 701 366 l 2,28,29
 683 366 683 366 672 363.5 c 128,-1,30
 661 361 661 361 644.5 348 c 128,-1,31
 628 335 628 335 615 309 c 0,32,33
 554 186 554 186 503 121 c 1,34,35
 538 72 538 72 562.5 49 c 128,-1,36
 587 26 587 26 611 26 c 0,37,38
 648 26 648 26 670 47 c 128,-1,39
 692 68 692 68 708 102 c 1,40,-1
 724 94 l 1,41,42
 673 -18 673 -18 588 -18 c 0,43,44
 518 -18 518 -18 446 63 c 1,45,46
 354 -18 354 -18 249 -18 c 0,47,48
 158 -18 158 -18 106 23 c 128,-1,49
 54 64 54 64 54 145 c 0,0,1
150 153 m 0,50,51
 150 85 150 85 185 48.5 c 128,-1,52
 220 12 220 12 261 12 c 0,53,54
 345 12 345 12 425 87 c 1,55,-1
 407 110 l 1,56,-1
 246 341 l 1,57,-1
 236 333 l 2,58,59
 150 264 150 264 150 153 c 0,50,51
228 560 m 0,60,61
 228 504 228 504 281 435 c 2,62,-1
 291 422 l 1,63,64
 321 445 321 445 339 461 c 128,-1,65
 357 477 357 477 378 512.5 c 128,-1,66
 399 548 399 548 399 586 c 0,67,68
 399 621 399 621 376 647 c 128,-1,69
 353 673 353 673 319 673 c 0,70,71
 278 673 278 673 253 641.5 c 128,-1,72
 228 610 228 610 228 560 c 0,60,61
EndSplineSet
Validated: 19457
EndChar

StartChar: quotesingle
Encoding: 39 39 7
Width: 240
VWidth: 959
Flags: W
TeX: 113 0
HStem: 520 210<108 132>
VStem: 86 68<522.281 727.641>
LayerCount: 3
Fore
SplineSet
86 684 m 0
 86 716 101 730 120 730 c 0
 139 730 154 716 154 684 c 0
 154 680 153 673 152 666 c 10
 132 520 l 25
 108 520 l 25
 88 666 l 18
 87 673 86 680 86 684 c 0
EndSplineSet
Validated: 1
Layer: 2
SplineSet
120 730 m 256,0,1
 154 730 154 730 154 684 c 0,2,3
 154 680 154 680 152 666 c 2,4,-1
 132 520 l 1,5,-1
 108 520 l 1,6,-1
 88 666 l 18,7,8
 86 680 86 680 86 684 c 0,9,10
 86 730 86 730 120 730 c 256,0,1
EndSplineSet
Validated: 19457
EndChar

StartChar: parenleft
Encoding: 40 40 8
Width: 370
Flags: W
TeX: 112 0
HStem: 710 20G<238 319>
VStem: 98 50<99.4284 432.572>
LayerCount: 3
Fore
SplineSet
98 266 m 0
 98 462 182 626 294 730 c 9
 324 706 l 17
 206 582 148 438 148 266 c 0
 148 94 206 -50 324 -174 c 9
 294 -198 l 17
 182 -94 98 70 98 266 c 0
EndSplineSet
Validated: 1
Layer: 2
SplineSet
98 266 m 256,0,1
 98 407 98 407 151.5 527.5 c 128,-1,2
 205 648 205 648 294 730 c 1,3,-1
 324 706 l 1,4,5
 148 521 148 521 148 266 c 256,6,7
 148 11 148 11 324 -174 c 1,8,-1
 294 -198 l 1,9,10
 205 -116 205 -116 151.5 4.5 c 128,-1,11
 98 125 98 125 98 266 c 256,0,1
EndSplineSet
Validated: 19457
EndChar

StartChar: parenright
Encoding: 41 41 9
Width: 370
Flags: W
TeX: 112 0
HStem: 710 20G<53 134>
VStem: 224 50<99.4284 432.572>
LayerCount: 3
Fore
SplineSet
48 -174 m 17
 166 -50 224 94 224 266 c 0
 224 438 166 582 48 706 c 9
 78 730 l 17
 190 626 274 462 274 266 c 0
 274 70 190 -94 78 -198 c 9
 48 -174 l 17
EndSplineSet
Validated: 1
Layer: 2
SplineSet
274 266 m 256,0,1
 274 125 274 125 220.5 4.5 c 128,-1,2
 167 -116 167 -116 78 -198 c 1,3,-1
 48 -174 l 1,4,5
 224 11 224 11 224 266 c 256,6,7
 224 521 224 521 48 706 c 1,8,-1
 78 730 l 1,9,10
 167 648 167 648 220.5 527.5 c 128,-1,11
 274 407 274 407 274 266 c 256,0,1
EndSplineSet
Validated: 19457
EndChar

StartChar: asterisk
Encoding: 42 42 10
Width: 502
Flags: W
TeX: 97 0
HStem: 374 84<81.7005 150.398 359.602 428.299> 468 54<223.063 242.999 267.001 286.937> 532 84<81.7005 150.398 359.602 428.299> 680 20G<243 267>
VStem: 217 76<293.344 410.261 484.004 505.996 579.739 696.656> 243 24<381.854 467.999 522.002 608.146>
LayerCount: 3
Fore
SplineSet
72 411 m 0xf4
 72 442 102 453 139 458 c 0
 160 461 188 470 213 484 c 0
 213 484 223 489 223 495 c 0
 223 501 213 506 213 506 c 0
 188 520 160 529 139 532 c 0
 102 537 72 548 72 579 c 0
 72 596 85 616 109 616 c 0
 131 616 147 601 165 577 c 0
 178 560 197 543 221 528 c 0
 224 526 231 522 235 522 c 0
 241 522 243 524 243 537 c 0xf4
 243 565 237 594 229 614 c 0
 222 631 217 649 217 657 c 0
 217 681 231 700 255 700 c 0
 279 700 293 681 293 657 c 0xf8
 293 649 288 631 281 614 c 0
 273 594 267 565 267 537 c 0
 267 524 269 522 275 522 c 0
 279 522 286 526 289 528 c 0
 313 543 332 560 345 577 c 0
 363 601 379 616 401 616 c 0
 425 616 438 596 438 579 c 0
 438 548 408 537 371 532 c 0
 350 529 322 520 297 506 c 0
 297 506 287 501 287 495 c 0
 287 489 297 484 297 484 c 0
 322 470 350 461 371 458 c 0
 408 453 438 442 438 411 c 0
 438 394 425 374 401 374 c 0
 379 374 363 389 345 413 c 0
 332 430 313 447 289 462 c 0
 286 464 279 468 275 468 c 0
 269 468 267 466 267 453 c 0xf4
 267 425 273 396 281 376 c 0
 288 359 293 341 293 333 c 0
 293 309 279 290 255 290 c 0
 231 290 217 309 217 333 c 0xf8
 217 341 222 359 229 376 c 0
 237 396 243 425 243 453 c 0
 243 466 241 468 235 468 c 0
 231 468 224 464 221 462 c 0
 197 447 178 430 165 413 c 0
 147 389 131 374 109 374 c 0
 85 374 72 394 72 411 c 0xf4
EndSplineSet
Validated: 1
Layer: 2
SplineSet
255 700 m 256,0,1
 273 700 273 700 283 688 c 128,-1,2
 293 676 293 676 293 657 c 0,3,4
 293 643 293 643 281 614 c 0,5,6
 267 579 267 579 267 537 c 0,7,8
 267 522 267 522 275 522 c 0,9,10
 280 522 280 522 289 528 c 0,11,12
 324 550 324 550 345 577 c 0,13,14
 374 616 374 616 401 616 c 0,15,16
 418 616 418 616 428 604.5 c 128,-1,17
 438 593 438 593 438 579 c 0,18,19
 438 541 438 541 371 532 c 0,20,21
 334 527 334 527 297 506 c 2,22,-1
 292 502 l 2,23,24
 287 499 287 499 287 495 c 256,25,26
 287 491 287 491 292 488 c 2,27,-1
 297 484 l 2,28,29
 334 463 334 463 371 458 c 0,30,31
 438 449 438 449 438 411 c 0,32,33
 438 397 438 397 428 385.5 c 128,-1,34
 418 374 418 374 401 374 c 0,35,36
 374 374 374 374 345 413 c 0,37,38
 324 440 324 440 289 462 c 0,39,40
 280 468 280 468 275 468 c 0,41,42
 267 468 267 468 267 453 c 0,43,44
 267 411 267 411 281 376 c 0,45,46
 293 347 293 347 293 333 c 0,47,48
 293 314 293 314 283 302 c 128,-1,49
 273 290 273 290 255 290 c 256,50,51
 237 290 237 290 227 302 c 128,-1,52
 217 314 217 314 217 333 c 0,53,54
 217 347 217 347 229 376 c 0,55,56
 243 411 243 411 243 453 c 0,57,58
 243 468 243 468 235 468 c 0,59,60
 230 468 230 468 221 462 c 0,61,62
 186 440 186 440 165 413 c 0,63,64
 136 374 136 374 109 374 c 0,65,66
 92 374 92 374 82 385.5 c 128,-1,67
 72 397 72 397 72 411 c 0,68,69
 72 449 72 449 139 458 c 0,70,71
 176 463 176 463 213 484 c 2,72,-1
 218 488 l 2,73,74
 223 491 223 491 223 495 c 256,75,76
 223 499 223 499 218 502 c 2,77,-1
 213 506 l 2,78,79
 176 527 176 527 139 532 c 0,80,81
 72 541 72 541 72 579 c 0,82,83
 72 593 72 593 82 604.5 c 128,-1,84
 92 616 92 616 109 616 c 0,85,86
 136 616 136 616 165 577 c 0,87,88
 186 550 186 550 221 528 c 0,89,90
 230 522 230 522 235 522 c 0,91,92
 243 522 243 522 243 537 c 0,93,94
 243 579 243 579 229 614 c 0,95,96
 217 643 217 643 217 657 c 0,97,98
 217 676 217 676 227 688 c 128,-1,99
 237 700 237 700 255 700 c 256,0,1
EndSplineSet
Validated: 19457
EndChar

StartChar: plus
Encoding: 43 43 11
Width: 940
Flags: W
TeX: 112 0
HStem: -156 21G<448 492> 244 40<48 448 492 892> 664 20G<448 492>
VStem: 448 44<-156 244 284 684>
LayerCount: 3
Fore
SplineSet
48 244 m 1
 48 284 l 1
 448 284 l 1
 448 684 l 1
 492 684 l 1
 492 284 l 1
 892 284 l 1
 892 244 l 1
 492 244 l 1
 492 -156 l 1
 448 -156 l 1
 448 244 l 1
 48 244 l 1
EndSplineSet
Validated: 1
Layer: 2
SplineSet
48 244 m 1,0,-1
 48 284 l 1,1,-1
 448 284 l 1,2,-1
 448 684 l 1,3,-1
 492 684 l 1,4,-1
 492 284 l 1,5,-1
 892 284 l 1,6,-1
 892 244 l 1,7,-1
 492 244 l 1,8,-1
 492 -156 l 1,9,-1
 448 -156 l 1,10,-1
 448 244 l 1,11,-1
 48 244 l 1,0,-1
EndSplineSet
Validated: 19457
EndChar

StartChar: comma
Encoding: 44 44 12
Width: 280
Flags: W
TeX: 99 0
HStem: -168 21G<90 131.5> 30 110<84.9407 171.788>
VStem: 174 36<-52.2175 52.5>
LayerCount: 3
Fore
SplineSet
72 82 m 0
 72 120 104 140 130 140 c 0
 157 140 177 128 191 108 c 0
 204 90 210 68 210 37 c 0
 210 -50 159 -128 104 -168 c 9
 90 -152 l 17
 138 -116 174 -58 174 -4 c 0
 174 10 170 18 156 26 c 0
 149 30 136 30 122 30 c 0
 92 30 72 55 72 82 c 0
EndSplineSet
Validated: 19457
Layer: 2
SplineSet
72 82 m 0,0,1
 72 109 72 109 90 124.5 c 128,-1,2
 108 140 108 140 130 140 c 0,3,4
 169 140 169 140 191 108 c 0,5,6
 210 82 210 82 210 37 c 0,7,8
 210 -25 210 -25 179 -80.5 c 128,-1,9
 148 -136 148 -136 104 -168 c 1,10,-1
 90 -152 l 1,11,12
 127 -124 127 -124 150.5 -84 c 128,-1,13
 174 -44 174 -44 174 -4 c 0,14,15
 174 16 174 16 156 26 c 0,16,17
 150 30 150 30 122 30 c 0,18,19
 100 30 100 30 86 45.5 c 128,-1,20
 72 61 72 61 72 82 c 0,0,1
EndSplineSet
Validated: 19457
EndChar

StartChar: hyphen
Encoding: 45 45 13
Width: 370
Flags: W
TeX: 104 0
HStem: 224 56<60 310>
VStem: 60 250<224 280>
LayerCount: 3
Fore
SplineSet
60 224 m 25
 60 280 l 25
 310 280 l 25
 310 224 l 25
 60 224 l 25
EndSplineSet
Validated: 1
Layer: 2
SplineSet
60 280 m 25,0,-1
 310 280 l 1,1,-1
 310 224 l 1,2,-1
 60 224 l 1,3,-1
 60 280 l 25,0,-1
EndSplineSet
Validated: 19457
EndChar

StartChar: period
Encoding: 46 46 14
Width: 280
Flags: W
TeX: 112 0
HStem: -12 124<91.5898 188.41>
VStem: 78 124<1.58984 98.4102>
LayerCount: 3
Fore
SplineSet
78 50 m 0
 78 86 104 112 140 112 c 0
 176 112 202 86 202 50 c 0
 202 14 176 -12 140 -12 c 0
 104 -12 78 14 78 50 c 0
EndSplineSet
Validated: 1
Layer: 2
SplineSet
140 -12 m 256,0,1
 113 -12 113 -12 95.5 5.5 c 128,-1,2
 78 23 78 23 78 50 c 256,3,4
 78 77 78 77 95.5 94.5 c 128,-1,5
 113 112 113 112 140 112 c 256,6,7
 167 112 167 112 184.5 94.5 c 128,-1,8
 202 77 202 77 202 50 c 256,9,10
 202 23 202 23 184.5 5.5 c 128,-1,11
 167 -12 167 -12 140 -12 c 256,0,1
EndSplineSet
Validated: 19457
EndChar

StartChar: slash
Encoding: 47 47 15
Width: 450
Flags: W
TeX: 115 0
HStem: 710 20G<347.578 394>
DStem2: 56 -198 96 -198 0.305743 0.952114<12.2297 974.673>
LayerCount: 3
Fore
SplineSet
56 -198 m 25
 354 730 l 25
 394 730 l 25
 96 -198 l 25
 56 -198 l 25
EndSplineSet
Validated: 1
Layer: 2
SplineSet
96 -198 m 25,0,-1
 56 -198 l 1,1,-1
 354 730 l 1,2,-1
 394 730 l 1,3,-1
 96 -198 l 25,0,-1
EndSplineSet
Validated: 19457
EndChar

StartChar: zero
Encoding: 48 48 16
Width: 580
VWidth: 1080
Flags: W
TeX: 122 0
HStem: -16 32<236.085 343.595> 668 32<236.085 343.595>
VStem: 48 106<194.845 489.595> 426 106<194.845 489.595>
LayerCount: 3
Fore
SplineSet
154 342 m 0
 154 211 164 16 290 16 c 0
 415 16 426 211 426 342 c 0
 426 474 415 668 290 668 c 0
 164 668 154 474 154 342 c 0
48 342 m 0
 48 522 143 700 290 700 c 0
 436 700 532 522 532 342 c 0
 532 163 436 -16 290 -16 c 0
 143 -16 48 163 48 342 c 0
EndSplineSet
Validated: 1
Layer: 2
SplineSet
290 16 m 256,0,1
 325 16 325 16 351.5 38.5 c 128,-1,2
 378 61 378 61 391.5 92.5 c 128,-1,3
 405 124 405 124 413 172 c 128,-1,4
 421 220 421 220 423 257 c 128,-1,5
 425 294 425 294 425 341 c 0,6,7
 425 389 425 389 423 426 c 128,-1,8
 421 463 421 463 413 511 c 128,-1,9
 405 559 405 559 391.5 590.5 c 128,-1,10
 378 622 378 622 351.5 644.5 c 128,-1,11
 325 667 325 667 290 667 c 256,12,13
 255 667 255 667 228.5 644.5 c 128,-1,14
 202 622 202 622 188.5 590.5 c 128,-1,15
 175 559 175 559 167 511 c 128,-1,16
 159 463 159 463 157 426 c 128,-1,17
 155 389 155 389 155 341 c 0,18,19
 155 294 155 294 157 257 c 128,-1,20
 159 220 159 220 167 172 c 128,-1,21
 175 124 175 124 188.5 92.5 c 128,-1,22
 202 61 202 61 228.5 38.5 c 128,-1,23
 255 16 255 16 290 16 c 256,0,1
290 -16 m 256,24,25
 220 -16 220 -16 163.5 36.5 c 128,-1,26
 107 89 107 89 78 170 c 128,-1,27
 49 251 49 251 49 342 c 256,28,29
 49 433 49 433 78 514 c 128,-1,30
 107 595 107 595 163.5 647.5 c 128,-1,31
 220 700 220 700 290 700 c 256,32,33
 360 700 360 700 416.5 647.5 c 128,-1,34
 473 595 473 595 502 514 c 128,-1,35
 531 433 531 433 531 342 c 256,36,37
 531 251 531 251 502 170 c 128,-1,38
 473 89 473 89 416.5 36.5 c 128,-1,39
 360 -16 360 -16 290 -16 c 256,24,25
EndSplineSet
Validated: 19457
AlternateSubs2: "'aalt' Access All Alternates in Latin lookup 0 subtable" zerosuperior zeroinferior
Substitution2: "'sups' Superscript Forms-1" zerosuperior
Substitution2: "'subs' Subscript Forms-1" zeroinferior
EndChar

StartChar: one
Encoding: 49 49 17
Width: 580
VWidth: 1080
Flags: W
TeX: 111 0
HStem: 0 32<120 242.976 337.024 460> 549 36<120 242.565> 664 20G<299 336>
VStem: 244 92<32.2578 549> 304 32<643.989 684>
LayerCount: 3
Fore
SplineSet
120 0 m 25xf0
 120 32 l 25
 216 32 l 18
 236 32 244 39 244 58 c 10
 244 549 l 25xf0
 120 549 l 25
 120 585 l 17
 175 585 l 2
 253 585 294 636 304 684 c 9
 336 684 l 25xe8
 336 58 l 18
 336 39 344 32 364 32 c 10
 460 32 l 25
 460 0 l 25
 120 0 l 25xf0
EndSplineSet
Validated: 19457
Layer: 2
SplineSet
120 0 m 25,0,-1
 120 32 l 1,1,-1
 216 32 l 2,2,3
 244 32 244 32 244 58 c 2,4,-1
 244 549 l 1,5,-1
 120 549 l 1,6,-1
 120 585 l 1,7,-1
 175 585 l 2,8,9
 229 585 229 585 262.5 614 c 128,-1,10
 296 643 296 643 304 684 c 1,11,-1
 336 684 l 1,12,-1
 336 58 l 2,13,14
 336 32 336 32 364 32 c 2,15,-1
 460 32 l 1,16,-1
 460 0 l 1,17,-1
 120 0 l 25,0,-1
EndSplineSet
Validated: 19457
AlternateSubs2: "'aalt' Access All Alternates in Latin lookup 0 subtable" onesuperior oneinferior
Substitution2: "'sups' Superscript Forms-1" onesuperior
Substitution2: "'subs' Subscript Forms-1" oneinferior
EndChar

StartChar: two
Encoding: 50 50 18
Width: 580
Flags: W
TeX: 116 0
HStem: 0 82<155.104 434.804> 403 106<123.038 204.341> 664 36<183.475 318.724>
VStem: 74 42<516.722 603.548> 83 72<82.4971 106.901> 390 106<424.465 594.447> 465 22<170.455 208>
DStem2: 198 225 242 216 0.760374 0.649486<-102.898 238.093>
LayerCount: 3
Fore
SplineSet
74 521 m 0xf4
 74 624 158 700 272 700 c 0
 400 700 496 626 496 501 c 0xf4
 496 408 405 339 340 292 c 2
 242 216 l 2
 192 181 155 146 155 106 c 0
 155 85 171 82 186 82 c 2
 375 82 l 2
 433 82 447.278 112.947 454 149 c 2
 465 208 l 9
 487 208 l 25
 473 0 l 17
 83 0 l 1xea
 83 50 87 131 198 225 c 2
 294 307 l 2
 352 356 390 415 390 501 c 0
 390 605 337 664 244 664 c 0
 179 664 116 613 116 559 c 0
 116 524 135 513 157 509 c 0
 202 502 220 476 220 448 c 0
 220 424 202 403 169 403 c 0
 115 403 74 449 74 521 c 0xf4
EndSplineSet
Validated: 1
Layer: 2
SplineSet
473 0 m 17,0,-1
 83 0 l 1,1,2
 83 25 83 25 86 44.5 c 128,-1,3
 89 64 89 64 98.5 94.5 c 128,-1,4
 108 125 108 125 133.5 158.5 c 128,-1,5
 159 192 159 192 198 225 c 2,6,-1
 294 307 l 2,7,8
 390 388 390 388 390 501 c 0,9,10
 390 579 390 579 352 621.5 c 128,-1,11
 314 664 314 664 244 664 c 0,12,13
 195 664 195 664 155.5 631.5 c 128,-1,14
 116 599 116 599 116 559 c 0,15,16
 116 516 116 516 157 509 c 0,17,18
 189 504 189 504 204.5 487.5 c 128,-1,19
 220 471 220 471 220 448 c 0,20,21
 220 429 220 429 206.5 416 c 128,-1,22
 193 403 193 403 169 403 c 0,23,24
 128 403 128 403 101 435.5 c 128,-1,25
 74 468 74 468 74 521 c 0,26,27
 74 598 74 598 130.5 649 c 128,-1,28
 187 700 187 700 272 700 c 0,29,30
 370 700 370 700 433 646.5 c 128,-1,31
 496 593 496 593 496 501 c 0,32,33
 496 468 496 468 482 437 c 128,-1,34
 468 406 468 406 441 378 c 128,-1,35
 414 350 414 350 393 332.5 c 128,-1,36
 372 315 372 315 340 292 c 2,37,-1
 242 216 l 2,38,39
 155 155 155 155 155 106 c 0,40,41
 155 82 155 82 186 82 c 2,42,-1
 375 82 l 2,43,44
 415 82 415 82 431.5 99.5 c 128,-1,45
 448 117 448 117 454 149 c 2,46,-1
 465 208 l 1,47,-1
 487 208 l 1,48,-1
 473 0 l 17,0,-1
EndSplineSet
Validated: 19457
AlternateSubs2: "'aalt' Access All Alternates in Latin lookup 0 subtable" twosuperior twoinferior
Substitution2: "'sups' Superscript Forms-1" twosuperior
Substitution2: "'subs' Subscript Forms-1" twoinferior
EndChar

StartChar: three
Encoding: 51 51 19
Width: 580
Flags: W
TeX: 116 0
HStem: -16 32<164.162 322.052> 96 110<131.527 198.788> 326 56<138.854 274.07> 346 28<211.597 321.944> 668 32<183.133 315.925>
VStem: 72 58<48.8391 142.5> 88 64<534.5 628.484> 377 96<446.913 608.605> 394 106<96.8813 266.619>
LayerCount: 3
Fore
SplineSet
72 119 m 0xdc80
 72 166 102 206 148 206 c 0
 186 206 210 185 210 148 c 0
 210 121 193 96 165 96 c 0
 150 96 130 94 130 79 c 0
 130 33 182 16 256 16 c 0
 362 16 394 107 394 186 c 0
 394 300 336 346 275 346 c 0xdc80
 255 346 245 344 227 337 c 0
 212 332 193 326 176 326 c 0
 158 326 138 334 138 354 c 0
 138 374 157 382 176 382 c 0xec80
 190 382 205 380 223 377 c 0
 243 374 265 374 278 374 c 0
 347 374 377 451 377 517 c 0
 377 598 340 668 260 668 c 0
 171 668 152 630 152 606 c 0
 152 596 160 580 178 572 c 0
 202 562 214 545 214 523 c 0
 214 497 196 475 160 475 c 0
 120 475 88 515 88 554 c 0
 88 653 178 700 271 700 c 0
 392 700 473 630 473 524 c 0xdb
 473 435 400 382 345 369 c 1
 345 361 l 1
 404 351 500 290 500 185 c 0
 500 60 388 -16 256 -16 c 0
 156 -16 72 26 72 119 c 0xdc80
EndSplineSet
Validated: 1
Layer: 2
SplineSet
271 700 m 0,0,1
 362 700 362 700 417.5 651.5 c 128,-1,2
 473 603 473 603 473 524 c 0,3,4
 473 463 473 463 433 421.5 c 128,-1,5
 393 380 393 380 345 369 c 1,6,-1
 345 361 l 1,7,8
 399 352 399 352 449.5 304 c 128,-1,9
 500 256 500 256 500 185 c 0,10,11
 500 94 500 94 429.5 39 c 128,-1,12
 359 -16 359 -16 256 -16 c 0,13,14
 176 -16 176 -16 124 18.5 c 128,-1,15
 72 53 72 53 72 119 c 0,16,17
 72 155 72 155 93 180.5 c 128,-1,18
 114 206 114 206 148 206 c 0,19,20
 177 206 177 206 193.5 190.5 c 128,-1,21
 210 175 210 175 210 148 c 0,22,23
 210 127 210 127 197.5 111.5 c 128,-1,24
 185 96 185 96 165 96 c 0,25,26
 130 96 130 96 130 79 c 0,27,28
 130 16 130 16 256 16 c 0,29,30
 306 16 306 16 338.5 43 c 128,-1,31
 371 70 371 70 382.5 106 c 128,-1,32
 394 142 394 142 394 186 c 0,33,34
 394 266 394 266 359.5 306 c 128,-1,35
 325 346 325 346 275 346 c 0,36,37
 250 346 250 346 227 337 c 0,38,39
 194 326 194 326 176 326 c 0,40,41
 161 326 161 326 149.5 333 c 128,-1,42
 138 340 138 340 138 354 c 0,43,44
 138 382 138 382 176 382 c 0,45,46
 193 382 193 382 223 377 c 0,47,48
 243 374 243 374 278 374 c 0,49,50
 326 374 326 374 351.5 417.5 c 128,-1,51
 377 461 377 461 377 517 c 0,52,53
 377 582 377 582 347 625 c 128,-1,54
 317 668 317 668 260 668 c 0,55,56
 201 668 201 668 176.5 649 c 128,-1,57
 152 630 152 630 152 606 c 0,58,59
 152 584 152 584 178 572 c 0,60,61
 214 557 214 557 214 523 c 0,62,63
 214 502 214 502 200 488.5 c 128,-1,64
 186 475 186 475 160 475 c 0,65,66
 131 475 131 475 109.5 499.5 c 128,-1,67
 88 524 88 524 88 554 c 0,68,69
 88 624 88 624 141.5 662 c 128,-1,70
 195 700 195 700 271 700 c 0,0,1
EndSplineSet
Validated: 19457
AlternateSubs2: "'aalt' Access All Alternates in Latin lookup 0 subtable" threesuperior threeinferior
Substitution2: "'sups' Superscript Forms-1" threesuperior
Substitution2: "'subs' Subscript Forms-1" threeinferior
EndChar

StartChar: four
Encoding: 52 52 20
Width: 580
VWidth: 1080
Flags: W
TeX: 102 0
HStem: 0 32<186 308.985 403.015 526> 192 36<102 310 402 523> 665 20G<352.433 402>
VStem: 310 92<32.1887 192 228 534>
DStem2: 56 228 102 228 0.561369 0.827566<25.823 395.823>
LayerCount: 3
Fore
SplineSet
102 228 m 1
 310 228 l 1
 310 534 l 1
 102 228 l 1
56 192 m 1
 56 228 l 1
 366 685 l 1
 402 685 l 1
 402 228 l 1
 523 228 l 1
 523 192 l 1
 402 192 l 1
 402 58 l 2
 402 39 410 32 429 32 c 2
 526 32 l 1
 526 0 l 1
 186 0 l 1
 186 32 l 1
 283 32 l 2
 302 32 310 39 310 58 c 2
 310 192 l 1
 56 192 l 1
EndSplineSet
Validated: 1
Layer: 2
SplineSet
310 534 m 1,0,-1
 102 228 l 1,1,-1
 310 228 l 1,2,-1
 310 534 l 1,0,-1
186 0 m 1,3,-1
 186 32 l 1,4,-1
 283 32 l 2,5,6
 310 32 310 32 310 58 c 2,7,-1
 310 192 l 1,8,-1
 56 192 l 1,9,-1
 56 228 l 1,10,-1
 366 685 l 1,11,-1
 402 685 l 1,12,-1
 402 228 l 1,13,-1
 523 228 l 1,14,-1
 523 192 l 1,15,-1
 402 192 l 1,16,-1
 402 58 l 2,17,18
 402 32 402 32 429 32 c 2,19,-1
 526 32 l 1,20,-1
 526 0 l 1,21,-1
 186 0 l 1,3,-1
EndSplineSet
Validated: 19457
AlternateSubs2: "'aalt' Access All Alternates in Latin lookup 0 subtable" foursuperior fourinferior
Substitution2: "'sups' Superscript Forms-1" foursuperior
Substitution2: "'subs' Subscript Forms-1" fourinferior
EndChar

StartChar: five
Encoding: 53 53 21
Width: 580
Flags: W
TeX: 102 0
HStem: -16 32<186.933 328.241> 432 36<216.426 342.203> 582 76<176.537 355.241> 680 20G<120 156 417 458>
VStem: 86 72<56.984 155.449> 120 36<313.127 386.904 411 602> 408 106<136.138 348.677>
LayerCount: 3
Fore
SplineSet
86 131 m 0xfa
 86 198 128 228 166 228 c 0
 204 228 224 201 224 170 c 0
 224 146 208 126 188 117 c 0
 173 110 158 102 158 84 c 0xfa
 158 44 184 16 268 16 c 0
 374 16 408 127 408 242 c 0
 408 358 372 432 272 432 c 0
 234 432 209 423 179 393 c 0
 164 378 156 352 156 338 c 0
 156 324 149 313 136 313 c 0
 127 313 120 318 120 338 c 2
 120 683 l 1
 142 700 l 1
 170 676 233 658 279 658 c 0
 338 658 388 666 446 700 c 1
 458 686 l 1
 412 627 340 582 258 582 c 0
 207 582 183 588 156 602 c 1
 156 411 l 1xf6
 162 409 l 1
 195 447 244 468 292 468 c 0
 435 468 514 374 514 242 c 0
 514 92 402 -16 268 -16 c 0
 154 -16 86 49 86 131 c 0xfa
EndSplineSet
Validated: 1
Layer: 2
SplineSet
268 -16 m 0,0,1
 185 -16 185 -16 135.5 26 c 128,-1,2
 86 68 86 68 86 131 c 0,3,4
 86 178 86 178 110 203 c 128,-1,5
 134 228 134 228 166 228 c 0,6,7
 193 228 193 228 208.5 211.5 c 128,-1,8
 224 195 224 195 224 170 c 0,9,10
 224 133 224 133 188 117 c 0,11,12
 158 103 158 103 158 84 c 0,13,14
 158 16 158 16 268 16 c 0,15,16
 318 16 318 16 351 49.5 c 128,-1,17
 384 83 384 83 396 131.5 c 128,-1,18
 408 180 408 180 408 242 c 0,19,20
 408 432 408 432 272 432 c 0,21,22
 218 432 218 432 179 393 c 0,23,24
 156 370 156 370 156 338 c 0,25,26
 156 313 156 313 136 313 c 0,27,28
 120 313 120 313 120 338 c 2,29,-1
 120 683 l 1,30,-1
 142 700 l 1,31,32
 163 682 163 682 203.5 670 c 128,-1,33
 244 658 244 658 279 658 c 0,34,35
 374 658 374 658 446 700 c 1,36,-1
 458 686 l 1,37,38
 422 639 422 639 369.5 610.5 c 128,-1,39
 317 582 317 582 258 582 c 0,40,41
 195 582 195 582 156 602 c 1,42,-1
 156 411 l 1,43,-1
 162 409 l 1,44,45
 213 468 213 468 292 468 c 0,46,47
 397 468 397 468 455.5 406 c 128,-1,48
 514 344 514 344 514 242 c 0,49,50
 514 131 514 131 442 57.5 c 128,-1,51
 370 -16 370 -16 268 -16 c 0,0,1
EndSplineSet
Validated: 19457
AlternateSubs2: "'aalt' Access All Alternates in Latin lookup 0 subtable" fivesuperior fiveinferior
Substitution2: "'sups' Superscript Forms-1" fivesuperior
Substitution2: "'subs' Subscript Forms-1" fiveinferior
EndChar

StartChar: six
Encoding: 54 54 22
Width: 580
VWidth: 1080
Flags: W
TeX: 115 0
HStem: -16 32<244.997 349.495> 392 37<253.599 362.419> 668 32<271.333 396.32>
VStem: 80 93<345 476.769> 414 88<118.481 321.13> 414 62<561.5 644.198>
LayerCount: 3
Fore
SplineSet
186 206 m 0xf8
 186 108 212 16 298 16 c 0
 388 16 414 125 414 206 c 0
 414 299 391 392 310 392 c 0
 241 392 186 319 186 206 c 0xf8
80 314 m 0
 80 418 106 534 162 606 c 0
 216 676 277 700 333 700 c 0
 390 700 424 678 448 652 c 0
 471 625 476 590 476 573 c 0
 476 550 468 531 451 516 c 0
 437 504 423 501 410 501 c 0
 395 501 382 508 374 519 c 0
 366 529 366 538 366 548 c 0
 366 559 372 570 379 578 c 0
 385 585 392 591 398 595 c 0
 409 603 414 610 414 623 c 0xf4
 414 643 393 668 331 668 c 0
 288 668 240 647 208 577 c 0
 183 522 173 430 173 390 c 2
 173 345 l 1
 180 342 l 1
 205 394 262 429 308 429 c 0
 360 429 396 414 421 396 c 0
 475 357 502 289 502 219 c 0
 502 116 432 -16 298 -16 c 0
 168 -16 80 109 80 314 c 0
EndSplineSet
Validated: 1
Layer: 2
SplineSet
298 16 m 0,0,1
 340 16 340 16 367.5 48 c 128,-1,2
 395 80 395 80 404.5 120 c 128,-1,3
 414 160 414 160 414 206 c 0,4,5
 414 286 414 286 390 339 c 128,-1,6
 366 392 366 392 310 392 c 0,7,8
 257 392 257 392 221.5 340.5 c 128,-1,9
 186 289 186 289 186 206 c 256,10,11
 186 123 186 123 212 69.5 c 128,-1,12
 238 16 238 16 298 16 c 0,0,1
298 -16 m 0,13,14
 200 -16 200 -16 140 73 c 128,-1,15
 80 162 80 162 80 314 c 0,16,17
 80 396 80 396 101 475 c 128,-1,18
 122 554 122 554 162 606 c 0,19,20
 235 700 235 700 333 700 c 0,21,22
 404 700 404 700 448 652 c 0,23,24
 476 619 476 619 476 573 c 0,25,26
 476 538 476 538 451 516 c 0,27,28
 434 501 434 501 410 501 c 0,29,30
 387 501 387 501 374 519 c 0,31,32
 366 529 366 529 366 548 c 0,33,34
 366 563 366 563 379 578 c 0,35,36
 388 588 388 588 398 595 c 0,37,38
 414 607 414 607 414 623 c 0,39,40
 414 641 414 641 393.5 654.5 c 128,-1,41
 373 668 373 668 331 668 c 0,42,43
 250 668 250 668 208 577 c 0,44,45
 191 540 191 540 182 484 c 128,-1,46
 173 428 173 428 173 390 c 2,47,-1
 173 345 l 1,48,-1
 180 342 l 1,49,50
 198 380 198 380 235.5 404.5 c 128,-1,51
 273 429 273 429 308 429 c 0,52,53
 375 429 375 429 421 396 c 0,54,55
 460 368 460 368 481 320.5 c 128,-1,56
 502 273 502 273 502 219 c 0,57,58
 502 132 502 132 446.5 58 c 128,-1,59
 391 -16 391 -16 298 -16 c 0,13,14
EndSplineSet
Validated: 19457
AlternateSubs2: "'aalt' Access All Alternates in Latin lookup 0 subtable" sixsuperior sixinferior
Substitution2: "'sups' Superscript Forms-1" sixsuperior
Substitution2: "'subs' Subscript Forms-1" sixinferior
EndChar

StartChar: seven
Encoding: 55 55 23
Width: 580
VWidth: 1080
Flags: W
TeX: 115 0
HStem: -16 21G<259.5 304.5> 602 82<142.304 439.783>
VStem: 90 22<476 513.545> 204 138<10.3672 180.969> 440 48<546.205 601.574>
DStem2: 309 333 363 357 0.571064 0.820905<-24.2856 235.429>
LayerCount: 3
Fore
SplineSet
90 476 m 25
 104 684 l 17
 488 684 l 17
 488 632 475 526 420 443 c 10
 363 357 l 18
 344 329 322 283 322 227 c 0
 322 205 322 184 328 152 c 2
 334 117 l 2
 337 102 342 71 342 47 c 0
 342 9 326 -16 283 -16 c 0
 236 -16 204 20 204 80 c 0
 204 169 261 264 309 333 c 10
 389 448 l 18
 417 488 440 540 440 576 c 0
 440 598 428 602 409 602 c 10
 202 602 l 18
 144 602 130 571 123 535 c 2
 112 476 l 9
 90 476 l 25
EndSplineSet
Validated: 1
Layer: 2
SplineSet
104 684 m 17,0,-1
 488 684 l 1,1,2
 488 632 488 632 472.5 565 c 128,-1,3
 457 498 457 498 420 443 c 2,4,-1
 363 357 l 2,5,6
 322 278 322 278 322 227 c 0,7,8
 322 184 322 184 328 152 c 2,9,-1
 334 117 l 2,10,11
 342 77 342 77 342 47 c 0,12,13
 342 -16 342 -16 283 -16 c 0,14,15
 247 -16 247 -16 225.5 10 c 128,-1,16
 204 36 204 36 204 80 c 0,17,18
 204 111 204 111 216.5 150 c 128,-1,19
 229 189 229 189 240 210.5 c 128,-1,20
 251 232 251 232 278 279 c 128,-1,21
 305 326 305 326 309 333 c 2,22,-1
 389 448 l 2,23,24
 440 521 440 521 440 576 c 0,25,26
 440 602 440 602 409 602 c 2,27,-1
 202 602 l 2,28,29
 162 602 162 602 145.5 584.5 c 128,-1,30
 129 567 129 567 123 535 c 2,31,-1
 112 476 l 1,32,-1
 90 476 l 1,33,-1
 104 684 l 17,0,-1
EndSplineSet
Validated: 19457
AlternateSubs2: "'aalt' Access All Alternates in Latin lookup 0 subtable" sevensuperior seveninferior
Substitution2: "'sups' Superscript Forms-1" sevensuperior
Substitution2: "'subs' Subscript Forms-1" seveninferior
EndChar

StartChar: eight
Encoding: 56 56 24
Width: 580
VWidth: 1080
Flags: W
TeX: 101 0
HStem: -16 32<216.013 364.59> 668 32<217.722 355.762>
VStem: 60 70<88.8017 259.372> 68 74<472.265 594.322> 436 64<453.606 598.489> 448 78<111.904 233.956>
DStem2: 227 430 177 351 0.934406 -0.35621<-81.783 -6.52019 6.68964 153.304 169.009 258.233>
LayerCount: 3
Fore
SplineSet
142 540 m 0xd8
 142 483 170 453 227 430 c 2
 356 381 l 1
 419 415 436 465 436 522 c 0
 436 606 369 668 289 668 c 0
 210 668 142 620 142 540 c 0xd8
60 174 m 0xe4
 60 284 144 330 188 342 c 1
 188 346 l 1
 177 351 l 2
 105 381 68 441 68 516 c 0
 68 625 181 700 289 700 c 0
 432 700 500 612 500 528 c 0xd8
 500 448 435 397 385 374 c 1
 385 370 l 1
 408 361 l 2
 475 334 526 287 526 210 c 0
 526 89 441 -16 281 -16 c 0
 164 -16 60 55 60 174 c 0xe4
130 172 m 0xe4
 130 56 218 16 292 16 c 0
 410 16 448 106 448 156 c 0
 448 238 404 264 352 285 c 2
 217 334 l 1
 168 314 130 273 130 172 c 0xe4
EndSplineSet
Validated: 1
Layer: 2
SplineSet
289 668 m 0,0,1
 227 668 227 668 184.5 633 c 128,-1,2
 142 598 142 598 142 540 c 0,3,4
 142 498 142 498 162.5 473 c 128,-1,5
 183 448 183 448 227 430 c 2,6,-1
 356 381 l 1,7,8
 436 424 436 424 436 522 c 0,9,10
 436 584 436 584 393 626 c 128,-1,11
 350 668 350 668 289 668 c 0,0,1
281 -16 m 0,12,13
 189 -16 189 -16 124.5 36 c 128,-1,14
 60 88 60 88 60 174 c 0,15,16
 60 247 60 247 101 288 c 128,-1,17
 142 329 142 329 188 342 c 1,18,-1
 188 346 l 1,19,-1
 177 351 l 2,20,21
 124 373 124 373 96 416 c 128,-1,22
 68 459 68 459 68 516 c 0,23,24
 68 595 68 595 136 647.5 c 128,-1,25
 204 700 204 700 289 700 c 0,26,27
 390 700 390 700 445 648.5 c 128,-1,28
 500 597 500 597 500 528 c 0,29,30
 500 474 500 474 465.5 434.5 c 128,-1,31
 431 395 431 395 385 374 c 1,32,-1
 385 370 l 1,33,-1
 408 361 l 2,34,35
 526 313 526 313 526 210 c 0,36,37
 526 114 526 114 461 49 c 128,-1,38
 396 -16 396 -16 281 -16 c 0,12,13
292 16 m 0,39,40
 347 16 347 16 384 41.5 c 128,-1,41
 421 67 421 67 434.5 97 c 128,-1,42
 448 127 448 127 448 156 c 0,43,44
 448 212 448 212 423.5 239 c 128,-1,45
 399 266 399 266 352 285 c 2,46,-1
 217 334 l 1,47,48
 130 298 130 298 130 172 c 0,49,50
 130 92 130 92 178.5 54 c 128,-1,51
 227 16 227 16 292 16 c 0,39,40
EndSplineSet
Validated: 19457
AlternateSubs2: "'aalt' Access All Alternates in Latin lookup 0 subtable" eightsuperior eightinferior
Substitution2: "'sups' Superscript Forms-1" eightsuperior
Substitution2: "'subs' Subscript Forms-1" eightinferior
EndChar

StartChar: nine
Encoding: 57 57 25
Width: 580
VWidth: 1080
Flags: W
TeX: 110 0
HStem: -16 32<183.68 308.667> 255 37<217.581 326.401> 668 32<230.505 335.003>
VStem: 78 88<362.87 565.519> 104 62<39.8022 122.5> 407 93<207.231 339>
LayerCount: 3
Fore
SplineSet
166 478 m 0xf4
 166 385 189 292 270 292 c 0
 339 292 394 365 394 478 c 0
 394 576 368 668 282 668 c 0
 192 668 166 559 166 478 c 0xf4
78 465 m 0
 78 568 148 700 282 700 c 0
 412 700 500 575 500 370 c 0
 500 266 474 150 418 78 c 0
 364 8 303 -16 247 -16 c 0
 190 -16 156 6 132 32 c 0
 109 59 104 94 104 111 c 0
 104 134 112 153 129 168 c 0
 143 180 157 183 170 183 c 0
 185 183 198 176 206 165 c 0
 214 155 214 146 214 136 c 0
 214 125 208 114 201 106 c 0
 195 99 188 93 182 89 c 0
 171 81 166 74 166 61 c 0xec
 166 41 187 16 249 16 c 0
 292 16 340 37 372 107 c 0
 397 162 407 254 407 294 c 2
 407 339 l 1
 400 342 l 1
 375 290 318 255 272 255 c 0
 220 255 184 270 159 288 c 0
 105 327 78 395 78 465 c 0
EndSplineSet
Validated: 1
Layer: 2
SplineSet
282 668 m 0,0,1
 240 668 240 668 212.5 636 c 128,-1,2
 185 604 185 604 175.5 564 c 128,-1,3
 166 524 166 524 166 478 c 0,4,5
 166 398 166 398 190 345 c 128,-1,6
 214 292 214 292 270 292 c 0,7,8
 323 292 323 292 358.5 343.5 c 128,-1,9
 394 395 394 395 394 478 c 256,10,11
 394 561 394 561 368 614.5 c 128,-1,12
 342 668 342 668 282 668 c 0,0,1
247 -16 m 0,13,14
 176 -16 176 -16 132 32 c 0,15,16
 104 65 104 65 104 111 c 0,17,18
 104 146 104 146 129 168 c 0,19,20
 146 183 146 183 170 183 c 0,21,22
 193 183 193 183 206 165 c 0,23,24
 214 155 214 155 214 136 c 0,25,26
 214 121 214 121 201 106 c 0,27,28
 192 96 192 96 182 89 c 0,29,30
 166 77 166 77 166 61 c 0,31,32
 166 43 166 43 186.5 29.5 c 128,-1,33
 207 16 207 16 249 16 c 0,34,35
 330 16 330 16 372 107 c 0,36,37
 389 144 389 144 398 200 c 128,-1,38
 407 256 407 256 407 294 c 2,39,-1
 407 339 l 1,40,-1
 400 342 l 1,41,42
 382 304 382 304 344.5 279.5 c 128,-1,43
 307 255 307 255 272 255 c 0,44,45
 205 255 205 255 159 288 c 0,46,47
 120 316 120 316 99 363.5 c 128,-1,48
 78 411 78 411 78 465 c 0,49,50
 78 552 78 552 133.5 626 c 128,-1,51
 189 700 189 700 282 700 c 0,52,53
 380 700 380 700 440 611 c 128,-1,54
 500 522 500 522 500 370 c 0,55,56
 500 288 500 288 479 209 c 128,-1,57
 458 130 458 130 418 78 c 0,58,59
 345 -16 345 -16 247 -16 c 0,13,14
EndSplineSet
Validated: 19457
AlternateSubs2: "'aalt' Access All Alternates in Latin lookup 0 subtable" ninesuperior nineinferior
Substitution2: "'sups' Superscript Forms-1" ninesuperior
Substitution2: "'subs' Subscript Forms-1" nineinferior
EndChar

StartChar: less
Encoding: 60 60 28
Width: 940
Flags: W
TeX: 108 0
HStem: -156 21G<802.759 851.111> 664 20G<802.759 851.111>
VStem: 84 62<219 309>
DStem2: 84 278 146 264 0.880994 0.473127<47.9979 858.121> 146 264 84 250 0.880994 -0.473127<0 810.123>
LayerCount: 3
Fore
SplineSet
84 250 m 1
 84 278 l 1
 840 684 l 1
 860 648 l 1
 146 264 l 1
 860 -120 l 1
 840 -156 l 1
 84 250 l 1
EndSplineSet
Validated: 1
Layer: 2
SplineSet
840 -156 m 1,0,-1
 84 250 l 1,1,-1
 84 278 l 1,2,-1
 840 684 l 1,3,-1
 860 648 l 1,4,-1
 146 264 l 1,5,-1
 860 -120 l 1,6,-1
 840 -156 l 1,0,-1
EndSplineSet
Validated: 19457
EndChar

StartChar: equal
Encoding: 61 61 29
Width: 940
Flags: W
TeX: 101 0
HStem: 148 40<48 892> 338 40<48 892>
LayerCount: 3
Fore
SplineSet
48 338 m 1
 48 378 l 1
 892 378 l 1
 892 338 l 1
 48 338 l 1
48 148 m 1
 48 188 l 1
 892 188 l 1
 892 148 l 1
 48 148 l 1
EndSplineSet
Validated: 1
Layer: 2
SplineSet
48 338 m 1,0,-1
 48 378 l 1,1,-1
 892 378 l 1,2,-1
 892 338 l 1,3,-1
 48 338 l 1,0,-1
48 148 m 1,4,-1
 48 188 l 1,5,-1
 892 188 l 1,6,-1
 892 148 l 1,7,-1
 48 148 l 1,4,-1
EndSplineSet
Validated: 19457
EndChar

StartChar: greater
Encoding: 62 62 30
Width: 940
Flags: W
TeX: 103 0
HStem: -156 21G<88.8889 137.241> 664 20G<88.8889 137.241>
VStem: 794 62<219 309>
DStem2: 100 684 80 648 0.880994 -0.473127<0 810.123> 80 -120 100 -156 0.880994 0.473127<0.58733 810.711>
LayerCount: 3
Fore
SplineSet
80 -120 m 1
 794 264 l 1
 80 648 l 1
 100 684 l 1
 856 278 l 1
 856 250 l 1
 100 -156 l 1
 80 -120 l 1
EndSplineSet
Validated: 1
Layer: 2
SplineSet
100 684 m 1,0,-1
 856 278 l 1,1,-1
 856 250 l 1,2,-1
 100 -156 l 1,3,-1
 80 -120 l 1,4,-1
 794 264 l 1,5,-1
 80 648 l 1,6,-1
 100 684 l 1,0,-1
EndSplineSet
Validated: 19457
EndChar

StartChar: question
Encoding: 63 63 31
Width: 470
Flags: W
TeX: 113 0
HStem: -12 124<199.59 296.41> 154 30<204.822 287.926> 468 85<111.606 180.617> 664 30<160.94 284.251>
VStem: 64 44<527 621.2> 158 34<195.172 282.944> 186 124<1.58984 98.4102> 308 24<209.548 279.386> 340 88<466.981 615.605>
LayerCount: 3
Fore
SplineSet
64 555 m 0xfd80
 64 637 152 694 232 694 c 0
 334 694 428 642 428 542 c 0
 428 454 350 399 281 351 c 0
 233 318 192 278 192 232 c 0
 192 196 218 184 248 184 c 0
 283 184 308 210 308 250 c 0
 308 256 308 266 303 276 c 1
 321 284 l 1
 326 276 332 265 332 249 c 0
 332 192 286 154 248 154 c 0
 199 154 158 181 158 235 c 0
 158 278 176 302 206 334 c 2
 282 416 l 2
 317 454 340 488 340 542 c 0
 340 607 306 664 225 664 c 0
 163 664 108 626 108 586 c 0
 108 571 110 561 114 557 c 0
 119 553 121 553 124 553 c 0
 127 553 131 553 134 554 c 0
 141 556 145 556 152 556 c 0
 175 556 188 538 188 516 c 0
 188 490 171 468 133 468 c 0
 98 468 64 499 64 555 c 0xfd80
186 50 m 0xfa80
 186 86 212 112 248 112 c 0
 284 112 310 86 310 50 c 0
 310 14 284 -12 248 -12 c 0
 212 -12 186 14 186 50 c 0xfa80
EndSplineSet
Validated: 1
Layer: 2
SplineSet
232 694 m 0,0,1
 314 694 314 694 371 653.5 c 128,-1,2
 428 613 428 613 428 542 c 0,3,4
 428 511 428 511 416 483 c 128,-1,5
 404 455 404 455 379 430 c 128,-1,6
 354 405 354 405 335 390 c 128,-1,7
 316 375 316 375 281 351 c 0,8,9
 192 290 192 290 192 232 c 0,10,11
 192 184 192 184 248 184 c 0,12,13
 274 184 274 184 291 202 c 128,-1,14
 308 220 308 220 308 250 c 0,15,16
 308 266 308 266 303 276 c 1,17,-1
 321 284 l 1,18,19
 332 266 332 266 332 249 c 0,20,21
 332 209 332 209 305.5 181.5 c 128,-1,22
 279 154 279 154 248 154 c 0,23,24
 209 154 209 154 183.5 175 c 128,-1,25
 158 196 158 196 158 235 c 0,26,27
 158 265 158 265 169.5 286 c 128,-1,28
 181 307 181 307 206 334 c 2,29,-1
 282 416 l 2,30,31
 311 448 311 448 325.5 476 c 128,-1,32
 340 504 340 504 340 542 c 0,33,34
 340 595 340 595 311 629.5 c 128,-1,35
 282 664 282 664 225 664 c 0,36,37
 179 664 179 664 143.5 640 c 128,-1,38
 108 616 108 616 108 586 c 0,39,40
 108 563 108 563 114 557 c 0,41,42
 119 553 119 553 124 553 c 0,43,44
 131 553 131 553 134 554 c 0,45,46
 141 556 141 556 152 556 c 0,47,48
 169 556 169 556 178.5 544.5 c 128,-1,49
 188 533 188 533 188 516 c 0,50,51
 188 495 188 495 174 481.5 c 128,-1,52
 160 468 160 468 133 468 c 0,53,54
 105 468 105 468 84.5 491.5 c 128,-1,55
 64 515 64 515 64 555 c 0,56,57
 64 614 64 614 116.5 654 c 128,-1,58
 169 694 169 694 232 694 c 0,0,1
248 -12 m 256,59,60
 221 -12 221 -12 203.5 5.5 c 128,-1,61
 186 23 186 23 186 50 c 256,62,63
 186 77 186 77 203.5 94.5 c 128,-1,64
 221 112 221 112 248 112 c 256,65,66
 275 112 275 112 292.5 94.5 c 128,-1,67
 310 77 310 77 310 50 c 256,68,69
 310 23 310 23 292.5 5.5 c 128,-1,70
 275 -12 275 -12 248 -12 c 256,59,60
EndSplineSet
Validated: 19457
EndChar

StartChar: at
Encoding: 64 64 32
Width: 820
Flags: W
TeX: 97 0
HStem: -18 28<312.421 505.491> 131 24<295.186 364.246 532.614 607.248> 555 24<399.739 474.034> 702 28<325.467 511.88>
VStem: 48 48<213.544 469.137> 206 68<178.352 375.985> 718 48<277.379 509.079>
DStem2: 474 335 524 257 0.261536 0.965194<-104.692 124.444 195.76 240.14>
LayerCount: 3
Fore
SplineSet
48 355 m 0
 48 561 212 730 420 730 c 0
 645 730 766 572 766 377 c 0
 766 278 696 131 538 131 c 0
 488 131 449 159 443 206 c 9
 438 207 l 17
 423 184 378 131 318 131 c 0
 264 131 206 170 206 255 c 0
 206 333 227 426 273 481 c 0
 333 553 397 579 449 579 c 0
 487 579 516 543 520 524 c 1
 525 524 l 9
 536 567 l 25
 608 567 l 25
 524 257 l 18
 520 241 518 227 518 214 c 0
 518 176 536 155 554 155 c 0
 686 155 718 302 718 397 c 0
 718 590 595 702 411 702 c 0
 237 702 96 544 96 335 c 0
 96 135 216 10 420 10 c 0
 502 10 564 47 596 68 c 9
 612 45 l 17
 583 24 514 -18 410 -18 c 0
 183 -18 48 134 48 355 c 0
274 223 m 0
 274 179 300 155 322 155 c 0
 394 155 450 246 474 335 c 2
 497 420 l 2
 500 431 502 443 502 457 c 0
 502 504 483 555 449 555 c 0
 398 555 357 525 316 435 c 0
 293 385 274 297 274 223 c 0
EndSplineSet
Validated: 19457
Layer: 2
SplineSet
318 131 m 0,0,1
 273 131 273 131 239.5 163 c 128,-1,2
 206 195 206 195 206 255 c 0,3,4
 206 318 206 318 223 380 c 128,-1,5
 240 442 240 442 273 481 c 0,6,7
 355 579 355 579 449 579 c 0,8,9
 475 579 475 579 495.5 560 c 128,-1,10
 516 541 516 541 520 524 c 1,11,-1
 525 524 l 1,12,-1
 536 567 l 1,13,-1
 608 567 l 1,14,-1
 524 257 l 2,15,16
 513 208 513 208 523.5 181.5 c 128,-1,17
 534 155 534 155 554 155 c 0,18,19
 601 155 601 155 635 178.5 c 128,-1,20
 669 202 669 202 686 241 c 128,-1,21
 703 280 703 280 710.5 318.5 c 128,-1,22
 718 357 718 357 718 397 c 0,23,24
 718 540 718 540 634.5 621 c 128,-1,25
 551 702 551 702 411 702 c 0,26,27
 280 702 280 702 188 596.5 c 128,-1,28
 96 491 96 491 96 335 c 0,29,30
 96 184 96 184 182 97 c 128,-1,31
 268 10 268 10 420 10 c 0,32,33
 508 10 508 10 596 68 c 1,34,-1
 612 45 l 1,35,36
 525 -18 525 -18 410 -18 c 0,37,38
 242 -18 242 -18 145 84.5 c 128,-1,39
 48 187 48 187 48 355 c 0,40,41
 48 510 48 510 156.5 620 c 128,-1,42
 265 730 265 730 420 730 c 0,43,44
 583 730 583 730 674.5 630 c 128,-1,45
 766 530 766 530 766 377 c 0,46,47
 766 338 766 338 752 296.5 c 128,-1,48
 738 255 738 255 711.5 217 c 128,-1,49
 685 179 685 179 639.5 155 c 128,-1,50
 594 131 594 131 538 131 c 0,51,52
 500 131 500 131 473.5 151 c 128,-1,53
 447 171 447 171 443 206 c 1,54,-1
 438 207 l 1,55,56
 421 181 421 181 389 156 c 128,-1,57
 357 131 357 131 318 131 c 0,0,1
322 155 m 0,58,59
 373 155 373 155 413.5 208 c 128,-1,60
 454 261 454 261 474 335 c 2,61,-1
 497 420 l 2,62,63
 508 462 508 462 494 508.5 c 128,-1,64
 480 555 480 555 449 555 c 0,65,66
 409 555 409 555 377.5 527.5 c 128,-1,67
 346 500 346 500 316 435 c 0,68,69
 298 396 298 396 286 336.5 c 128,-1,70
 274 277 274 277 274 223 c 0,71,72
 274 192 274 192 289 173.5 c 128,-1,73
 304 155 304 155 322 155 c 0,58,59
EndSplineSet
Validated: 19489
EndChar

StartChar: A
Encoding: 65 65 33
Width: 764
VWidth: 1039
Flags: W
TeX: 65 0
HStem: 0 32<46 130.284 228.407 320 432 530.344 643.17 742> 210 36<266 471> 692 20G<374.916 415.824>
DStem2: 167 105 253 210 0.333876 0.942617<-1.73546 127.688 165.963 485.297> 409 712 367 549 0.322916 -0.946428<140.705 461.056 499.325 659.683>
AnchorPoint: "Bottom" 396 0 basechar 0
AnchorPoint: "Top" 396 762 basechar 0
LayerCount: 3
Fore
SplineSet
266 246 m 1
 471 246 l 1
 367 549 l 1
 266 246 l 1
46 0 m 1
 46 32 l 1
 83 32 l 2
 134 32 155 73 167 105 c 2
 382 712 l 1
 409 712 l 1
 626 76 l 2
 640 41 659 32 686 32 c 2
 742 32 l 1
 742 0 l 1
 432 0 l 1
 432 32 l 1
 498 32 l 2
 518 32 533 44 533 57 c 0
 533 63 532 72 529 79 c 2
 484 210 l 1
 253 210 l 1
 230 145 l 2
 223 125 216 102 216 85 c 0
 216 63 226 32 267 32 c 2
 320 32 l 1
 320 0 l 1
 46 0 l 1
EndSplineSet
Validated: 1
Layer: 2
SplineSet
266 246 m 1,0,-1
 471 246 l 1,1,-1
 367 549 l 1,2,-1
 266 246 l 1,0,-1
46 0 m 1,3,-1
 46 32 l 1,4,-1
 83 32 l 2,5,6
 141 32 141 32 167 105 c 2,7,-1
 384 712 l 1,8,-1
 409 712 l 1,9,-1
 626 76 l 2,10,11
 644 32 644 32 686 32 c 2,12,-1
 742 32 l 1,13,-1
 742 0 l 1,14,-1
 432 0 l 1,15,-1
 432 32 l 1,16,-1
 498 32 l 2,17,18
 513 32 513 32 523 39.5 c 128,-1,19
 533 47 533 47 533 57 c 0,20,21
 533 70 533 70 529 79 c 2,22,-1
 484 210 l 1,23,-1
 253 210 l 1,24,-1
 230 145 l 2,25,26
 216 105 216 105 216 85 c 0,27,28
 216 64 216 64 227.5 48 c 128,-1,29
 239 32 239 32 267 32 c 2,30,-1
 320 32 l 1,31,-1
 320 0 l 1,32,-1
 46 0 l 1,3,-1
EndSplineSet
Validated: 19457
EndChar

StartChar: B
Encoding: 66 66 34
Width: 690
VWidth: 1039
Flags: W
TeX: 66 0
HStem: 0 32<62 159.643 254.357 456.466> 356 32<253 455.656> 680 32<62 159.643 254.357 452.861>
VStem: 161 92<32.2373 356 388 679.787> 524 88<461.815 615.135> 528 106<106.079 273.103>
AnchorPoint: "Bottom" 320 0 basechar 0
AnchorPoint: "Top" 320 762 basechar 0
LayerCount: 3
Fore
SplineSet
253 59 m 2xf4
 253 41 261 32 280 32 c 2
 388 32 l 2
 457 32 528 64 528 194 c 0
 528 324 458 356 388 356 c 10
 253 356 l 25
 253 59 l 2xf4
62 0 m 1
 62 32 l 1
 134 32 l 2
 153 32 161 41 161 59 c 2
 161 653 l 2
 161 672 153 680 134 680 c 2
 62 680 l 1
 62 712 l 1
 388 712 l 2
 507 712 612 642 612 542 c 0xf8
 612 445 532 388 459 373 c 1
 459 369 l 1
 538 363 634 298 634 194 c 0
 634 68 525 0 399 0 c 2
 62 0 l 1
253 388 m 25
 384 388 l 2
 502 388 524 461 524 542 c 0
 524 623 465 680 392 680 c 2
 280 680 l 2
 261 680 253 672 253 653 c 10
 253 388 l 25
EndSplineSet
Validated: 1
Layer: 2
SplineSet
253 356 m 25,0,-1
 253 59 l 2,1,2
 253 32 253 32 280 32 c 2,3,-1
 388 32 l 2,4,5
 528 32 528 32 528 194 c 256,6,7
 528 356 528 356 388 356 c 2,8,-1
 253 356 l 25,0,-1
62 0 m 1,9,-1
 62 32 l 1,10,-1
 134 32 l 2,11,12
 161 32 161 32 161 59 c 2,13,-1
 161 653 l 2,14,15
 161 680 161 680 134 680 c 2,16,-1
 62 680 l 1,17,-1
 62 712 l 1,18,-1
 388 712 l 2,19,20
 480 712 480 712 546 663.5 c 128,-1,21
 612 615 612 615 612 542 c 0,22,23
 612 474 612 474 566 430 c 128,-1,24
 520 386 520 386 459 373 c 1,25,-1
 459 369 l 1,26,27
 524 364 524 364 579 315.5 c 128,-1,28
 634 267 634 267 634 194 c 0,29,30
 634 103 634 103 566 51.5 c 128,-1,31
 498 0 498 0 399 0 c 2,32,-1
 62 0 l 1,9,-1
253 388 m 25,33,-1
 384 388 l 2,34,35
 465 388 465 388 494.5 429.5 c 128,-1,36
 524 471 524 471 524 542 c 0,37,38
 524 602 524 602 486 641 c 128,-1,39
 448 680 448 680 392 680 c 2,40,-1
 280 680 l 2,41,42
 253 680 253 680 253 653 c 2,43,-1
 253 388 l 25,33,-1
EndSplineSet
Validated: 19457
EndChar

StartChar: C
Encoding: 67 67 35
Width: 670
VWidth: 1039
Flags: W
TeX: 67 0
HStem: -18 32<290.461 439.675> 698 32<277.884 409.745>
VStem: 70 106<214.363 510.125> 565 25<444 482.27> 570 36<164.753 259>
LayerCount: 3
Fore
SplineSet
70 362 m 0xe8
 70 562 174 730 350 730 c 0
 401 730 448 703 474 684 c 0
 486 676 494 670 500 665 c 0
 511 655 519 651 528 651 c 0
 539 651 542 658 548 673 c 2
 565 722 l 9
 590 722 l 25
 590 444 l 25
 565 444 l 17xf0
 519 614 429 698 350 698 c 0
 206 698 176 566 176 362 c 0
 176 158 212 14 366 14 c 0
 505 14 562 139 570 259 c 1
 606 259 l 1
 602 165 558 -18 366 -18 c 0
 172 -18 70 174 70 362 c 0xe8
EndSplineSet
Validated: 19457
Layer: 2
SplineSet
70 362 m 0,0,1
 70 463 70 463 103 546 c 128,-1,2
 136 629 136 629 200 679.5 c 128,-1,3
 264 730 264 730 350 730 c 0,4,5
 411 730 411 730 474 684 c 0,6,7
 490 674 490 674 500 665 c 0,8,9
 516 651 516 651 528 651 c 0,10,11
 536 651 536 651 539.5 655.5 c 128,-1,12
 543 660 543 660 548 673 c 2,13,-1
 565 722 l 1,14,-1
 590 722 l 1,15,-1
 590 444 l 1,16,-1
 565 444 l 1,17,18
 532 566 532 566 472.5 632 c 128,-1,19
 413 698 413 698 350 698 c 0,20,21
 308 698 308 698 277 682 c 128,-1,22
 246 666 246 666 227 639 c 128,-1,23
 208 612 208 612 196 568 c 128,-1,24
 184 524 184 524 180 475.5 c 128,-1,25
 176 427 176 427 176 362 c 256,26,27
 176 297 176 297 181 247 c 128,-1,28
 186 197 186 197 199 151.5 c 128,-1,29
 212 106 212 106 233 77 c 128,-1,30
 254 48 254 48 287.5 31 c 128,-1,31
 321 14 321 14 366 14 c 0,32,33
 416 14 416 14 455 35 c 128,-1,34
 494 56 494 56 517.5 92 c 128,-1,35
 541 128 541 128 554 170 c 128,-1,36
 567 212 567 212 570 259 c 1,37,-1
 606 259 l 1,38,39
 605 237 605 237 601.5 214 c 128,-1,40
 598 191 598 191 590 163.5 c 128,-1,41
 582 136 582 136 570 111 c 128,-1,42
 558 86 558 86 539 62 c 128,-1,43
 520 38 520 38 496.5 20.5 c 128,-1,44
 473 3 473 3 439.5 -7.5 c 128,-1,45
 406 -18 406 -18 366 -18 c 0,46,47
 296 -18 296 -18 238.5 15 c 128,-1,48
 181 48 181 48 145 102 c 128,-1,49
 109 156 109 156 89.5 223 c 128,-1,50
 70 290 70 290 70 362 c 0,0,1
EndSplineSet
Validated: 19457
EndChar

StartChar: D
Encoding: 68 68 36
Width: 780
VWidth: 1039
Flags: W
TeX: 68 0
HStem: 0 32<62 159.643 254.357 492.382> 680 32<62 159.643 254.357 495.957>
VStem: 161 92<32.2373 679.787> 624 106<227.72 497.702>
AnchorPoint: "Bottom" 368 0 basechar 0
AnchorPoint: "Top" 368 762 basechar 0
LayerCount: 3
Fore
SplineSet
62 0 m 25
 62 32 l 25
 134 32 l 18
 153 32 161 41 161 59 c 10
 161 653 l 18
 161 672 153 680 134 680 c 10
 62 680 l 25
 62 712 l 25
 428 712 l 18
 594 712 730 570 730 362 c 0
 730 154 594 0 428 0 c 10
 62 0 l 25
253 59 m 18
 253 41 261 32 280 32 c 10
 424 32 l 18
 573 32 624 204 624 362 c 0
 624 520 573 680 424 680 c 10
 280 680 l 18
 261 680 253 672 253 653 c 10
 253 59 l 18
EndSplineSet
Validated: 1
Layer: 2
SplineSet
62 0 m 25,0,-1
 62 32 l 1,1,-1
 134 32 l 2,2,3
 161 32 161 32 161 59 c 2,4,-1
 161 653 l 2,5,6
 161 680 161 680 134 680 c 2,7,-1
 62 680 l 1,8,-1
 62 712 l 1,9,-1
 428 712 l 2,10,11
 555 712 555 712 642.5 613.5 c 128,-1,12
 730 515 730 515 730 362 c 0,13,14
 730 208 730 208 642 104 c 128,-1,15
 554 0 554 0 428 0 c 2,16,-1
 62 0 l 25,0,-1
624 362 m 0,17,18
 624 447 624 447 606 515.5 c 128,-1,19
 588 584 588 584 541.5 632 c 128,-1,20
 495 680 495 680 424 680 c 2,21,-1
 280 680 l 18,22,23
 253 680 253 680 253 653 c 2,24,-1
 253 59 l 2,25,26
 253 32 253 32 280 32 c 2,27,-1
 424 32 l 2,28,29
 477 32 477 32 517.5 61 c 128,-1,30
 558 90 558 90 580.5 138.5 c 128,-1,31
 603 187 603 187 613.5 243 c 128,-1,32
 624 299 624 299 624 362 c 0,17,18
EndSplineSet
Validated: 19457
EndChar

StartChar: E
Encoding: 69 69 37
Width: 690
VWidth: 1039
Flags: W
TeX: 69 0
HStem: 0 32<62 159.643 254.357 505.923> 344 36<253 390.373> 680 32<62 159.643 254.357 512.333>
VStem: 161 92<32.2373 344 380 679.787> 423 26<205 296.625 427.25 518> 599 25<486 557.793> 607 25<195.119 268>
AnchorPoint: "Bottom" 368 0 basechar 0
AnchorPoint: "Top" 368 762 basechar 0
LayerCount: 3
Fore
SplineSet
62 0 m 1xfa
 62 32 l 1
 134 32 l 2
 153 32 161 41 161 59 c 2
 161 653 l 2
 161 672 153 680 134 680 c 2
 62 680 l 1
 62 712 l 1
 620 712 l 1
 624 486 l 1
 599 486 l 1xfc
 599 486 598.163 561.107 558 622 c 0
 527 669 481 680 441 680 c 2
 280 680 l 2
 261 680 253 672 253 653 c 2
 253 380 l 1
 341 380 l 2
 418 380 423 460 423 518 c 1
 449 518 l 1
 449 205 l 1
 423 205 l 1
 423 264 418 344 341 344 c 2
 253 344 l 1
 253 59 l 2
 253 41 261 32 280 32 c 2
 440 32 l 2
 469 32 520 44 550 83 c 0
 596 145 607 268 607 268 c 1
 632 268 l 1
 620 0 l 1
 62 0 l 1xfa
EndSplineSet
Validated: 1
Layer: 2
SplineSet
62 0 m 1,0,-1
 62 32 l 1,1,-1
 134 32 l 2,2,3
 161 32 161 32 161 59 c 2,4,-1
 161 653 l 2,5,6
 161 680 161 680 134 680 c 2,7,-1
 62 680 l 1,8,-1
 62 712 l 1,9,-1
 620 712 l 1,10,-1
 624 486 l 1,11,-1
 599 486 l 1,12,-1
 598 506 l 2,13,14
 596 527 596 527 586 561 c 128,-1,15
 576 595 576 595 558 622 c 0,16,17
 520 680 520 680 441 680 c 2,18,-1
 280 680 l 2,19,20
 253 680 253 680 253 653 c 2,21,-1
 253 380 l 1,22,-1
 341 380 l 2,23,24
 368 380 368 380 386 392.5 c 128,-1,25
 404 405 404 405 411 428 c 128,-1,26
 418 451 418 451 420.5 471 c 128,-1,27
 423 491 423 491 423 518 c 1,28,-1
 449 518 l 1,29,-1
 449 205 l 1,30,-1
 423 205 l 1,31,32
 423 233 423 233 421 252.5 c 128,-1,33
 419 272 419 272 411.5 295.5 c 128,-1,34
 404 319 404 319 386 331.5 c 128,-1,35
 368 344 368 344 341 344 c 2,36,-1
 253 344 l 1,37,-1
 253 59 l 2,38,39
 253 32 253 32 280 32 c 2,40,-1
 440 32 l 2,41,42
 467 32 467 32 498.5 44.5 c 128,-1,43
 530 57 530 57 550 83 c 0,44,45
 570 111 570 111 584.5 157 c 128,-1,46
 599 203 599 203 603 236 c 2,47,-1
 607 268 l 1,48,-1
 632 268 l 1,49,-1
 620 0 l 1,50,-1
 62 0 l 1,0,-1
EndSplineSet
Validated: 19457
EndChar

StartChar: F
Encoding: 70 70 38
Width: 676
VWidth: 1039
Flags: W
TeX: 70 0
HStem: 0 32<68 159.643 254.357 368> 344 36<253 390.373> 680 32<62 159.643 254.357 512.333>
VStem: 161 92<32.2373 344 380 679.787> 423 26<205 296.625 427.25 518> 599 25<486 557.746>
AnchorPoint: "Bottom" 240 0 basechar 0
AnchorPoint: "Top" 368 762 basechar 0
LayerCount: 3
Fore
SplineSet
62 680 m 1
 62 712 l 1
 620 712 l 1
 624 486 l 1
 599 486 l 1
 599 486 598 561 558 622 c 0
 527 669 481 680 441 680 c 2
 280 680 l 2
 261 680 253 672 253 653 c 2
 253 380 l 1
 341 380 l 2
 418 380 423 460 423 518 c 1
 449 518 l 1
 449 205 l 1
 423 205 l 1
 423 264 418 344 341 344 c 2
 253 344 l 1
 253 59 l 2
 253 41 261 32 280 32 c 10
 368 32 l 25
 368 0 l 25
 68 0 l 1
 68 32 l 1
 134 32 l 2
 153 32 161 41 161 59 c 2
 161 653 l 2
 161 672 153 680 134 680 c 2
 62 680 l 1
EndSplineSet
Validated: 19457
Layer: 2
SplineSet
68 0 m 1,0,-1
 68 32 l 1,1,-1
 134 32 l 2,2,3
 161 32 161 32 161 59 c 2,4,-1
 161 653 l 2,5,6
 161 680 161 680 134 680 c 2,7,-1
 62 680 l 1,8,-1
 62 712 l 1,9,-1
 620 712 l 1,10,-1
 624 486 l 1,11,-1
 599 486 l 1,12,-1
 598 506 l 2,13,14
 596 527 596 527 586 561 c 128,-1,15
 576 595 576 595 558 622 c 0,16,17
 520 680 520 680 441 680 c 2,18,-1
 280 680 l 2,19,20
 253 680 253 680 253 653 c 2,21,-1
 253 380 l 1,22,-1
 341 380 l 2,23,24
 368 380 368 380 386 392.5 c 128,-1,25
 404 405 404 405 411 428 c 128,-1,26
 418 451 418 451 420.5 471 c 128,-1,27
 423 491 423 491 423 518 c 1,28,-1
 449 518 l 1,29,-1
 449 205 l 1,30,-1
 423 205 l 1,31,32
 423 233 423 233 421 252.5 c 128,-1,33
 419 272 419 272 411.5 295.5 c 128,-1,34
 404 319 404 319 386 331.5 c 128,-1,35
 368 344 368 344 341 344 c 2,36,-1
 253 344 l 1,37,-1
 253 59 l 2,38,39
 253 32 253 32 280 32 c 2,40,-1
 368 32 l 1,41,-1
 368 0 l 1,42,-1
 68 0 l 1,0,-1
EndSplineSet
Validated: 19457
EndChar

StartChar: G
Encoding: 71 71 39
Width: 720
VWidth: 1039
Flags: W
TeX: 71 0
HStem: -18 32<280.29 404.786> 322 32<399 496.643 591.357 690> 698 32<280.29 409.745>
VStem: 70 106<207.259 505.17> 498 92<112.519 321.787> 558 32<-13 111.965> 565 25<444 482.27>
AnchorPoint: "Bottom" 352 0 basechar 0
AnchorPoint: "Top" 358 762 basechar 0
LayerCount: 3
Fore
SplineSet
70 356 m 0xf4
 70 556 174 730 350 730 c 0
 401 730 448 703 474 684 c 0
 486 676 494 670 500 665 c 0
 511 655 519 651 528 651 c 0
 539 651 542 658 548 673 c 2
 565 722 l 9
 590 722 l 25
 590 444 l 25
 565 444 l 17xf2
 519 614 429 698 350 698 c 0
 206 698 176 560 176 356 c 0
 176 153 206 14 350 14 c 0
 426 14 498 108 498 189 c 10
 498 295 l 18
 498 314 490 322 471 322 c 10
 399 322 l 25
 399 354 l 25
 690 354 l 25
 690 322 l 25
 617 322 l 18
 598 322 590 314 590 295 c 10xf8
 590 -13 l 25
 558 -13 l 17
 558 78 l 2
 558 100 554 112 541 112 c 0
 525 112 514 95 506 82 c 0
 482 43 422 -18 350 -18 c 0
 174 -18 70 157 70 356 c 0xf4
EndSplineSet
Validated: 1
Layer: 2
SplineSet
350 730 m 0,0,1
 411 730 411 730 474 684 c 0,2,3
 490 673 490 673 500 665 c 0,4,5
 515 651 515 651 528 651 c 0,6,7
 536 651 536 651 539.5 655.5 c 128,-1,8
 543 660 543 660 548 673 c 2,9,-1
 565 722 l 1,10,-1
 590 722 l 1,11,-1
 590 444 l 1,12,-1
 565 444 l 1,13,14
 532 566 532 566 472.5 632 c 128,-1,15
 413 698 413 698 350 698 c 0,16,17
 297 698 297 698 262 674 c 128,-1,18
 227 650 227 650 208.5 602.5 c 128,-1,19
 190 555 190 555 183 496.5 c 128,-1,20
 176 438 176 438 176 356 c 256,21,22
 176 274 176 274 183 216 c 128,-1,23
 190 158 190 158 208.5 110 c 128,-1,24
 227 62 227 62 262 38 c 128,-1,25
 297 14 297 14 350 14 c 0,26,27
 406 14 406 14 452 70.5 c 128,-1,28
 498 127 498 127 498 189 c 2,29,-1
 498 295 l 2,30,31
 498 322 498 322 471 322 c 2,32,-1
 399 322 l 1,33,-1
 399 354 l 1,34,-1
 690 354 l 1,35,-1
 690 322 l 1,36,-1
 617 322 l 2,37,38
 590 322 590 322 590 295 c 2,39,-1
 590 -13 l 1,40,-1
 558 -13 l 1,41,-1
 558 78 l 2,42,43
 558 112 558 112 541 112 c 256,44,45
 524 112 524 112 506 82 c 0,46,47
 483 45 483 45 441 13.5 c 128,-1,48
 399 -18 399 -18 350 -18 c 1,49,50
 265 -18 265 -18 201 33 c 128,-1,51
 137 84 137 84 103.5 167.5 c 136,-1,52
 70 251 70 251 70 356 c 16,53,54
 70 457 70 457 102.5 541.5 c 128,-1,55
 135 626 135 626 200 678 c 128,-1,56
 265 730 265 730 350 730 c 0,0,1
EndSplineSet
Validated: 19457
AlternateSubs2: "'aalt' Access All Alternates in Latin lookup 0 subtable" uniA77D
Substitution2: "'ss02' Insular Forms for Old English-1" uniA77D
Substitution2: "'salt' Stylistic Alternatives-1" uniA77D
EndChar

StartChar: H
Encoding: 72 72 40
Width: 788
VWidth: 1039
Flags: W
TeX: 72 0
HStem: 0 32<62 159.643 254.357 352 456 553.643 648.357 746> 356 36<253 555> 680 32<62 159.643 254.357 352 456 553.643 648.357 746>
VStem: 161 92<32.2373 356 392 679.763> 555 92<32.2373 356 392 679.763>
AnchorPoint: "Bottom" 404 0 basechar 0
AnchorPoint: "Top" 404 762 basechar 0
LayerCount: 3
Fore
SplineSet
62 0 m 1
 62 32 l 1
 134 32 l 2
 153 32 161 41 161 59 c 2
 161 653 l 2
 161 671 153 680 134 680 c 2
 62 680 l 1
 62 712 l 1
 352 712 l 1
 352 680 l 1
 280 680 l 2
 261 680 253 671 253 653 c 2
 253 392 l 1
 555 392 l 1
 555 653 l 2
 555 671 547 680 528 680 c 2
 456 680 l 1
 456 712 l 1
 746 712 l 1
 746 680 l 1
 674 680 l 2
 655 680 647 671 647 653 c 2
 647 59 l 2
 647 41 655 32 674 32 c 2
 746 32 l 1
 746 0 l 1
 456 0 l 1
 456 32 l 1
 528 32 l 2
 547 32 555 41 555 59 c 2
 555 356 l 1
 253 356 l 1
 253 59 l 2
 253 41 261 32 280 32 c 2
 352 32 l 1
 352 0 l 1
 62 0 l 1
EndSplineSet
Validated: 1
Layer: 2
SplineSet
62 0 m 1,0,-1
 62 32 l 1,1,-1
 134 32 l 2,2,3
 161 32 161 32 161 59 c 2,4,-1
 161 653 l 2,5,6
 161 680 161 680 134 680 c 2,7,-1
 62 680 l 1,8,-1
 62 712 l 1,9,-1
 352 712 l 1,10,-1
 352 680 l 1,11,-1
 280 680 l 2,12,13
 253 680 253 680 253 653 c 2,14,-1
 253 392 l 1,15,-1
 555 392 l 1,16,-1
 555 653 l 2,17,18
 555 680 555 680 528 680 c 2,19,-1
 456 680 l 1,20,-1
 456 712 l 1,21,-1
 746 712 l 1,22,-1
 746 680 l 1,23,-1
 674 680 l 2,24,25
 647 680 647 680 647 653 c 2,26,-1
 647 59 l 2,27,28
 647 32 647 32 674 32 c 2,29,-1
 746 32 l 1,30,-1
 746 0 l 1,31,-1
 456 0 l 1,32,-1
 456 32 l 1,33,-1
 528 32 l 2,34,35
 555 32 555 32 555 59 c 2,36,-1
 555 356 l 1,37,-1
 253 356 l 1,38,-1
 253 59 l 2,39,40
 253 32 253 32 280 32 c 2,41,-1
 352 32 l 1,42,-1
 352 0 l 1,43,-1
 62 0 l 1,0,-1
EndSplineSet
Validated: 19457
EndChar

StartChar: I
Encoding: 73 73 41
Width: 394
VWidth: 1039
Flags: W
TeX: 73 0
HStem: 0 32<62 159.643 254.357 352> 680 32<62 159.643 254.357 352>
VStem: 161 92<32.2373 679.787>
AnchorPoint: "Bottom" 208 0 basechar 0
AnchorPoint: "Top" 207 762 basechar 0
LayerCount: 3
Fore
SplineSet
62 0 m 25
 62 32 l 25
 134 32 l 18
 153 32 161 41 161 59 c 10
 161 653 l 18
 161 672 153 680 134 680 c 10
 62 680 l 25
 62 712 l 25
 352 712 l 25
 352 680 l 25
 280 680 l 18
 261 680 253 672 253 653 c 10
 253 59 l 18
 253 41 261 32 280 32 c 10
 352 32 l 25
 352 0 l 25
 62 0 l 25
EndSplineSet
Validated: 19457
Layer: 2
SplineSet
62 0 m 25,0,-1
 62 32 l 1,1,-1
 134 32 l 2,2,3
 161 32 161 32 161 59 c 2,4,-1
 161 653 l 2,5,6
 161 680 161 680 134 680 c 2,7,-1
 62 680 l 1,8,-1
 62 712 l 1,9,-1
 352 712 l 1,10,-1
 352 680 l 1,11,-1
 280 680 l 2,12,13
 253 680 253 680 253 653 c 2,14,-1
 253 59 l 2,15,16
 253 32 253 32 280 32 c 2,17,-1
 352 32 l 1,18,-1
 352 0 l 1,19,-1
 62 0 l 25,0,-1
EndSplineSet
Validated: 19457
EndChar

StartChar: J
Encoding: 74 74 42
Width: 540
VWidth: 1039
Flags: W
TeX: 74 0
HStem: -18 32<141.932 266.018> 112 106<111.327 169.786> 680 32<218 315.643 410.357 508>
VStem: 44 60<51.3745 155> 317 92<93.8442 679.787>
AnchorPoint: "Bottom" 236 0 basechar 0
AnchorPoint: "Top" 362 762 basechar 0
LayerCount: 3
Fore
SplineSet
44 127 m 0
 44 183 88 218 121 218 c 0
 160 218 182 191 182 161 c 0
 182 134 160 112 134 112 c 0
 124 112 118 112 111 105 c 0
 105 99 104 89 104 82 c 0
 104 39 155 14 214 14 c 0
 284 14 317 78 317 143 c 10
 317 653 l 18
 317 672 309 680 290 680 c 10
 218 680 l 25
 218 712 l 25
 508 712 l 25
 508 680 l 25
 436 680 l 18
 417 680 409 672 409 653 c 10
 409 194 l 18
 409 58 316 -18 214 -18 c 0
 118 -18 44 35 44 127 c 0
EndSplineSet
Validated: 1
Layer: 2
SplineSet
508 712 m 25,0,-1
 508 680 l 1,1,-1
 436 680 l 2,2,3
 409 680 409 680 409 653 c 2,4,-1
 409 194 l 2,5,6
 409 96 409 96 352 39 c 128,-1,7
 295 -18 295 -18 214 -18 c 0,8,9
 140 -18 140 -18 92 21 c 128,-1,10
 44 60 44 60 44 127 c 0,11,12
 44 170 44 170 67 194 c 128,-1,13
 90 218 90 218 121 218 c 0,14,15
 150 218 150 218 166 202 c 128,-1,16
 182 186 182 186 182 161 c 0,17,18
 182 141 182 141 168 126.5 c 128,-1,19
 154 112 154 112 134 112 c 0,20,21
 118 112 118 112 111 105 c 128,-1,22
 104 98 104 98 104 82 c 0,23,24
 104 51 104 51 136 32.5 c 128,-1,25
 168 14 168 14 214 14 c 0,26,27
 263 14 263 14 290 52 c 128,-1,28
 317 90 317 90 317 143 c 2,29,-1
 317 653 l 2,30,31
 317 680 317 680 290 680 c 2,32,-1
 218 680 l 1,33,-1
 218 712 l 1,34,-1
 508 712 l 25,0,-1
EndSplineSet
Validated: 19457
EndChar

StartChar: K
Encoding: 75 75 43
Width: 756
VWidth: 1039
Flags: W
TeX: 75 0
HStem: 0 32<62 159.643 254.357 347 412 505.155 627.352 714> 680 32<62 159.643 254.357 347 436 498.756 619.518 700>
VStem: 161 92<32.2373 300 343 679.787>
DStem2: 253 343 253 300 0.70266 0.711526<0 87.4933 181.541 375.64> 402 451 336 384 0.477867 -0.878432<27.3157 399.062>
AnchorPoint: "Bottom" 384 0 basechar 0
AnchorPoint: "Top" 384 762 basechar 0
LayerCount: 3
Fore
SplineSet
62 0 m 1
 62 32 l 1
 134 32 l 2
 153 32 161 41 161 59 c 2
 161 653 l 2
 161 672 153 680 134 680 c 2
 62 680 l 1
 62 712 l 1
 347 712 l 1
 347 680 l 1
 280 680 l 2
 261 680 253 672 253 653 c 2
 253 343 l 1
 483 578 l 2
 500 596 508 613 508 638 c 0
 508 662 489 680 463 680 c 2
 436 680 l 1
 436 712 l 1
 700 712 l 1
 700 680 l 1
 660 680 l 2
 632 680 594 646 570 621 c 2
 402 451 l 1
 606 76 l 2
 623 44 640 32 681 32 c 2
 714 32 l 1
 714 0 l 1
 412 0 l 1
 412 32 l 1
 479 32 l 2
 494 32 506 42 506 53 c 0
 506 59 503 72 499 78 c 2
 336 384 l 1
 253 300 l 1
 253 59 l 2
 253 41 261 32 280 32 c 2
 347 32 l 1
 347 0 l 1
 62 0 l 1
EndSplineSet
Validated: 19457
Layer: 2
SplineSet
62 0 m 1,0,-1
 62 32 l 1,1,-1
 134 32 l 2,2,3
 161 32 161 32 161 59 c 2,4,-1
 161 653 l 2,5,6
 161 680 161 680 134 680 c 2,7,-1
 62 680 l 1,8,-1
 62 712 l 1,9,-1
 347 712 l 1,10,-1
 347 680 l 1,11,-1
 280 680 l 2,12,13
 253 680 253 680 253 653 c 2,14,-1
 253 343 l 1,15,-1
 484 579 l 2,16,17
 490 587 490 587 494.5 593 c 128,-1,18
 499 599 499 599 502 605 c 128,-1,19
 505 611 505 611 506.5 619 c 128,-1,20
 508 627 508 627 508 638 c 0,21,22
 508 656 508 656 495 668 c 128,-1,23
 482 680 482 680 463 680 c 2,24,-1
 436 680 l 1,25,-1
 436 712 l 1,26,-1
 700 712 l 1,27,-1
 700 680 l 1,28,-1
 660 680 l 2,29,30
 627 680 627 680 570 621 c 2,31,-1
 402 451 l 1,32,-1
 606 76 l 2,33,34
 619 51 619 51 635 41.5 c 128,-1,35
 651 32 651 32 681 32 c 2,36,-1
 714 32 l 1,37,-1
 714 0 l 1,38,-1
 412 0 l 1,39,-1
 412 32 l 1,40,-1
 479 32 l 2,41,42
 490 32 490 32 498 38.5 c 128,-1,43
 506 45 506 45 506 53 c 0,44,45
 506 68 506 68 499 78 c 2,46,-1
 336 384 l 1,47,-1
 253 300 l 1,48,-1
 253 59 l 2,49,50
 253 32 253 32 280 32 c 2,51,-1
 347 32 l 1,52,-1
 347 0 l 1,53,-1
 62 0 l 1,0,-1
EndSplineSet
Validated: 19457
EndChar

StartChar: L
Encoding: 76 76 44
Width: 670
VWidth: 1039
Flags: W
TeX: 76 0
HStem: 0 32<62 159.643 254.357 484.047> 680 32<62 159.643 254.357 368>
VStem: 161 92<32.2373 679.787> 587 25<196.119 269>
AnchorPoint: "Bottom" 368 0 basechar 0
AnchorPoint: "Top" 220 762 basechar 0
LayerCount: 3
Fore
SplineSet
62 0 m 1
 62 32 l 1
 134 32 l 2
 153 32 161 41 161 59 c 2
 161 653 l 2
 161 672 153 680 134 680 c 10
 62 680 l 25
 62 712 l 25
 368 712 l 25
 368 680 l 25
 280 680 l 18
 261 680 253 672 253 653 c 2
 253 59 l 2
 253 41 261 32 280 32 c 2
 420 32 l 2
 449 32 500 45 530 84 c 0
 576 146 587 269 587 269 c 1
 612 269 l 1
 599 0 l 1
 62 0 l 1
EndSplineSet
Validated: 1
Layer: 2
SplineSet
62 0 m 1,0,-1
 62 32 l 1,1,-1
 134 32 l 2,2,3
 161 32 161 32 161 59 c 2,4,-1
 161 653 l 2,5,6
 161 680 161 680 134 680 c 2,7,-1
 62 680 l 1,8,-1
 62 712 l 1,9,-1
 368 712 l 1,10,-1
 368 680 l 1,11,-1
 280 680 l 2,12,13
 253 680 253 680 253 653 c 2,14,-1
 253 59 l 2,15,16
 253 32 253 32 280 32 c 2,17,-1
 420 32 l 2,18,19
 446 32 446 32 478 45 c 128,-1,20
 510 58 510 58 530 84 c 0,21,22
 550 112 550 112 564.5 158 c 128,-1,23
 579 204 579 204 583 236 c 2,24,-1
 587 269 l 1,25,-1
 612 269 l 1,26,-1
 599 0 l 1,27,-1
 62 0 l 1,0,-1
EndSplineSet
Validated: 19457
EndChar

StartChar: M
Encoding: 77 77 45
Width: 838
VWidth: 1039
Flags: W
TeX: 77 0
HStem: -12 21G<391.975 427.537> 0 32<62 137.829 224.171 300 506 603.643 698.357 796> 680 32<62 159.643 698.357 796>
VStem: 161 40<50.7454 622> 605 92<32.2373 649>
DStem2: 274 712 207 622 0.288456 -0.957493<66.8478 574.597> 437 161 422 -12 0.266817 0.963747<0 515.134>
AnchorPoint: "Bottom" 436 0 basechar 0
AnchorPoint: "Top" 436 762 basechar 0
LayerCount: 3
Fore
SplineSet
62 0 m 25x78
 62 32 l 25
 98 32 l 18
 135 32 161 62 161 112 c 10
 161 653 l 18
 161 672 153 680 134 680 c 10
 62 680 l 25
 62 712 l 25
 274 712 l 25
 437 161 l 25
 589 712 l 25
 796 712 l 25
 796 680 l 25
 724 680 l 18
 705 680 697 672 697 653 c 10
 697 59 l 18
 697 41 705 32 724 32 c 10
 796 32 l 25
 796 0 l 25
 506 0 l 25
 506 32 l 25
 578 32 l 18x78
 597 32 605 41 605 59 c 10
 605 649 l 17
 422 -12 l 25
 398 -12 l 17xb8
 207 622 l 1
 201 622 l 9
 201 112 l 18
 201 62 227 32 264 32 c 10
 300 32 l 25
 300 0 l 25
 62 0 l 25x78
EndSplineSet
Validated: 1
Layer: 2
SplineSet
62 0 m 25,0,-1
 62 32 l 1,1,-1
 98 32 l 2,2,3
 126 32 126 32 143.5 53.5 c 128,-1,4
 161 75 161 75 161 112 c 2,5,-1
 161 653 l 2,6,7
 161 680 161 680 134 680 c 2,8,-1
 62 680 l 1,9,-1
 62 712 l 1,10,-1
 274 712 l 1,11,-1
 437 161 l 1,12,-1
 589 712 l 1,13,-1
 796 712 l 1,14,-1
 796 680 l 1,15,-1
 724 680 l 2,16,17
 697 680 697 680 697 653 c 2,18,-1
 697 59 l 2,19,20
 697 32 697 32 724 32 c 2,21,-1
 796 32 l 1,22,-1
 796 0 l 1,23,-1
 506 0 l 1,24,-1
 506 32 l 1,25,-1
 578 32 l 2,26,27
 605 32 605 32 605 59 c 2,28,-1
 605 649 l 1,29,-1
 422 -12 l 1,30,-1
 398 -12 l 1,31,-1
 207 622 l 1,32,-1
 201 622 l 1,33,-1
 201 112 l 2,34,35
 201 75 201 75 218.5 53.5 c 128,-1,36
 236 32 236 32 264 32 c 2,37,-1
 300 32 l 1,38,-1
 300 0 l 1,39,-1
 62 0 l 25,0,-1
EndSplineSet
Validated: 19457
EndChar

StartChar: N
Encoding: 78 78 46
Width: 770
VWidth: 1039
Flags: W
TeX: 78 0
HStem: -18 21G<585.343 638> 0 32<62 138.252 224.171 300> 680 32<62 159.231 500 575.445 661.788 738>
VStem: 161 40<50.7454 603> 598 40<154 660.021>
DStem2: 251 712 205 603 0.534761 -0.845004<67.5064 657.074>
AnchorPoint: "Bottom" 416 0 basechar 0
AnchorPoint: "Top" 416 762 basechar 0
LayerCount: 3
Fore
SplineSet
62 0 m 25x78
 62 32 l 25
 98 32 l 18x78
 136 32 161 62 161 112 c 10
 161 653 l 18
 160 672 153 680 134 680 c 10
 62 680 l 25
 62 712 l 25
 251 712 l 25
 598 154 l 25
 598 600 l 18
 598 650 573 680 536 680 c 10
 500 680 l 25
 500 712 l 25
 738 712 l 25
 738 680 l 25
 702 680 l 18
 665 680 638 650 638 600 c 10
 638 -18 l 25
 598 -18 l 17xb8
 205 603 l 1
 201 603 l 9
 201 112 l 18
 201 62 227 32 264 32 c 10
 300 32 l 25
 300 0 l 25
 62 0 l 25x78
EndSplineSet
Validated: 1
Layer: 2
SplineSet
62 0 m 25,0,-1
 62 32 l 1,1,-1
 98 32 l 2,2,3
 127 32 127 32 144 53.5 c 128,-1,4
 161 75 161 75 161 112 c 2,5,-1
 161 653 l 2,6,7
 160 680 160 680 134 680 c 2,8,-1
 62 680 l 1,9,-1
 62 712 l 1,10,-1
 251 712 l 1,11,-1
 598 154 l 1,12,-1
 598 600 l 2,13,14
 598 637 598 637 581 658.5 c 128,-1,15
 564 680 564 680 536 680 c 2,16,-1
 500 680 l 1,17,-1
 500 712 l 1,18,-1
 738 712 l 1,19,-1
 738 680 l 1,20,-1
 702 680 l 2,21,22
 674 680 674 680 656 658.5 c 128,-1,23
 638 637 638 637 638 600 c 2,24,-1
 638 -18 l 1,25,-1
 598 -18 l 1,26,-1
 205 603 l 1,27,-1
 201 603 l 1,28,-1
 201 112 l 2,29,30
 201 75 201 75 218.5 53.5 c 128,-1,31
 236 32 236 32 264 32 c 2,32,-1
 300 32 l 1,33,-1
 300 0 l 1,34,-1
 62 0 l 25,0,-1
EndSplineSet
Validated: 19457
EndChar

StartChar: O
Encoding: 79 79 47
Width: 700
VWidth: 1039
Flags: W
TeX: 79 0
HStem: -18 32<290.985 429.015> 698 32<290.985 429.015>
VStem: 70 106<217.164 494.836> 544 106<217.164 494.836>
AnchorPoint: "Bottom" 360 0 basechar 0
AnchorPoint: "Top" 360 762 basechar 0
LayerCount: 3
Fore
SplineSet
176 356 m 0
 176 152 222 14 360 14 c 0
 498 14 544 152 544 356 c 0
 544 560 498 698 360 698 c 0
 222 698 176 560 176 356 c 0
70 356 m 0
 70 545 186 730 360 730 c 0
 534 730 650 545 650 356 c 0
 650 167 534 -18 360 -18 c 0
 186 -18 70 167 70 356 c 0
EndSplineSet
Validated: 1
Layer: 2
SplineSet
360 -18 m 256,0,1
 276 -18 276 -18 208.5 36.5 c 128,-1,2
 141 91 141 91 105.5 176 c 128,-1,3
 70 261 70 261 70 356 c 256,4,5
 70 451 70 451 105.5 536 c 128,-1,6
 141 621 141 621 208.5 675.5 c 128,-1,7
 276 730 276 730 360 730 c 256,8,9
 444 730 444 730 511.5 675.5 c 128,-1,10
 579 621 579 621 614.5 536 c 128,-1,11
 650 451 650 451 650 356 c 256,12,13
 650 261 650 261 614.5 176 c 128,-1,14
 579 91 579 91 511.5 36.5 c 128,-1,15
 444 -18 444 -18 360 -18 c 256,0,1
360 14 m 256,16,17
 544 14 544 14 544 356 c 256,18,19
 544 698 544 698 360 698 c 256,20,21
 176 698 176 698 176 356 c 256,22,23
 176 14 176 14 360 14 c 256,16,17
EndSplineSet
Validated: 19457
EndChar

StartChar: P
Encoding: 80 80 48
Width: 680
VWidth: 1039
Flags: W
TeX: 80 0
HStem: 0 32<62 159.643 254.105 368> 336 32<253 459.134> 680 32<62 159.643 254.357 465.021>
VStem: 161 92<32.2373 336 368 679.787> 530 106<444.178 606.884>
AnchorPoint: "Top" 320 762 basechar 0
LayerCount: 3
Fore
SplineSet
62 0 m 1
 62 32 l 1
 134 32 l 2
 153 32 161 41 161 59 c 2
 161 653 l 2
 161 672 153 680 134 680 c 2
 62 680 l 1
 62 712 l 1
 396 712 l 2
 538 712 636 636 636 526 c 0
 636 416 538 336 396 336 c 2
 253 336 l 1
 253 59 l 2
 253 41 259 32 280 32 c 10
 368 32 l 25
 368 0 l 25
 62 0 l 1
253 368 m 1
 409 368 l 2
 484 368 530 443 530 526 c 0
 530 609 484 680 409 680 c 2
 280 680 l 2
 261 680 253 672 253 653 c 2
 253 368 l 1
EndSplineSet
Validated: 1
Layer: 2
SplineSet
62 0 m 1,0,-1
 62 32 l 1,1,-1
 134 32 l 2,2,3
 161 32 161 32 161 59 c 2,4,-1
 161 653 l 2,5,6
 161 680 161 680 134 680 c 2,7,-1
 62 680 l 1,8,-1
 62 712 l 1,9,-1
 396 712 l 2,10,11
 502 712 502 712 569 660.5 c 128,-1,12
 636 609 636 609 636 526 c 256,13,14
 636 443 636 443 569 389.5 c 128,-1,15
 502 336 502 336 396 336 c 2,16,-1
 253 336 l 1,17,-1
 253 59 l 2,18,19
 253 32 253 32 280 32 c 2,20,-1
 368 32 l 1,21,-1
 368 0 l 1,22,-1
 62 0 l 1,0,-1
253 368 m 1,23,-1
 409 368 l 2,24,25
 463 368 463 368 496.5 414.5 c 128,-1,26
 530 461 530 461 530 526 c 256,27,28
 530 591 530 591 497 635.5 c 128,-1,29
 464 680 464 680 409 680 c 2,30,-1
 280 680 l 2,31,32
 253 680 253 680 253 653 c 2,33,-1
 253 368 l 1,23,-1
EndSplineSet
Validated: 19457
EndChar

StartChar: Q
Encoding: 81 81 49
Width: 700
VWidth: 1039
Flags: W
TeX: 81 0
HStem: -168 68<508.839 591.914> -18 32<309.579 415.178> 139 32<319.056 393.566> 698 32<290.83 428.829>
VStem: 70 106<220.816 498.211> 260 37<47.7533 119.632> 544 106<221.619 499.055> 631 19<-33.7998 50>
AnchorPoint: "Bottom" 244 0 basechar 0
AnchorPoint: "Top" 360 762 basechar 0
LayerCount: 3
Fore
SplineSet
70 360 m 0xfd
 70 549 185 730 360 730 c 0
 534 730 650 551 650 362 c 0xfe
 650 222 585 79 483 17 c 1
 491 -37 l 2
 497 -84 529 -100 558 -100 c 0
 617 -100 631 -19 631 50 c 1
 650 50 l 1
 650 -47 634 -168 527 -168 c 0
 463 -168 416 -119 416 -48 c 2
 416 -10 l 1
 398 -15 378 -18 360 -18 c 0
 185 -18 70 171 70 360 c 0xfd
297 72 m 0
 297 37 302 14 360 14 c 0
 379 14 399 19 416 26 c 1
 416 52 l 2
 416 103 396 139 354 139 c 0
 321 139 297 104 297 72 c 0
176 360 m 0
 176 253 187 113 263 47 c 1
 261 54 260 70 260 75 c 0
 260 125 302 171 355 171 c 0
 415 171 455 130 473 63 c 1
 520 116 544 219 544 360 c 0
 544 564 497 698 360 698 c 0
 222 698 176 564 176 360 c 0
EndSplineSet
Validated: 1
Layer: 2
SplineSet
360 -18 m 0,0,1
 276 -18 276 -18 208.5 36.5 c 128,-1,2
 141 91 141 91 105.5 176 c 128,-1,3
 70 261 70 261 70 356 c 256,4,5
 70 451 70 451 105.5 536 c 128,-1,6
 141 621 141 621 208.5 675.5 c 128,-1,7
 276 730 276 730 360 730 c 256,8,9
 444 730 444 730 512.5 675.5 c 128,-1,10
 581 621 581 621 615.5 534 c 128,-1,11
 650 447 650 447 650 356 c 0,12,13
 650 249 650 249 605.5 157 c 128,-1,14
 561 65 561 65 483 17 c 1,15,-1
 491 -37 l 2,16,17
 496 -71 496 -71 514 -85 c 0,18,19
 533 -100 533 -100 558 -100 c 0,20,21
 631 -100 631 -100 631 50 c 1,22,-1
 650 50 l 1,23,24
 650 -168 650 -168 527 -168 c 0,25,26
 479 -168 479 -168 447.5 -134.5 c 128,-1,27
 416 -101 416 -101 416 -48 c 2,28,-1
 416 -10 l 1,29,30
 387 -18 387 -18 360 -18 c 0,0,1
360 14 m 0,31,32
 392 14 392 14 416 24 c 1,33,-1
 416 52 l 2,34,35
 416 91 416 91 400.5 115 c 128,-1,36
 385 139 385 139 354 139 c 0,37,38
 330 139 330 139 313.5 118 c 128,-1,39
 297 97 297 97 297 72 c 0,40,41
 297 41 297 41 308.5 27.5 c 128,-1,42
 320 14 320 14 360 14 c 0,31,32
355 171 m 0,43,44
 444 171 444 171 473 63 c 1,45,46
 544 143 544 143 544 356 c 0,47,48
 544 698 544 698 360 698 c 256,49,50
 176 698 176 698 176 356 c 0,51,52
 176 123 176 123 263 47 c 1,53,54
 260 58 260 58 260 75 c 0,55,56
 260 113 260 113 288 142 c 128,-1,57
 316 171 316 171 355 171 c 0,43,44
EndSplineSet
Validated: 19457
EndChar

StartChar: R
Encoding: 82 82 50
Width: 716
VWidth: 1039
Flags: W
TeX: 82 0
HStem: -12 64<558.5 640.279> 0 32<62 159.643 254.105 369> 368 32<253 410.287> 680 32<62 159.643 254.357 447.3>
VStem: 161 92<32.2373 368 400 679.787> 505 106<475.097 630.594> 659 25<78.1398 160>
AnchorPoint: "Bottom" 332 0 basechar 0
AnchorPoint: "Top" 332 762 basechar 0
LayerCount: 3
Fore
SplineSet
253 400 m 1x3e
 350 400 l 2
 469 400 505 465 505 552 c 0
 505 635 457 680 384 680 c 2
 280 680 l 2
 261 680 253 672 253 653 c 2
 253 400 l 1x3e
62 0 m 1x7e
 62 32 l 1
 134 32 l 2x7e
 153 32 161 41 161 59 c 2
 161 653 l 2
 161 672 153 680 134 680 c 2
 62 680 l 1
 62 712 l 1
 390 712 l 2
 503 712 611 677 611 552 c 0
 611 448 518 390 422 380 c 1
 422 376 l 1
 487 364 546 328 564 182 c 0
 577 78 583 52 616 52 c 0
 654 52 659 118 659 160 c 1
 684 160 l 1
 684 114 683 -12 580 -12 c 0xbe
 537 -12 507 1 489 35 c 0
 467 77 461 145 460 212 c 0
 459 291 435 368 362 368 c 2
 253 368 l 1
 253 59 l 2
 253 41 259 32 280 32 c 2
 369 32 l 1
 369 0 l 1
 62 0 l 1x7e
EndSplineSet
Validated: 1
Layer: 2
SplineSet
253 400 m 1,0,-1
 350 400 l 2,1,2
 505 400 505 400 505 552 c 0,3,4
 505 613 505 613 472.5 646.5 c 128,-1,5
 440 680 440 680 384 680 c 2,6,-1
 280 680 l 2,7,8
 253 680 253 680 253 653 c 2,9,-1
 253 400 l 1,0,-1
62 0 m 1,10,-1
 62 32 l 1,11,-1
 134 32 l 2,12,13
 161 32 161 32 161 59 c 2,14,-1
 161 653 l 2,15,16
 161 680 161 680 134 680 c 2,17,-1
 62 680 l 1,18,-1
 62 712 l 1,19,-1
 390 712 l 2,20,21
 495 712 495 712 553 670.5 c 128,-1,22
 611 629 611 629 611 552 c 0,23,24
 611 478 611 478 555.5 433 c 128,-1,25
 500 388 500 388 422 380 c 1,26,-1
 422 376 l 1,27,28
 479 365 479 365 515.5 323.5 c 128,-1,29
 552 282 552 282 564 182 c 0,30,31
 574 100 574 100 583 76 c 128,-1,32
 592 52 592 52 616 52 c 0,33,34
 659 52 659 52 659 160 c 1,35,-1
 684 160 l 1,36,37
 684 -12 684 -12 580 -12 c 0,38,39
 514 -12 514 -12 489 35 c 0,40,41
 462 87 462 87 460 212 c 0,42,43
 459 279 459 279 436 323.5 c 128,-1,44
 413 368 413 368 362 368 c 2,45,-1
 253 368 l 1,46,-1
 253 59 l 2,47,48
 253 32 253 32 280 32 c 2,49,-1
 369 32 l 1,50,-1
 369 0 l 1,51,-1
 62 0 l 1,10,-1
EndSplineSet
Validated: 19457
EndChar

StartChar: S
Encoding: 83 83 51
Width: 620
VWidth: 1039
Flags: W
TeX: 83 0
HStem: -18 32<286.14 433.502> 698 32<213.669 345.429>
VStem: 88 24<243.566 306> 90 60<492.586 639.44> 95 23<-10 30> 494 24<676 712> 504 24<452 491.805> 508 60<92.5018 217.038>
DStem2: 241 447 244 338 0.928808 -0.370561<-71.9166 306.93>
AnchorPoint: "Bottom" 334 0 basechar 0
AnchorPoint: "Top" 292 762 basechar 0
LayerCount: 3
Fore
SplineSet
88 306 m 25xe0
 112 306 l 17
 125 156 237 14 351 14 c 0
 471 14 508 86 508 150 c 0xe1
 508 222 458 252 396 277 c 10
 244 338 l 18
 136 381 90 450 90 542 c 0
 90 680 186 730 286 730 c 0
 352 730 412 685 432 670 c 0
 445 661 458 652 470 652 c 0
 483 652 488 662 490 676 c 2
 494 712 l 9
 518 712 l 25xd4
 528 452 l 25
 504 452 l 17
 472 598 376 698 278 698 c 0
 207 698 150 650 150 560 c 0xd2
 150 496 188 468 241 447 c 10
 434 370 l 18
 529 332 568 255 568 188 c 0
 568 89 504 -18 351 -18 c 0
 287 -18 226 20 198 41 c 0
 173 60 155 73 148 73 c 0
 131 73 125 52 122 30 c 2
 118 -10 l 9
 95 -10 l 25xc9
 88 306 l 25xe0
EndSplineSet
Validated: 19457
Layer: 2
SplineSet
88 306 m 25,0,-1
 112 306 l 1,1,2
 122 193 122 193 194 103.5 c 128,-1,3
 266 14 266 14 351 14 c 0,4,5
 433 14 433 14 470.5 54 c 128,-1,6
 508 94 508 94 508 150 c 0,7,8
 508 199 508 199 479.5 227 c 128,-1,9
 451 255 451 255 396 277 c 2,10,-1
 244 338 l 2,11,12
 90 399 90 399 90 542 c 0,13,14
 90 638 90 638 146 684 c 128,-1,15
 202 730 202 730 286 730 c 0,16,17
 326 730 326 730 364 711.5 c 128,-1,18
 402 693 402 693 432 670 c 0,19,20
 456 652 456 652 470 652 c 0,21,22
 487 652 487 652 490 676 c 2,23,-1
 494 712 l 1,24,-1
 518 712 l 1,25,-1
 528 452 l 1,26,-1
 504 452 l 1,27,28
 480 560 480 560 416 629 c 128,-1,29
 352 698 352 698 278 698 c 0,30,31
 222 698 222 698 186 661.5 c 128,-1,32
 150 625 150 625 150 560 c 0,33,34
 150 515 150 515 173 490 c 128,-1,35
 196 465 196 465 241 447 c 2,36,-1
 434 370 l 2,37,38
 501 343 501 343 534.5 293 c 128,-1,39
 568 243 568 243 568 188 c 0,40,41
 568 105 568 105 513 43.5 c 128,-1,42
 458 -18 458 -18 351 -18 c 0,43,44
 314 -18 314 -18 273.5 -1 c 128,-1,45
 233 16 233 16 222 24 c 128,-1,46
 211 32 211 32 186 49.5 c 128,-1,47
 161 67 161 67 156 70 c 128,-1,48
 151 73 151 73 147 73 c 0,49,50
 139 73 139 73 131.5 62.5 c 128,-1,51
 124 52 124 52 122 30 c 2,52,-1
 118 -10 l 1,53,-1
 95 -10 l 1,54,-1
 88 306 l 25,0,-1
EndSplineSet
Validated: 19457
EndChar

StartChar: T
Encoding: 84 84 52
Width: 714
VWidth: 1039
Flags: W
TeX: 84 0
HStem: 0 32<198 319.517 414.483 536> 680 32<190.014 319.769 414.483 543.986>
VStem: 72 25<444 534.797> 321 92<32.323 679.709> 637 25<444 534.503>
CounterMasks: 1 38
AnchorPoint: "Bottom" 368 0 basechar 0
AnchorPoint: "Top" 368 762 basechar 0
LayerCount: 3
Fore
SplineSet
72 444 m 1
 80 712 l 9
 654 712 l 17
 662 444 l 1
 637 444 l 1
 637 444 634 565 585 628 c 0
 573 644 538 680 486 680 c 10
 440 680 l 18
 422 680 413 672 413 653 c 10
 413 59 l 18
 413 41 422 32 440 32 c 10
 536 32 l 25
 536 0 l 25
 198 0 l 25
 198 32 l 25
 294 32 l 18
 312 32 321 41 321 59 c 10
 321 653 l 18
 321 672 314 680 294 680 c 10
 248 680 l 18
 196 680 161 644 149 628 c 0
 100 565 97 445 97 444 c 1
 72 444 l 1
EndSplineSet
Validated: 1
Layer: 2
SplineSet
72 444 m 1,0,-1
 80 712 l 1,1,-1
 654 712 l 1,2,-1
 662 444 l 1,3,-1
 637 444 l 1,4,5
 637 455 637 455 635 479 c 128,-1,6
 633 503 633 503 620 551.5 c 128,-1,7
 607 600 607 600 585 628 c 0,8,9
 544 680 544 680 486 680 c 2,10,-1
 440 680 l 2,11,12
 413 680 413 680 413 653 c 2,13,-1
 413 59 l 2,14,15
 413 32 413 32 440 32 c 2,16,-1
 536 32 l 1,17,-1
 536 0 l 1,18,-1
 198 0 l 25,19,-1
 198 32 l 1,20,-1
 294 32 l 2,21,22
 321 32 321 32 321 59 c 2,23,-1
 321 653 l 2,24,25
 321 680 321 680 294 680 c 2,26,-1
 248 680 l 2,27,28
 188 680 188 680 149 628 c 0,29,30
 127 600 127 600 114 551.5 c 128,-1,31
 101 503 101 503 99 479 c 128,-1,32
 97 455 97 455 97 444 c 1,33,-1
 72 444 l 1,0,-1
EndSplineSet
Validated: 19457
EndChar

StartChar: U
Encoding: 85 85 53
Width: 804
VWidth: 1039
Flags: W
TeX: 85 0
HStem: -18 32<349.016 509.184> 680 32<62 159.643 254.357 353 524 599.212 686.788 762>
VStem: 161 92<126.121 679.787> 623 40<114.914 659.544>
AnchorPoint: "Bottom" 422 0 basechar 0
AnchorPoint: "Top" 422 762 basechar 0
LayerCount: 3
Fore
SplineSet
62 680 m 25
 62 712 l 25
 353 712 l 25
 353 680 l 25
 280 680 l 18
 261 680 253 672 253 653 c 10
 253 210 l 18
 253 87 315 14 424 14 c 0
 555 14 623 102 623 198 c 10
 623 599 l 18
 623 649 596 680 559 680 c 10
 524 680 l 25
 524 712 l 25
 762 712 l 25
 762 680 l 25
 727 680 l 18
 690 680 663 649 663 599 c 10
 663 208 l 18
 663 83 575 -18 424 -18 c 0
 234 -18 161 108 161 237 c 10
 161 653 l 18
 161 672 153 680 134 680 c 10
 62 680 l 25
EndSplineSet
Validated: 1
Layer: 2
SplineSet
424 -18 m 0,0,1
 355 -18 355 -18 303 3.5 c 128,-1,2
 251 25 251 25 221 61.5 c 128,-1,3
 191 98 191 98 176 142.5 c 128,-1,4
 161 187 161 187 161 237 c 2,5,-1
 161 653 l 2,6,7
 161 680 161 680 134 680 c 2,8,-1
 62 680 l 1,9,-1
 62 712 l 25,10,-1
 353 712 l 1,11,-1
 353 680 l 1,12,-1
 280 680 l 2,13,14
 253 680 253 680 253 653 c 2,15,-1
 253 210 l 2,16,17
 253 117 253 117 298 65.5 c 128,-1,18
 343 14 343 14 424 14 c 0,19,20
 518 14 518 14 570.5 67.5 c 128,-1,21
 623 121 623 121 623 198 c 2,22,-1
 623 599 l 2,23,24
 623 636 623 636 605 658 c 128,-1,25
 587 680 587 680 559 680 c 2,26,-1
 524 680 l 1,27,-1
 524 712 l 1,28,-1
 762 712 l 1,29,-1
 762 680 l 1,30,-1
 727 680 l 2,31,32
 699 680 699 680 681 658 c 128,-1,33
 663 636 663 636 663 599 c 2,34,-1
 663 208 l 2,35,36
 663 111 663 111 598.5 46.5 c 128,-1,37
 534 -18 534 -18 424 -18 c 0,0,1
EndSplineSet
Validated: 19457
EndChar

StartChar: V
Encoding: 86 86 54
Width: 772
VWidth: 1039
Flags: W
TeX: 86 0
HStem: -18 21G<391.875 430.496> 680 32<44 150.386 266.33 364 478 570.593 663.716 748>
DStem2: 439 152 399 -18 0.335606 -0.942002<-532.291 0> 439 152 424 -18 0.308914 0.95109<0 495.484>
AnchorPoint: "Bottom" 420 0 basechar 0
AnchorPoint: "Top" 420 762 basechar 0
LayerCount: 3
Fore
SplineSet
44 680 m 1
 44 712 l 1
 364 712 l 1
 364 680 l 1
 298 680 l 2
 279 680 264 669 264 655 c 0
 264 649 265.318 640.543 268 633 c 2
 439 152 l 1
 571 558 l 2
 578.433 580.861 583 610 583 627 c 0
 583 649 573 680 532 680 c 2
 478 680 l 1
 478 712 l 1
 748 712 l 1
 748 680 l 1
 711 680 l 2
 660 680 639 642 627 607 c 2
 424 -18 l 1
 399 -18 l 1
 166 636 l 2
 153 672 134 680 107 680 c 2
 44 680 l 1
EndSplineSet
Validated: 19457
Layer: 2
SplineSet
399 -18 m 1,0,-1
 166 636 l 2,1,2
 157 661 157 661 143 670.5 c 128,-1,3
 129 680 129 680 107 680 c 2,4,-1
 44 680 l 1,5,-1
 44 712 l 1,6,-1
 364 712 l 1,7,-1
 364 680 l 1,8,-1
 298 680 l 2,9,10
 284 680 284 680 274 672.5 c 128,-1,11
 264 665 264 665 264 655 c 0,12,13
 264 644 264 644 268 633 c 2,14,-1
 439 152 l 1,15,-1
 571 558 l 2,16,17
 583 595 583 595 583 628 c 0,18,19
 583 649 583 649 570.5 664.5 c 128,-1,20
 558 680 558 680 532 680 c 2,21,-1
 478 680 l 1,22,-1
 478 712 l 1,23,-1
 748 712 l 1,24,-1
 748 680 l 1,25,-1
 711 680 l 2,26,27
 651 680 651 680 627 607 c 2,28,-1
 424 -18 l 1,29,-1
 399 -18 l 1,0,-1
EndSplineSet
Validated: 19457
EndChar

StartChar: W
Encoding: 87 87 55
Width: 1068
VWidth: 1039
Flags: W
TeX: 87 0
HStem: -18 21G<343.19 379.683 690.101 727.368> 680 32<38 143.386 254.33 334 400 483.734 616.514 696 774 859.775 954.452 1044>
DStem2: 256 633 159 636 0.278985 -0.960295<-21.9698 478.841> 389 173 374 -18 0.27335 0.961915<0 390.188> 612 597 510 611 0.284286 -0.95874<33.8228 450.954> 738 164 721 -18 0.303392 0.952866<0 488.73>
AnchorPoint: "Bottom" 546 0 basechar 0
AnchorPoint: "Top" 546 762 basechar 0
LayerCount: 3
Fore
SplineSet
38 680 m 1
 38 712 l 1
 334 712 l 1
 334 680 l 1
 286 680 l 2
 267 680 252 669 252 655 c 0
 252 649 254 640 256 633 c 2
 389 173 l 1
 510 611 l 1
 500 643 l 2
 490 672 452 680 429 680 c 2
 400 680 l 1
 400 712 l 1
 696 712 l 1
 696 680 l 1
 657 680 l 2
 619 680 606 658 606 628 c 0
 606 614 608 608 612 597 c 2
 738 164 l 1
 862 558 l 2
 870 589 874 605 874 635 c 0
 874 660 850 680 808 680 c 2
 774 680 l 1
 774 712 l 1
 1044 712 l 1
 1044 680 l 1
 1001 680 l 2
 950 680 931 642 920 607 c 2
 721 -18 l 1
 696 -18 l 1
 532 538 l 1
 374 -18 l 1
 349 -18 l 1
 159 636 l 2
 146 672 127 680 100 680 c 2
 38 680 l 1
EndSplineSet
Validated: 1
Layer: 2
SplineSet
349 -18 m 1,0,-1
 159 636 l 2,1,2
 143 680 143 680 100 680 c 2,3,-1
 38 680 l 1,4,-1
 38 712 l 1,5,-1
 334 712 l 1,6,-1
 334 680 l 1,7,-1
 286 680 l 2,8,9
 272 680 272 680 262 672.5 c 128,-1,10
 252 665 252 665 252 655 c 0,11,12
 252 647 252 647 256 633 c 2,13,-1
 389 173 l 1,14,-1
 510 611 l 1,15,-1
 500 643 l 2,16,17
 487 680 487 680 429 680 c 2,18,-1
 400 680 l 1,19,-1
 400 712 l 1,20,-1
 696 712 l 1,21,-1
 696 680 l 1,22,-1
 657 680 l 2,23,24
 606 680 606 680 606 628 c 0,25,26
 606 614 606 614 612 597 c 2,27,-1
 738 164 l 1,28,-1
 863 558 l 2,29,30
 874 601 874 601 874 630 c 0,31,32
 874 650 874 650 856 665 c 128,-1,33
 838 680 838 680 808 680 c 2,34,-1
 774 680 l 1,35,-1
 774 712 l 1,36,-1
 1044 712 l 1,37,-1
 1044 680 l 1,38,-1
 1001 680 l 2,39,40
 943 680 943 680 920 607 c 2,41,-1
 721 -18 l 1,42,-1
 696 -18 l 1,43,-1
 532 538 l 1,44,-1
 374 -18 l 1,45,-1
 349 -18 l 1,0,-1
EndSplineSet
Validated: 19457
EndChar

StartChar: X
Encoding: 88 88 56
Width: 750
VWidth: 1039
Flags: W
TeX: 88 0
HStem: 0 32<46 128.621 233.56 316 414 500.464 620.848 724> 680 32<56 169.204 288.005 366 439 508.041 607.153 709>
DStem2: 176 99 251 139 0.551173 0.834391<9.07813 284.117 409.36 638.08> 404 439 345 352 0.475125 -0.879918<-253.724 0 42.4643 48.5205 91.9351 385.482>
AnchorPoint: "Bottom" 380 0 basechar 0
AnchorPoint: "Top" 396 762 basechar 0
LayerCount: 3
Fore
SplineSet
46 0 m 1
 46 32 l 1
 77 32 l 2
 126 32 153 65 176 99 c 2
 345 352 l 1
 196 628 l 2
 179 659 165 680 117 680 c 2
 56 680 l 1
 56 712 l 1
 366 712 l 1
 366 680 l 1
 306 680 l 2
 295 680 288 675 288 665 c 0
 288 659 291 647 296 639 c 2
 404 439 l 1
 499 581 l 2
 511 599 519 620 519 638 c 0
 519 659 500 680 470 680 c 2
 439 680 l 1
 439 712 l 1
 709 712 l 1
 709 680 l 1
 664 680 l 2
 624 680 599 666 576 631 c 2
 423 401 l 1
 600 76 l 2
 619 43 635 32 662 32 c 2
 724 32 l 1
 724 0 l 1
 414 0 l 1
 414 32 l 1
 474 32 l 2
 494 32 501 42 501 53 c 0
 501 59 497 72 494 78 c 2
 366 314 l 1
 251 139 l 2
 236 116 226 94 226 76 c 0
 226 54 237 32 262 32 c 2
 316 32 l 1
 316 0 l 1
 46 0 l 1
EndSplineSet
Validated: 1
Layer: 2
SplineSet
46 0 m 1,0,-1
 46 32 l 1,1,-1
 77 32 l 2,2,3
 106 32 106 32 125.5 42 c 128,-1,4
 145 52 145 52 154 66.5 c 128,-1,5
 163 81 163 81 176 99 c 2,6,-1
 345 352 l 1,7,-1
 196 628 l 2,8,9
 181 656 181 656 165.5 668 c 128,-1,10
 150 680 150 680 117 680 c 2,11,-1
 56 680 l 1,12,-1
 56 712 l 1,13,-1
 366 712 l 1,14,-1
 366 680 l 1,15,-1
 306 680 l 2,16,17
 288 680 288 680 288 665 c 0,18,19
 288 652 288 652 296 639 c 2,20,-1
 404 439 l 1,21,-1
 499 581 l 2,22,23
 519 611 519 611 519 638 c 0,24,25
 519 655 519 655 505.5 667.5 c 128,-1,26
 492 680 492 680 470 680 c 2,27,-1
 439 680 l 1,28,-1
 439 712 l 1,29,-1
 709 712 l 1,30,-1
 709 680 l 1,31,-1
 664 680 l 2,32,33
 608 680 608 680 576 631 c 2,34,-1
 423 401 l 1,35,-1
 600 76 l 2,36,37
 625 32 625 32 662 32 c 2,38,-1
 724 32 l 1,39,-1
 724 0 l 1,40,-1
 414 0 l 1,41,-1
 414 32 l 1,42,-1
 474 32 l 2,43,44
 501 32 501 32 501 53 c 0,45,46
 501 64 501 64 494 78 c 2,47,-1
 366 314 l 1,48,-1
 251 139 l 2,49,50
 226 101 226 101 226 76 c 0,51,52
 226 58 226 58 235 45 c 128,-1,53
 244 32 244 32 262 32 c 2,54,-1
 316 32 l 1,55,-1
 316 0 l 1,56,-1
 46 0 l 1,0,-1
EndSplineSet
Validated: 19457
EndChar

StartChar: Y
Encoding: 89 89 57
Width: 728
VWidth: 1039
Flags: W
TeX: 89 0
HStem: 0 32<224 345.517 440.483 562> 680 32<42 132.662 259.343 352 454 523.906 625.89 702>
VStem: 347 92<32.323 318>
DStem2: 420 366 347 318 0.520798 -0.85368<-331.362 0> 420 366 439 335 0.465344 0.88513<0 282.134>
AnchorPoint: "Bottom" 392 0 basechar 0
AnchorPoint: "Top" 392 762 basechar 0
LayerCount: 3
Fore
SplineSet
42 680 m 1
 42 712 l 1
 352 712 l 1
 352 680 l 1
 292 680 l 2
 272 680 257 669 257 655 c 0
 257 649 257 640 262 633 c 2
 420 366 l 25
 522 562 l 18
 528 571 539 606 539 623 c 0
 539 651 524 680 484 680 c 2
 454 680 l 1
 454 712 l 1
 702 712 l 1
 702 680 l 1
 673 680 l 2
 624 680 600 639 582 607 c 2
 439 335 l 9
 439 59 l 18
 439 41 448 32 466 32 c 10
 562 32 l 25
 562 0 l 25
 224 0 l 25
 224 32 l 25
 320 32 l 18
 338 32 347 41 347 59 c 10
 347 318 l 17
 153 636 l 2
 133 669 121 680 94 680 c 2
 42 680 l 1
EndSplineSet
Validated: 1
Layer: 2
SplineSet
224 0 m 25,0,-1
 224 32 l 1,1,-1
 320 32 l 2,2,3
 347 32 347 32 347 59 c 2,4,-1
 347 318 l 1,5,-1
 153 636 l 2,6,7
 138 662 138 662 126 671 c 128,-1,8
 114 680 114 680 94 680 c 2,9,-1
 42 680 l 1,10,-1
 42 712 l 1,11,-1
 352 712 l 1,12,-1
 352 680 l 1,13,-1
 296 680 l 2,14,15
 281 680 281 680 271 673 c 128,-1,16
 261 666 261 666 261 655 c 0,17,18
 261 640 261 640 266 633 c 2,19,-1
 420 366 l 1,20,-1
 522 562 l 2,21,22
 527 569 527 569 533 590 c 128,-1,23
 539 611 539 611 539 623 c 0,24,25
 539 647 539 647 525.5 663.5 c 128,-1,26
 512 680 512 680 484 680 c 2,27,-1
 454 680 l 1,28,-1
 454 712 l 1,29,-1
 702 712 l 1,30,-1
 702 680 l 1,31,-1
 673 680 l 2,32,33
 649 680 649 680 630 666.5 c 128,-1,34
 611 653 611 653 603 641.5 c 128,-1,35
 595 630 595 630 582 607 c 2,36,-1
 439 335 l 1,37,-1
 439 59 l 2,38,39
 439 32 439 32 466 32 c 2,40,-1
 562 32 l 1,41,-1
 562 0 l 1,42,-1
 224 0 l 25,0,-1
EndSplineSet
Validated: 19457
EndChar

StartChar: Z
Encoding: 90 90 58
Width: 652
VWidth: 1039
Flags: W
TeX: 90 0
HStem: 0 32<178 454.341> 456 21G<88 113> 680 32<236.884 482>
VStem: 88 25<456 503.908> 581 25<231.07 282>
DStem2: 68 32 178 32 0.538389 0.842696<59.2228 768.96>
AnchorPoint: "Bottom" 360 0 basechar 0
AnchorPoint: "Top" 360 762 basechar 0
LayerCount: 3
Fore
SplineSet
68 0 m 9
 68 32 l 17
 482 680 l 1
 294 680 l 2
 244 680 204 644 185 622 c 0
 132 560 113 457 113 456 c 1
 88 456 l 1
 124 712 l 9
 588 712 l 25
 588 680 l 17
 178 32 l 1
 399 32 l 2
 430 32 468 48 502 88 c 0
 558 153 581 282 581 282 c 1
 606 282 l 1
 582 0 l 1
 68 0 l 9
EndSplineSet
Validated: 1
Layer: 2
SplineSet
68 0 m 9,0,-1
 68 32 l 1,1,-1
 482 680 l 1,2,-1
 294 680 l 2,3,4
 235 680 235 680 185 622 c 0,5,6
 152 583 152 583 132.5 525.5 c 128,-1,7
 113 468 113 468 113 456 c 1,8,-1
 88 456 l 1,9,-1
 124 712 l 1,10,-1
 588 712 l 1,11,-1
 588 680 l 1,12,-1
 178 32 l 1,13,-1
 399 32 l 2,14,15
 454 32 454 32 502 88 c 0,16,17
 527 117 527 117 546.5 165.5 c 128,-1,18
 566 214 566 214 574 248 c 2,19,-1
 581 282 l 1,20,-1
 606 282 l 1,21,-1
 582 0 l 1,22,-1
 68 0 l 9,0,-1
EndSplineSet
Validated: 19457
EndChar

StartChar: bracketleft
Encoding: 91 91 59
Width: 380
Flags: W
TeX: 98 0
HStem: -198 26<268 307.077> 704 26<268 307.077>
VStem: 120 72<-155.999 687.875>
LayerCount: 3
Fore
SplineSet
120 -186 m 25
 120 718 l 25
 306 730 l 25
 310 704 l 25
 214 688 l 18
 199.081 685.513 192 672 192 656 c 10
 192 -124 l 18
 192 -140 199.081 -153.514 214 -156 c 10
 310 -172 l 25
 306 -198 l 25
 120 -186 l 25
EndSplineSet
Validated: 1
Layer: 2
SplineSet
120 -186 m 1,0,-1
 120 718 l 1,1,-1
 306 730 l 1,2,-1
 310 704 l 1,3,-1
 214 688 l 2,4,5
 192 684 192 684 192 656 c 2,6,-1
 192 -124 l 18,7,8
 192 -152 192 -152 214 -156 c 2,9,-1
 310 -172 l 1,10,-1
 306 -198 l 1,11,-1
 120 -186 l 1,0,-1
EndSplineSet
Validated: 19457
EndChar

StartChar: backslash
Encoding: 92 92 60
Width: 450
Flags: W
TeX: 98 0
HStem: 710 20G<56 102.422>
DStem2: 96 730 56 730 0.305743 -0.952114<0 962.444>
LayerCount: 3
Fore
SplineSet
56 730 m 25
 96 730 l 25
 394 -198 l 25
 354 -198 l 25
 56 730 l 25
EndSplineSet
Validated: 1
Layer: 2
SplineSet
394 -198 m 1,0,-1
 354 -198 l 25,1,-1
 56 730 l 1,2,-1
 96 730 l 1,3,-1
 394 -198 l 1,0,-1
EndSplineSet
Validated: 19457
EndChar

StartChar: bracketright
Encoding: 93 93 61
Width: 380
Flags: W
TeX: 98 0
HStem: -198 26<72.9231 112> 704 26<72.9231 112>
VStem: 188 72<-155.875 687.999>
LayerCount: 3
Fore
SplineSet
70 -172 m 25
 166 -156 l 18
 180.919 -153.514 188 -140 188 -124 c 10
 188 656 l 18
 188 672 180.919 685.514 166 688 c 10
 70 704 l 25
 74 730 l 25
 260 718 l 25
 260 -186 l 25
 74 -198 l 25
 70 -172 l 25
EndSplineSet
Validated: 1
Layer: 2
SplineSet
260 -186 m 1,0,-1
 74 -198 l 1,1,-1
 70 -172 l 1,2,-1
 166 -156 l 2,3,4
 188 -152 188 -152 188 -124 c 2,5,-1
 188 656 l 18,6,7
 188 684 188 684 166 688 c 2,8,-1
 70 704 l 1,9,-1
 74 730 l 1,10,-1
 260 718 l 1,11,-1
 260 -186 l 1,0,-1
EndSplineSet
Validated: 19457
EndChar

StartChar: asciicircum
Encoding: 94 94 62
Width: 580
Flags: W
TeX: 97 0
HStem: 680 20G<279.363 304.418>
DStem2: 62 336 110 336 0.534168 0.845379<25.6401 364.637> 292 700 292 622 0.527479 -0.849568<66.2663 403.134>
LayerCount: 3
Fore
SplineSet
62 336 m 25
 292 700 l 25
 518 336 l 25
 470 336 l 25
 292 622 l 25
 110 336 l 25
 62 336 l 25
EndSplineSet
Validated: 1
Layer: 2
SplineSet
62 336 m 25,0,-1
 292 700 l 1,1,-1
 518 336 l 1,2,-1
 470 336 l 1,3,-1
 292 622 l 1,4,-1
 110 336 l 1,5,-1
 62 336 l 25,0,-1
EndSplineSet
Validated: 19457
EndChar

StartChar: underscore
Encoding: 95 95 63
Width: 520
Flags: W
TeX: 117 0
HStem: -158 40<0 520>
LayerCount: 3
Fore
SplineSet
0 -118 m 25
 520 -118 l 25
 520 -158 l 25
 0 -158 l 25
 0 -118 l 25
EndSplineSet
Validated: 1
Layer: 2
SplineSet
0 -158 m 25,0,-1
 0 -118 l 1,1,-1
 520 -118 l 1,2,-1
 520 -158 l 1,3,-1
 0 -158 l 25,0,-1
EndSplineSet
Validated: 19457
EndChar

StartChar: grave
Encoding: 96 96 64
AltUni2: 0002cb.ffffffff.0
Width: 440
VWidth: 959
Flags: W
TeX: 103 0
HStem: 508 176
VStem: 76 169
LayerCount: 3
Fore
SplineSet
76 653 m 0
 76 671 86 684 104 684 c 0
 122 684 135 677 153 652 c 10
 245 519 l 25
 232 508 l 25
 104 609 l 18
 88 621 76 635 76 653 c 0
EndSplineSet
Validated: 1
Layer: 2
SplineSet
104 684 m 0,0,1
 130 684 130 684 153 652 c 2,2,-1
 245 519 l 1,3,-1
 232 508 l 1,4,-1
 104 609 l 18,5,6
 76 630 76 630 76 653 c 0,7,8
 76 684 76 684 104 684 c 0,0,1
EndSplineSet
Validated: 19457
EndChar

StartChar: a
Encoding: 97 97 65
Width: 500
VWidth: 959
Flags: W
TeX: 97 0
HStem: -12 36<148.286 235.423 387.82 435.246> 284 78<128.097 176.219> 444 24<164.212 268.927>
VStem: 46 84<38.0659 179.664> 78 47<327 414.576> 308 72<32.0085 84 99.0637 245 266 402.788> 458 18<65.7282 130>
DStem2: 216 249 221 226 0.983353 0.181707<-49.1725 89.7416>
AnchorPoint: "Bottom" 228 0 basechar 0
AnchorPoint: "Top" 228 508 basechar 0
LayerCount: 3
Fore
SplineSet
130 103 m 0xf6
 130 33 169 24 192 24 c 0
 260 24 290 101 308 150 c 9
 308 245 l 17
 221 226 l 2
 156 212 130 174 130 103 c 0xf6
46 106 m 0
 46 216 148 236 216 249 c 10
 308 266 l 25
 308 351 l 18
 308 421 268 444 215 444 c 0
 170 444 125 417 125 387 c 0
 125 381 125 377 128 372 c 0
 130 368 137 363 143 362 c 0
 166 356 180 346 180 323 c 0
 180 293 158 284 136 284 c 0
 110 284 78 304 78 350 c 0xee
 78 428 152 468 218 468 c 0
 294 468 380 432 380 326 c 10
 380 80 l 18
 380 47 389 30 411 30 c 0
 447 30 458 81 458 130 c 9
 476 130 l 17
 476 66 463 -12 396 -12 c 0
 337 -12 310 26 308 84 c 1
 303 86 l 1
 288 50 243 -12 176 -12 c 0
 120 -12 46 8 46 106 c 0
EndSplineSet
Validated: 1
Layer: 2
SplineSet
130 103 m 0,0,1
 130 24 130 24 192 24 c 0,2,3
 216 24 216 24 235.5 35.5 c 128,-1,4
 255 47 255 47 269.5 69.5 c 128,-1,5
 284 92 284 92 291.5 108.5 c 128,-1,6
 299 125 299 125 308 150 c 1,7,-1
 308 245 l 1,8,-1
 221 226 l 2,9,10
 173 216 173 216 151.5 186.5 c 128,-1,11
 130 157 130 157 130 103 c 0,0,1
46 106 m 0,12,13
 46 137 46 137 58 161.5 c 128,-1,14
 70 186 70 186 85.5 200 c 128,-1,15
 101 214 101 214 128 225 c 128,-1,16
 155 236 155 236 171.5 240 c 128,-1,17
 188 244 188 244 216 249 c 2,18,-1
 308 266 l 1,19,-1
 308 351 l 2,20,21
 308 444 308 444 215 444 c 0,22,23
 181 444 181 444 153 426.5 c 128,-1,24
 125 409 125 409 125 387 c 0,25,26
 125 377 125 377 128 372 c 0,27,28
 132 364 132 364 143 362 c 0,29,30
 180 352 180 352 180 323 c 0,31,32
 180 284 180 284 136 284 c 0,33,34
 114 284 114 284 96 301 c 128,-1,35
 78 318 78 318 78 350 c 0,36,37
 78 405 78 405 121 436.5 c 128,-1,38
 164 468 164 468 218 468 c 0,39,40
 284 468 284 468 332 433.5 c 128,-1,41
 380 399 380 399 380 326 c 2,42,-1
 380 80 l 2,43,44
 380 30 380 30 411 30 c 0,45,46
 458 30 458 30 458 130 c 1,47,-1
 476 130 l 1,48,49
 476 -12 476 -12 396 -12 c 0,50,51
 311 -12 311 -12 308 84 c 1,52,-1
 303 86 l 1,53,54
 288 51 288 51 254.5 19.5 c 128,-1,55
 221 -12 221 -12 176 -12 c 0,56,57
 123 -12 123 -12 84.5 14 c 128,-1,58
 46 40 46 40 46 106 c 0,12,13
EndSplineSet
Validated: 19457
EndChar

StartChar: b
Encoding: 98 98 66
Width: 512
VWidth: 959
Flags: W
TeX: 98 0
HStem: -12 24<243.316 326.237> 444 24<250.587 325.868> 688 24<22 94.8125>
VStem: 96 72<86.3652 360.016 392 687.996> 376 88<109.139 351.521>
AnchorPoint: "Bottom" 278 0 basechar 0
LayerCount: 3
Fore
SplineSet
168 169 m 2
 168 94 213 12 290 12 c 0
 359 12 376 104 376 228 c 0
 376 352 359 444 290 444 c 0
 227 444 168 354 168 262 c 2
 168 169 l 2
22 688 m 1
 22 712 l 1
 168 712 l 1
 168 392 l 1
 174 390 l 1
 199 432 246 468 292 468 c 0
 400 468 464 360 464 228 c 0
 464 96 396 -12 288 -12 c 0
 218 -12 170 42 146 84 c 1
 142 82 l 1
 114 0 l 1
 96 0 l 1
 96 666 l 2
 96 682 90 688 74 688 c 2
 22 688 l 1
EndSplineSet
Validated: 1
Layer: 2
SplineSet
290 12 m 0,0,1
 338 12 338 12 357 68.5 c 128,-1,2
 376 125 376 125 376 228 c 256,3,4
 376 331 376 331 357 387.5 c 128,-1,5
 338 444 338 444 290 444 c 0,6,7
 243 444 243 444 205.5 387.5 c 128,-1,8
 168 331 168 331 168 262 c 2,9,-1
 168 169 l 2,10,11
 168 108 168 108 201.5 60 c 128,-1,12
 235 12 235 12 290 12 c 0,0,1
96 0 m 1,13,-1
 96 666 l 2,14,15
 96 688 96 688 74 688 c 2,16,-1
 22 688 l 1,17,-1
 22 712 l 1,18,-1
 168 712 l 1,19,-1
 168 392 l 1,20,-1
 174 390 l 1,21,22
 194 423 194 423 226.5 445.5 c 128,-1,23
 259 468 259 468 292 468 c 0,24,25
 371 468 371 468 417.5 399 c 128,-1,26
 464 330 464 330 464 228 c 256,27,28
 464 126 464 126 415.5 57 c 128,-1,29
 367 -12 367 -12 288 -12 c 0,30,31
 201 -12 201 -12 146 84 c 1,32,-1
 142 82 l 1,33,-1
 114 0 l 1,34,-1
 96 0 l 1,13,-1
EndSplineSet
Validated: 19457
EndChar

StartChar: c
Encoding: 99 99 67
Width: 436
Flags: W
TeX: 99 0
HStem: -12 24<196.77 297.724> 444 24<197.119 298.111>
VStem: 48 88<115.23 340.77> 342 52<315 404.553> 378 24<108.999 156>
AnchorPoint: "Bottom" 230 0 basechar 0
AnchorPoint: "Top" 248 508 basechar 0
LayerCount: 3
Fore
SplineSet
48 228 m 0xe8
 48 360 127 468 244 468 c 0
 341 468 394 397 394 337 c 0
 394 293 368 271 339 271 c 0
 312 271 292 291 292 315 c 0
 292 341 310 356 326 361 c 0
 338 365 342 371 342 379 c 0xf0
 342 399 316 444 244 444 c 0
 153 444 136 356 136 228 c 0
 136 100 152 12 244 12 c 0
 333 12 370 91 378 156 c 9
 402 156 l 17
 397 81 349 -12 244 -12 c 0
 126 -12 48 96 48 228 c 0xe8
EndSplineSet
Validated: 1
Layer: 2
SplineSet
244 -12 m 0,0,1
 157 -12 157 -12 102.5 57.5 c 128,-1,2
 48 127 48 127 48 228 c 256,3,4
 48 329 48 329 103 398.5 c 128,-1,5
 158 468 158 468 244 468 c 0,6,7
 312 468 312 468 353 427.5 c 128,-1,8
 394 387 394 387 394 337 c 0,9,10
 394 306 394 306 378 288.5 c 128,-1,11
 362 271 362 271 339 271 c 0,12,13
 319 271 319 271 305.5 284 c 128,-1,14
 292 297 292 297 292 315 c 0,15,16
 292 350 292 350 326 361 c 0,17,18
 342 366 342 366 342 379 c 0,19,20
 342 399 342 399 317 421.5 c 128,-1,21
 292 444 292 444 244 444 c 0,22,23
 181 444 181 444 158.5 390 c 128,-1,24
 136 336 136 336 136 228 c 256,25,26
 136 120 136 120 158 66 c 128,-1,27
 180 12 180 12 244 12 c 0,28,29
 305 12 305 12 338 55 c 128,-1,30
 371 98 371 98 378 156 c 1,31,-1
 402 156 l 1,32,33
 398 91 398 91 357 39.5 c 128,-1,34
 316 -12 316 -12 244 -12 c 0,0,1
EndSplineSet
Validated: 19457
EndChar

StartChar: d
Encoding: 100 100 68
Width: 522
Flags: W
TeX: 100 0
HStem: -12 24<185.763 268.579> 0 24<417.188 490> 444 24<186.132 261.413> 688 24<250 342.812>
VStem: 48 88<109.139 351.521> 344 72<24 42 80.0951 360.016 392 687.996>
AnchorPoint: "Bottom" 230 0 basechar 0
LayerCount: 3
Fore
SplineSet
136 228 m 0xbc
 136 104 153 12 222 12 c 0
 299 12 344 94 344 169 c 2
 344 262 l 2
 344 354 285 444 222 444 c 0
 153 444 136 352 136 228 c 0xbc
48 228 m 0
 48 360 112 468 220 468 c 0
 266 468 313 432 338 390 c 1
 344 392 l 1
 344 666 l 2
 344 682 338 688 322 688 c 2
 250 688 l 1
 250 712 l 1
 416 712 l 1
 416 46 l 2
 416 30 422 24 438 24 c 2
 490 24 l 1
 490 0 l 1
 344 0 l 1x7c
 344 42 l 1
 339 45 l 1
 316 18 272 -12 224 -12 c 0
 116 -12 48 96 48 228 c 0
EndSplineSet
Validated: 1
Layer: 2
SplineSet
222 12 m 0,0,1
 277 12 277 12 310.5 60 c 128,-1,2
 344 108 344 108 344 169 c 2,3,-1
 344 262 l 2,4,5
 344 331 344 331 306.5 387.5 c 128,-1,6
 269 444 269 444 222 444 c 0,7,8
 174 444 174 444 155 387.5 c 128,-1,9
 136 331 136 331 136 228 c 256,10,11
 136 125 136 125 155 68.5 c 128,-1,12
 174 12 174 12 222 12 c 0,0,1
344 0 m 1,13,-1
 344 42 l 1,14,-1
 339 45 l 1,15,16
 290 -12 290 -12 224 -12 c 0,17,18
 145 -12 145 -12 96.5 57 c 128,-1,19
 48 126 48 126 48 228 c 256,20,21
 48 330 48 330 94.5 399 c 128,-1,22
 141 468 141 468 220 468 c 0,23,24
 253 468 253 468 285.5 445.5 c 128,-1,25
 318 423 318 423 338 390 c 1,26,-1
 344 392 l 1,27,-1
 344 666 l 2,28,29
 344 688 344 688 322 688 c 2,30,-1
 250 688 l 1,31,-1
 250 712 l 1,32,-1
 416 712 l 1,33,-1
 416 46 l 2,34,35
 416 24 416 24 438 24 c 2,36,-1
 490 24 l 1,37,-1
 490 0 l 1,38,-1
 344 0 l 1,13,-1
EndSplineSet
Validated: 19457
EndChar

StartChar: e
Encoding: 101 101 69
Width: 460
VWidth: 959
Flags: W
TeX: 101 0
HStem: -12 24<203.289 302.181> 224 28<136 326> 444 24<194.528 269.457>
VStem: 48 88<111.887 224 252 337.724> 326 86<252 343.548> 378 24<102.974 156>
AnchorPoint: "Bottom" 240 0 basechar 0
AnchorPoint: "Top" 240 508 basechar 0
LayerCount: 3
Fore
SplineSet
136 252 m 1xf8
 326 252 l 1
 326 340 304 444 232 444 c 0
 160 444 136 340 136 252 c 1xf8
48 228 m 0
 48 350 122 468 236 468 c 0
 360 468 412 332 412 224 c 1xf8
 136 224 l 1
 136 102 158 12 250 12 c 0
 298 12 364 38 378 156 c 1
 402 156 l 1xf4
 395 63 345 -12 248 -12 c 0
 126 -12 48 88 48 228 c 0
EndSplineSet
Validated: 19457
Layer: 2
SplineSet
136 252 m 1,0,-1
 326 252 l 1,1,2
 326 288 326 288 321 320 c 128,-1,3
 316 352 316 352 306 381 c 128,-1,4
 296 410 296 410 277 427 c 128,-1,5
 258 444 258 444 232 444 c 256,6,7
 206 444 206 444 187 427 c 128,-1,8
 168 410 168 410 157 381 c 128,-1,9
 146 352 146 352 141 319.5 c 128,-1,10
 136 287 136 287 136 252 c 1,0,-1
48 228 m 0,11,12
 48 290 48 290 71 344 c 128,-1,13
 94 398 94 398 137.5 433 c 128,-1,14
 181 468 181 468 236 468 c 0,15,16
 272 468 272 468 302 453 c 128,-1,17
 332 438 332 438 352 413 c 128,-1,18
 372 388 372 388 386 356 c 128,-1,19
 400 324 400 324 406 291 c 128,-1,20
 412 258 412 258 412 224 c 1,21,-1
 136 224 l 1,22,23
 136 175 136 175 141 138.5 c 128,-1,24
 146 102 146 102 158 72.5 c 128,-1,25
 170 43 170 43 193 27.5 c 128,-1,26
 216 12 216 12 250 12 c 0,27,28
 270 12 270 12 288.5 18 c 128,-1,29
 307 24 307 24 326.5 39 c 128,-1,30
 346 54 346 54 359.5 84 c 128,-1,31
 373 114 373 114 378 156 c 1,32,-1
 402 156 l 1,33,34
 396 82 396 82 357 35 c 128,-1,35
 318 -12 318 -12 248 -12 c 0,36,37
 158 -12 158 -12 103 55 c 128,-1,38
 48 122 48 122 48 228 c 0,11,12
EndSplineSet
Validated: 19457
EndChar

StartChar: f
Encoding: 102 102 70
Width: 330
Flags: W
TeX: 102 0
HStem: 0 24<28 100.812 175.188 268> 428 28<28 102 174 268> 696 24<217.256 293.874>
VStem: 102 72<24.0044 428 456 633.149> 304 54<601 684.916>
AnchorPoint: "Top" 248 752 basechar 0
AnchorPoint: "Bottom" 152 0 basechar 0
LayerCount: 3
Fore
SplineSet
28 0 m 1
 28 24 l 1
 80 24 l 2
 96 24 102 30 102 46 c 2
 102 428 l 1
 28 428 l 1
 28 456 l 1
 102 456 l 1
 102 525 l 2
 102 667 184 720 255 720 c 0
 307 720 358 688 358 618 c 0
 358 584 340 562 311 562 c 0
 288 562 270 578 270 604 c 0
 270 616 276 632 288 640 c 0
 299 646 304 654 304 664 c 0
 304 690 273 696 253 696 c 0
 216 696 174 669 174 553 c 2
 174 456 l 1
 268 456 l 1
 268 428 l 1
 174 428 l 1
 174 46 l 2
 174 30 180 24 196 24 c 2
 268 24 l 1
 268 0 l 1
 28 0 l 1
EndSplineSet
Validated: 1
Layer: 2
SplineSet
28 0 m 1,0,-1
 28 24 l 1,1,-1
 80 24 l 2,2,3
 102 24 102 24 102 46 c 2,4,-1
 102 428 l 1,5,-1
 28 428 l 1,6,-1
 28 456 l 1,7,-1
 102 456 l 1,8,-1
 102 525 l 2,9,10
 102 623 102 623 148 671.5 c 128,-1,11
 194 720 194 720 255 720 c 0,12,13
 298 720 298 720 328 693.5 c 128,-1,14
 358 667 358 667 358 618 c 0,15,16
 358 592 358 592 345.5 577 c 128,-1,17
 333 562 333 562 311 562 c 0,18,19
 293 562 293 562 281.5 573.5 c 128,-1,20
 270 585 270 585 270 604 c 0,21,22
 270 628 270 628 288 640 c 0,23,24
 304 649 304 649 304 664 c 0,25,26
 304 696 304 696 253 696 c 0,27,28
 174 696 174 696 174 553 c 2,29,-1
 174 456 l 1,30,-1
 268 456 l 1,31,-1
 268 428 l 1,32,-1
 174 428 l 1,33,-1
 174 46 l 2,34,35
 174 24 174 24 196 24 c 2,36,-1
 268 24 l 1,37,-1
 268 0 l 1,38,-1
 28 0 l 1,0,-1
EndSplineSet
Validated: 19457
EndChar

StartChar: g
Encoding: 103 103 71
Width: 540
Flags: W
TeX: 103 0
HStem: -238 24<181.254 359.073> -26 66<143.09 424.983> 140 24<202.97 291.715> 444 24<204.017 292.765 418.128 472.622>
VStem: 52 44<-168.115 -67.0847> 62 40<46.0963 106.203> 70 80<220.458 386.211> 346 80<220.455 385.304> 448 36<-157.234 -49.9844> 474 54<380.5 443.421>
AnchorPoint: "Top" 262 508 basechar 0
LayerCount: 3
Fore
SplineSet
52 -122 m 0xf980
 52 -72 98 -31 150 -23 c 1
 150 -20 l 1xf3
 104 -10 62 11 62 54 c 0xf5
 62 113 117 141 171 150 c 1
 171 153 l 1
 126 172 70 216 70 304 c 0xf3
 70 410 157 468 248 468 c 0
 312 468 371 430 381 416 c 1
 394 453 426 468 450 468 c 0
 495 468 528 439 528 396 c 0
 528 365 512 342 486 342 c 0
 468 342 446 351 446 378 c 0
 446 393 453 404 463 410 c 0
 471 415 474 418 474 428 c 0
 474 439 460 444 447 444 c 0
 422 444 401 420 398 396 c 1
 408 382 426 352 426 304 c 0
 426 200 344 140 248 140 c 0
 188 140 102 127 102 73 c 0xf540
 102 45 132 40 166 40 c 0
 177 40 187 40 200 41 c 0
 212 42 221 42 231 42 c 2
 334 42 l 2
 413 42 484 0 484 -94 c 0
 484 -190 392 -238 268 -238 c 0
 167 -238 52 -210 52 -122 c 0xf980
150 304 m 0
 150 216 186 164 248 164 c 0
 310 164 346 216 346 304 c 0
 346 392 310 444 248 444 c 0
 186 444 150 392 150 304 c 0
96 -120 m 0xf980
 96 -188 192 -214 268 -214 c 0
 346 -214 448 -192 448 -102 c 0
 448 -68 433 -26 365 -26 c 2
 254 -26 l 2
 184 -26 96 -45 96 -120 c 0xf980
EndSplineSet
Validated: 1
Layer: 2
SplineSet
52 -122 m 256,0,1
 52 -85 52 -85 81 -57 c 128,-1,2
 110 -29 110 -29 150 -23 c 257,3,-1
 150 -20 l 257,4,5
 62 -1 62 -1 62 54 c 256,6,7
 62 95 62 95 93.5 118.5 c 128,-1,8
 125 142 125 142 171 150 c 257,9,-1
 171 153 l 257,10,11
 70 196 70 196 70 304 c 256,12,13
 70 380 70 380 122.5 424 c 128,-1,14
 175 468 175 468 248 468 c 256,15,16
 290 468 290 468 330.5 449 c 128,-1,17
 371 430 371 430 381 416 c 257,18,19
 390 442 390 442 410 455 c 128,-1,20
 430 468 430 468 450 468 c 256,21,22
 484 468 484 468 506 448 c 128,-1,23
 528 428 528 428 528 396 c 256,24,25
 528 372 528 372 516.5 357 c 128,-1,26
 505 342 505 342 486 342 c 256,27,28
 470 342 470 342 458 350.5 c 128,-1,29
 446 359 446 359 446 378 c 256,30,31
 446 400 446 400 463 410 c 0,32,33
 474 417 474 417 474 428 c 256,34,35
 474 444 474 444 447 444 c 256,36,37
 429 444 429 444 414.5 429.5 c 128,-1,38
 400 415 400 415 398 396 c 257,39,40
 426 357 426 357 426 304 c 256,41,42
 426 229 426 229 374.5 184.5 c 128,-1,43
 323 140 323 140 248 140 c 256,44,45
 191 140 191 140 146.5 124.5 c 128,-1,46
 102 109 102 109 102 73 c 256,47,48
 102 40 102 40 166 40 c 256,49,50
 187 40 187 40 200 41 c 0,51,52
 212 42 212 42 231 42 c 258,53,-1
 334 42 l 258,54,55
 398 42 398 42 441 7.5 c 128,-1,56
 484 -27 484 -27 484 -94 c 256,57,58
 484 -164 484 -164 424.5 -201 c 128,-1,59
 365 -238 365 -238 268 -238 c 256,60,61
 180 -238 180 -238 116 -210 c 128,-1,62
 52 -182 52 -182 52 -122 c 256,0,1
150 304 m 256,63,64
 150 238 150 238 176 201 c 128,-1,65
 202 164 202 164 248 164 c 256,66,67
 294 164 294 164 320 201 c 128,-1,68
 346 238 346 238 346 304 c 256,69,70
 346 370 346 370 320 407 c 128,-1,71
 294 444 294 444 248 444 c 256,72,73
 202 444 202 444 176 407 c 128,-1,74
 150 370 150 370 150 304 c 256,63,64
96 -120 m 256,75,76
 96 -167 96 -167 149 -190.5 c 128,-1,77
 202 -214 202 -214 268 -214 c 256,78,79
 313 -214 313 -214 350.5 -205.5 c 128,-1,80
 388 -197 388 -197 418 -170.5 c 128,-1,81
 448 -144 448 -144 448 -102 c 256,82,83
 448 -71 448 -71 429.5 -48.5 c 128,-1,84
 411 -26 411 -26 365 -26 c 258,85,-1
 254 -26 l 258,86,87
 214 -26 214 -26 181 -33.5 c 128,-1,88
 148 -41 148 -41 122 -63 c 128,-1,89
 96 -85 96 -85 96 -120 c 256,75,76
EndSplineSet
Validated: 19457
AlternateSubs2: "'aalt' Access All Alternates in Latin lookup 0 subtable" uni1D79
Substitution2: "'ss02' Insular Forms for Old English-1" uni1D79
Substitution2: "'salt' Stylistic Alternatives-1" uni1D79
EndChar

StartChar: h
Encoding: 104 104 72
Width: 544
Flags: W
TeX: 104 0
HStem: 0 24<28 104.812 179.188 242 312 374.812 449.188 512> 444 24<272.732 345.924> 688 24<28 104.812>
VStem: 106 72<24.0044 348.603 364 687.996> 376 72<24.0044 411.381>
AnchorPoint: "Bottom" 286 0 basechar 0
AnchorPoint: "Top" 264 752 basechar 0
LayerCount: 3
Fore
SplineSet
28 0 m 1
 28 24 l 1
 84 24 l 2
 100 24 106 30 106 46 c 2
 106 666 l 2
 106 682 100 688 84 688 c 2
 28 688 l 1
 28 712 l 1
 178 712 l 1
 178 364 l 1
 182 363 l 1
 217 430 268 468 321 468 c 0
 361 468 383 458 402 442 c 0
 438 413 448 354 448 319 c 2
 448 46 l 2
 448 30 454 24 470 24 c 2
 512 24 l 1
 512 0 l 1
 312 0 l 1
 312 24 l 1
 354 24 l 2
 370 24 376 30 376 46 c 2
 376 339 l 2
 376 387 364 444 312 444 c 0
 256 444 178 359 178 254 c 2
 178 46 l 2
 178 30 184 24 200 24 c 2
 242 24 l 1
 242 0 l 1
 28 0 l 1
EndSplineSet
Validated: 1
Layer: 2
SplineSet
28 0 m 1,0,-1
 28 24 l 1,1,-1
 84 24 l 2,2,3
 106 24 106 24 106 46 c 2,4,-1
 106 666 l 2,5,6
 106 688 106 688 84 688 c 2,7,-1
 28 688 l 1,8,-1
 28 712 l 1,9,-1
 178 712 l 1,10,-1
 178 364 l 1,11,-1
 182 363 l 1,12,13
 208 413 208 413 244.5 440.5 c 128,-1,14
 281 468 281 468 321 468 c 0,15,16
 371 468 371 468 402 442 c 0,17,18
 448 405 448 405 448 319 c 2,19,-1
 448 46 l 2,20,21
 448 24 448 24 470 24 c 2,22,-1
 512 24 l 1,23,-1
 512 0 l 1,24,-1
 312 0 l 1,25,-1
 312 24 l 1,26,-1
 354 24 l 2,27,28
 376 24 376 24 376 46 c 2,29,-1
 376 339 l 2,30,31
 376 444 376 444 312 444 c 0,32,33
 267 444 267 444 222.5 386.5 c 128,-1,34
 178 329 178 329 178 254 c 2,35,-1
 178 46 l 2,36,37
 178 24 178 24 200 24 c 2,38,-1
 242 24 l 1,39,-1
 242 0 l 1,40,-1
 28 0 l 1,0,-1
EndSplineSet
Validated: 19457
EndChar

StartChar: k
Encoding: 107 107 75
Width: 520
Flags: W
TeX: 107 0
HStem: 0 24<28 100.812 175.188 228 278 329.689 439.744 490> 432 24<268 323.941 395.478 472> 688 24<28 100.812>
VStem: 102 72<24.0044 164 203 687.996>
DStem2: 174 203 174 164 0.63466 0.772792<0 42.3318 117.617 254.073> 268 278 220 220 0.574946 -0.818192<19.8577 227.067>
AnchorPoint: "Bottom" 282 0 basechar 0
LayerCount: 3
Fore
SplineSet
28 0 m 1
 28 24 l 1
 80 24 l 2
 96 24 102 30 102 46 c 2
 102 666 l 2
 102 682 96 688 80 688 c 2
 28 688 l 1
 28 712 l 1
 174 712 l 1
 174 203 l 1
 310 369 l 2
 323 384 328 391 328 406 c 0
 328 424 313 432 294 432 c 2
 268 432 l 1
 268 456 l 1
 472 456 l 1
 472 432 l 1
 440 432 l 2
 403 432 379 414 344 371 c 2
 268 278 l 1
 424 56 l 2
 437 37 446 24 470 24 c 2
 490 24 l 1
 490 0 l 1
 278 0 l 1
 278 24 l 1
 304 24 l 2
 320 24 331 28 331 44 c 0
 331 60 326 68 318 80 c 2
 220 220 l 1
 174 164 l 1
 174 46 l 2
 174 30 180 24 196 24 c 2
 228 24 l 1
 228 0 l 1
 28 0 l 1
EndSplineSet
Validated: 1
Layer: 2
SplineSet
28 0 m 1,0,-1
 28 24 l 1,1,-1
 80 24 l 2,2,3
 102 24 102 24 102 46 c 2,4,-1
 102 666 l 2,5,6
 102 688 102 688 80 688 c 2,7,-1
 28 688 l 1,8,-1
 28 712 l 1,9,-1
 174 712 l 1,10,-1
 174 203 l 1,11,-1
 310 370 l 2,12,13
 328 392 328 392 328 406 c 0,14,15
 328 432 328 432 294 432 c 2,16,-1
 268 432 l 1,17,-1
 268 456 l 1,18,-1
 472 456 l 1,19,-1
 472 432 l 1,20,-1
 440 432 l 2,21,22
 413 432 413 432 392 418 c 128,-1,23
 371 404 371 404 344 371 c 2,24,-1
 268 278 l 1,25,-1
 424 56 l 2,26,27
 431 46 431 46 435.5 39 c 128,-1,28
 440 32 440 32 448 28 c 128,-1,29
 456 24 456 24 470 24 c 2,30,-1
 490 24 l 1,31,-1
 490 0 l 1,32,-1
 278 0 l 1,33,-1
 278 24 l 1,34,-1
 304 24 l 2,35,36
 331 24 331 24 331 44 c 0,37,38
 331 59 331 59 317 80 c 2,39,-1
 220 220 l 1,40,-1
 174 164 l 1,41,-1
 174 46 l 2,42,43
 174 24 174 24 196 24 c 2,44,-1
 228 24 l 1,45,-1
 228 0 l 1,46,-1
 28 0 l 1,0,-1
EndSplineSet
Validated: 19457
EndChar

StartChar: l
Encoding: 108 108 76
Width: 270
Flags: W
TeX: 108 0
HStem: 0 24<28 100.812 175.188 248> 688 24<28 100.812>
VStem: 102 72<24.0044 687.996>
AnchorPoint: "Bottom" 152 0 basechar 0
AnchorPoint: "Top" 152 752 basechar 0
LayerCount: 3
Fore
SplineSet
28 0 m 25
 28 24 l 25
 80 24 l 18
 96 24 102 30 102 46 c 10
 102 666 l 18
 102 682 96 688 80 688 c 10
 28 688 l 25
 28 712 l 25
 174 712 l 25
 174 46 l 18
 174 30 180 24 196 24 c 10
 248 24 l 25
 248 0 l 25
 28 0 l 25
EndSplineSet
Validated: 1
Layer: 2
SplineSet
28 0 m 25,0,-1
 28 24 l 1,1,-1
 80 24 l 2,2,3
 102 24 102 24 102 46 c 2,4,-1
 102 666 l 2,5,6
 102 688 102 688 80 688 c 2,7,-1
 28 688 l 1,8,-1
 28 712 l 1,9,-1
 174 712 l 1,10,-1
 174 46 l 2,11,12
 174 24 174 24 196 24 c 2,13,-1
 248 24 l 1,14,-1
 248 0 l 1,15,-1
 28 0 l 25,0,-1
EndSplineSet
Validated: 19457
EndChar

StartChar: m
Encoding: 109 109 77
Width: 794
Flags: W
TeX: 109 0
HStem: 0 24<38 100.812 175.188 238 300 362.812 437.188 500 562 624.812 699.188 762> 432 24<38 100.812> 444 24<260.303 332.237 522.011 594.237>
VStem: 102 72<24.0044 352.551 368 431.996> 364 72<24.0044 352.551> 626 72<24.0044 411.381>
CounterMasks: 1 1c
AnchorPoint: "Top" 400 508 basechar 0
AnchorPoint: "Bottom" 400 0 basechar 0
LayerCount: 3
Fore
SplineSet
38 0 m 1xbc
 38 24 l 1
 80 24 l 2
 96 24 102 30 102 46 c 2
 102 410 l 2
 102 426 96 432 80 432 c 2
 38 432 l 1
 38 456 l 1
 174 456 l 1xdc
 174 368 l 1
 178 367 l 1
 211 429 254 468 307 468 c 0
 347 468 371 458 390 442 c 0
 416 421 426 388 432 358 c 1
 436 357 l 1
 445 379 489 468 569 468 c 0
 609 468 633 458 652 442 c 0
 688 413 698 354 698 319 c 2
 698 46 l 2
 698 30 704 24 720 24 c 2
 762 24 l 1
 762 0 l 1
 562 0 l 1
 562 24 l 1
 604 24 l 2
 620 24 626 30 626 46 c 2
 626 339 l 2
 626 387 612 444 560 444 c 0
 504 444 436 359 436 254 c 2
 436 46 l 2
 436 30 442 24 458 24 c 2
 500 24 l 1
 500 0 l 1
 300 0 l 1
 300 24 l 1
 342 24 l 2
 358 24 364 30 364 46 c 2
 364 339 l 2
 364 387 350 444 298 444 c 0
 242 444 174 359 174 254 c 2
 174 46 l 2
 174 30 180 24 196 24 c 2
 238 24 l 1
 238 0 l 1
 38 0 l 1xbc
EndSplineSet
Validated: 1
Layer: 2
SplineSet
38 0 m 1,0,-1
 38 24 l 1,1,-1
 80 24 l 2,2,3
 102 24 102 24 102 46 c 2,4,-1
 102 410 l 2,5,6
 102 432 102 432 80 432 c 2,7,-1
 38 432 l 1,8,-1
 38 456 l 1,9,-1
 174 456 l 1,10,-1
 174 368 l 1,11,-1
 178 367 l 1,12,13
 232 468 232 468 307 468 c 0,14,15
 359 468 359 468 390 442 c 0,16,17
 420 418 420 418 432 358 c 1,18,-1
 436 357 l 1,19,20
 441 369 441 369 450 384 c 128,-1,21
 459 399 459 399 475.5 420 c 128,-1,22
 492 441 492 441 516.5 454.5 c 128,-1,23
 541 468 541 468 569 468 c 0,24,25
 621 468 621 468 652 442 c 0,26,27
 698 405 698 405 698 319 c 2,28,-1
 698 46 l 2,29,30
 698 24 698 24 720 24 c 2,31,-1
 762 24 l 1,32,-1
 762 0 l 1,33,-1
 562 0 l 1,34,-1
 562 24 l 1,35,-1
 604 24 l 2,36,37
 626 24 626 24 626 46 c 2,38,-1
 626 339 l 2,39,40
 626 382 626 382 610.5 413 c 128,-1,41
 595 444 595 444 560 444 c 0,42,43
 516 444 516 444 476 387 c 128,-1,44
 436 330 436 330 436 254 c 2,45,-1
 436 46 l 2,46,47
 436 24 436 24 458 24 c 2,48,-1
 500 24 l 1,49,-1
 500 0 l 1,50,-1
 300 0 l 1,51,-1
 300 24 l 1,52,-1
 342 24 l 2,53,54
 364 24 364 24 364 46 c 2,55,-1
 364 339 l 2,56,57
 364 382 364 382 348.5 413 c 128,-1,58
 333 444 333 444 298 444 c 0,59,60
 254 444 254 444 214 387 c 128,-1,61
 174 330 174 330 174 254 c 2,62,-1
 174 46 l 2,63,64
 174 24 174 24 196 24 c 2,65,-1
 238 24 l 1,66,-1
 238 0 l 1,67,-1
 38 0 l 1,0,-1
EndSplineSet
Validated: 19457
EndChar

StartChar: n
Encoding: 110 110 78
Width: 540
Flags: W
TeX: 110 0
HStem: 0 24<38 100.812 175.188 238 308 370.812 445.188 508> 432 24<38 100.812> 444 24<268.732 341.924>
VStem: 102 72<24.0044 348.603 364 431.996> 372 72<24.0044 411.381>
AnchorPoint: "Bottom" 276 0 basechar 0
AnchorPoint: "Top" 276 508 basechar 0
LayerCount: 3
Fore
SplineSet
38 0 m 1xb8
 38 24 l 1
 80 24 l 2
 96 24 102 30 102 46 c 2
 102 410 l 2
 102 426 96 432 80 432 c 2
 38 432 l 1
 38 456 l 1
 174 456 l 1xd8
 174 364 l 1
 178 363 l 1
 213 430 264 468 317 468 c 0
 357 468 379 458 398 442 c 0
 434 413 444 354 444 319 c 2
 444 46 l 2
 444 30 450 24 466 24 c 2
 508 24 l 1
 508 0 l 1
 308 0 l 1
 308 24 l 1
 350 24 l 2
 366 24 372 30 372 46 c 2
 372 339 l 2
 372 387 360 444 308 444 c 0
 252 444 174 359 174 254 c 2
 174 46 l 2
 174 30 180 24 196 24 c 2
 238 24 l 1
 238 0 l 1
 38 0 l 1xb8
EndSplineSet
Validated: 1
Layer: 2
SplineSet
38 0 m 1,0,-1
 38 24 l 1,1,-1
 80 24 l 2,2,3
 102 24 102 24 102 46 c 2,4,-1
 102 410 l 2,5,6
 102 432 102 432 80 432 c 2,7,-1
 38 432 l 1,8,-1
 38 456 l 1,9,-1
 174 456 l 1,10,-1
 174 364 l 1,11,-1
 178 363 l 1,12,13
 204 413 204 413 240.5 440.5 c 128,-1,14
 277 468 277 468 317 468 c 0,15,16
 367 468 367 468 398 442 c 0,17,18
 444 405 444 405 444 319 c 2,19,-1
 444 46 l 2,20,21
 444 24 444 24 466 24 c 2,22,-1
 508 24 l 1,23,-1
 508 0 l 1,24,-1
 308 0 l 1,25,-1
 308 24 l 1,26,-1
 350 24 l 2,27,28
 372 24 372 24 372 46 c 2,29,-1
 372 339 l 2,30,31
 372 444 372 444 308 444 c 0,32,33
 263 444 263 444 218.5 386.5 c 128,-1,34
 174 329 174 329 174 254 c 2,35,-1
 174 46 l 2,36,37
 174 24 174 24 196 24 c 2,38,-1
 238 24 l 1,39,-1
 238 0 l 1,40,-1
 38 0 l 1,0,-1
EndSplineSet
Validated: 19457
EndChar

StartChar: o
Encoding: 111 111 79
Width: 496
Flags: W
TeX: 111 0
HStem: -12 24<202.931 293.069> 444 24<202.931 293.069>
VStem: 48 88<120.082 335.918> 360 88<120.082 335.918>
AnchorPoint: "Bottom" 248 0 basechar 0
AnchorPoint: "Top" 248 508 basechar 0
LayerCount: 3
Fore
SplineSet
136 228 m 0
 136 100 164 12 248 12 c 0
 332 12 360 100 360 228 c 0
 360 356 332 444 248 444 c 0
 164 444 136 356 136 228 c 0
48 228 m 0
 48 360 136 468 248 468 c 0
 360 468 448 360 448 228 c 0
 448 96 360 -12 248 -12 c 0
 136 -12 48 96 48 228 c 0
EndSplineSet
Validated: 1
Layer: 2
SplineSet
248 12 m 256,0,1
 360 12 360 12 360 228 c 256,2,3
 360 444 360 444 248 444 c 256,4,5
 136 444 136 444 136 228 c 256,6,7
 136 12 136 12 248 12 c 256,0,1
248 -12 m 256,8,9
 164 -12 164 -12 106 58.5 c 128,-1,10
 48 129 48 129 48 228 c 256,11,12
 48 327 48 327 106 397.5 c 128,-1,13
 164 468 164 468 248 468 c 256,14,15
 332 468 332 468 390 397.5 c 128,-1,16
 448 327 448 327 448 228 c 256,17,18
 448 129 448 129 390 58.5 c 128,-1,19
 332 -12 332 -12 248 -12 c 256,8,9
EndSplineSet
Validated: 19457
EndChar

StartChar: p
Encoding: 112 112 80
Width: 518
VWidth: 959
Flags: W
TeX: 112 0
HStem: -230 24<28 100.812 175.188 248> -12 24<249.421 332.237> 432 24<28 100.812> 444 24<256.587 331.868>
VStem: 102 72<-205.996 42 80.0951 360.016 392 431.996> 382 88<109.139 351.521>
AnchorPoint: "Top" 268 508 basechar 0
LayerCount: 3
Fore
SplineSet
174 169 m 2xdc
 174 94 219 12 296 12 c 0
 365 12 382 104 382 228 c 0
 382 352 365 444 296 444 c 0
 233 444 174 354 174 262 c 2
 174 169 l 2xdc
28 -206 m 1
 80 -206 l 2
 96 -206 102 -200 102 -184 c 2
 102 410 l 2
 102 426 96 432 80 432 c 2
 28 432 l 1
 28 456 l 1
 174 456 l 1xec
 174 392 l 1
 180 390 l 1
 205 432 252 468 298 468 c 0
 406 468 470 360 470 228 c 0
 470 96 402 -12 294 -12 c 0
 246 -12 202 18 179 45 c 1
 174 42 l 1
 174 -184 l 2
 174 -200 180 -206 196 -206 c 2
 248 -206 l 1
 248 -230 l 1
 28 -230 l 1
 28 -206 l 1
EndSplineSet
Validated: 1
Layer: 2
SplineSet
296 12 m 0,0,1
 344 12 344 12 363 68.5 c 128,-1,2
 382 125 382 125 382 228 c 256,3,4
 382 331 382 331 363 387.5 c 128,-1,5
 344 444 344 444 296 444 c 0,6,7
 249 444 249 444 211.5 387.5 c 128,-1,8
 174 331 174 331 174 262 c 2,9,-1
 174 169 l 2,10,11
 174 108 174 108 207.5 60 c 128,-1,12
 241 12 241 12 296 12 c 0,0,1
28 -230 m 1,13,-1
 28 -206 l 1,14,-1
 80 -206 l 2,15,16
 102 -206 102 -206 102 -184 c 2,17,-1
 102 410 l 2,18,19
 102 432 102 432 80 432 c 2,20,-1
 28 432 l 1,21,-1
 28 456 l 1,22,-1
 174 456 l 1,23,-1
 174 392 l 1,24,-1
 180 390 l 1,25,26
 200 423 200 423 232.5 445.5 c 128,-1,27
 265 468 265 468 298 468 c 0,28,29
 377 468 377 468 423.5 399 c 128,-1,30
 470 330 470 330 470 228 c 256,31,32
 470 126 470 126 421.5 57 c 128,-1,33
 373 -12 373 -12 294 -12 c 0,34,35
 228 -12 228 -12 179 45 c 1,36,-1
 174 42 l 1,37,-1
 174 -184 l 2,38,39
 174 -206 174 -206 196 -206 c 2,40,-1
 248 -206 l 1,41,-1
 248 -230 l 1,42,-1
 28 -230 l 1,13,-1
EndSplineSet
Validated: 19457
EndChar

StartChar: q
Encoding: 113 113 81
Width: 502
VWidth: 959
Flags: W
TeX: 113 0
HStem: -230 24<270 342.812 417.188 490> -12 24<185.763 268.579> 444 24<185.763 263.933>
VStem: 48 88<109.581 346.419> 344 72<-205.996 42 80.0951 363.482>
AnchorPoint: "Top" 240 508 basechar 0
LayerCount: 3
Fore
SplineSet
48 228 m 1
 48 360 116 468 224 468 c 0
 294 468 340 409 360 362 c 1
 367 364 l 1
 398 456 l 1
 416 456 l 1
 416 -184 l 2
 416 -200 422 -206 438 -206 c 2
 490 -206 l 1
 490 -230 l 1
 270 -230 l 1
 270 -206 l 1
 322 -206 l 2
 338 -206 344 -200 344 -184 c 2
 344 42 l 1
 339 45 l 1
 316 18 272 -12 224 -12 c 0
 116 -12 48 96 48 228 c 1
136 228 m 0
 136 106 153 12 222 12 c 0
 299 12 344 94 344 169 c 2
 344 278 l 2
 344 353 290 444 222 444 c 0
 153 444 136 350 136 228 c 0
EndSplineSet
Validated: 1
Layer: 2
SplineSet
270 -230 m 1,0,-1
 270 -206 l 1,1,-1
 322 -206 l 2,2,3
 344 -206 344 -206 344 -184 c 2,4,-1
 344 42 l 1,5,-1
 339 45 l 1,6,7
 290 -12 290 -12 224 -12 c 0,8,9
 145 -12 145 -12 96.5 57 c 128,-1,10
 48 126 48 126 48 228 c 256,11,12
 48 330 48 330 96.5 399 c 128,-1,13
 145 468 145 468 224 468 c 0,14,15
 272 468 272 468 307 436 c 128,-1,16
 342 404 342 404 360 362 c 1,17,-1
 367 364 l 1,18,-1
 398 456 l 1,19,-1
 416 456 l 1,20,-1
 416 -184 l 2,21,22
 416 -206 416 -206 438 -206 c 2,23,-1
 490 -206 l 1,24,-1
 490 -230 l 1,25,-1
 270 -230 l 1,0,-1
222 12 m 0,26,27
 277 12 277 12 310.5 60 c 128,-1,28
 344 108 344 108 344 169 c 2,29,-1
 344 278 l 2,30,31
 344 337 344 337 307.5 390.5 c 128,-1,32
 271 444 271 444 222 444 c 0,33,34
 174 444 174 444 155 387 c 128,-1,35
 136 330 136 330 136 228 c 256,36,37
 136 126 136 126 155 69 c 128,-1,38
 174 12 174 12 222 12 c 0,26,27
EndSplineSet
Validated: 19457
EndChar

StartChar: r
Encoding: 114 114 82
Width: 410
Flags: W
TeX: 114 0
HStem: 0 24<38 100.812 175.188 238> 432 24<38 100.812> 444 24<271.099 337.321>
VStem: 102 72<24.0044 307.489 328 431.996> 338 52<373 443.415>
AnchorPoint: "Bottom" 152 0 basechar 0
AnchorPoint: "Top" 236 508 basechar 0
LayerCount: 3
Fore
SplineSet
38 0 m 1xb8
 38 24 l 1
 80 24 l 2
 96 24 102 30 102 46 c 2
 102 410 l 2
 102 426 96 432 80 432 c 2
 38 432 l 1
 38 456 l 1
 174 456 l 1xd8
 174 328 l 1
 178 327 l 1
 192 363 203 386 223 415 c 0
 244 446 280 468 314 468 c 0
 369 468 390 425 390 386 c 0
 390 360 376 318 334 318 c 0
 310 318 289 330 289 356 c 0
 289 374 300 391 316 400 c 0
 325 405 338 417 338 427 c 0
 338 437 332 444 310 444 c 0
 287 444 242 438 200 320 c 0
 185 277 174 217 174 178 c 2
 174 46 l 2
 174 30 180 24 196 24 c 2
 238 24 l 1
 238 0 l 1
 38 0 l 1xb8
EndSplineSet
Validated: 1
Layer: 2
SplineSet
38 0 m 1,0,-1
 38 24 l 1,1,-1
 80 24 l 2,2,3
 102 24 102 24 102 46 c 2,4,-1
 102 410 l 2,5,6
 102 432 102 432 80 432 c 2,7,-1
 38 432 l 1,8,-1
 38 456 l 1,9,-1
 174 456 l 1,10,-1
 174 330 l 1,11,-1
 178 329 l 1,12,13
 195 377 195 377 219.5 410.5 c 128,-1,14
 244 444 244 444 264 454 c 0,15,16
 289 468 289 468 314 468 c 0,17,18
 352 468 352 468 371 443.5 c 128,-1,19
 390 419 390 419 390 386 c 0,20,21
 390 362 390 362 376 340 c 128,-1,22
 362 318 362 318 334 318 c 0,23,24
 315 318 315 318 302 327.5 c 128,-1,25
 289 337 289 337 289 356 c 0,26,27
 289 385 289 385 316 400 c 0,28,29
 338 412 338 412 338 427 c 0,30,31
 338 444 338 444 310 444 c 0,32,33
 293 444 293 444 275.5 435 c 128,-1,34
 258 426 258 426 237.5 396.5 c 128,-1,35
 217 367 217 367 200 318 c 0,36,37
 174 244 174 244 174 178 c 2,38,-1
 174 46 l 2,39,40
 174 24 174 24 196 24 c 2,41,-1
 238 24 l 1,42,-1
 238 0 l 1,43,-1
 38 0 l 1,0,-1
EndSplineSet
Validated: 19457
EndChar

StartChar: s
Encoding: 115 115 83
Width: 434
Flags: W
TeX: 115 0
HStem: -12 24<199.855 307.735> 444 24<135.011 238.437>
VStem: 52 48<328.801 418.727> 60 18<-12 8> 334 18<438 458> 346 46<38.0978 140.528>
DStem2: 188 291 168 213 0.92735 -0.374194<-96.3656 205.076>
AnchorPoint: "Bottom" 236 0 basechar 0
AnchorPoint: "Top" 226 508 basechar 0
LayerCount: 3
Fore
SplineSet
52 345 m 0xe4
 52 430 114 468 186 468 c 0
 229 468 265 449 283 436 c 0
 298 425 308 420 316 420 c 0
 326 420 330 427 332 438 c 2
 334 458 l 9
 352 458 l 25
 352 306 l 25
 334 306 l 17
 320 341 l 2
 286 426 223 444 185 444 c 0
 137 444 100 419 100 374 c 0xe8
 100 331 144 309 188 291 c 26
 296 246 l 26
 354 222 392 190 392 118 c 0
 392 24 330 -12 254 -12 c 0
 198 -12 170 9 149 25 c 0
 137 34 126 42 115 42 c 0
 96 42 87 28 82 8 c 2
 78 -12 l 9
 60 -12 l 25
 60 186 l 25
 78 186 l 17xd4
 115 107 l 2
 145 54 190 12 255 12 c 0
 318 12 346 46 346 96 c 0
 346 129 317 153 282 167 c 26
 168 213 l 26
 104 239 52 276 52 345 c 0xe4
EndSplineSet
Validated: 19457
Layer: 2
SplineSet
52 345 m 0,0,1
 52 406 52 406 90 437 c 128,-1,2
 128 468 128 468 186 468 c 0,3,4
 239 468 239 468 283 436 c 0,5,6
 305 420 305 420 316 420 c 0,7,8
 330 420 330 420 332 438 c 2,9,-1
 334 458 l 1,10,-1
 352 458 l 1,11,-1
 352 306 l 1,12,-1
 334 306 l 1,13,-1
 320 341 l 2,14,15
 298 395 298 395 261.5 419.5 c 128,-1,16
 225 444 225 444 185 444 c 256,17,18
 148 444 148 444 124 425.5 c 128,-1,19
 100 407 100 407 100 374 c 0,20,21
 100 351 100 351 112.5 336.5 c 128,-1,22
 125 322 125 322 146 312 c 0,23,24
 182 293 182 293 188 291 c 2,25,-1
 296 246 l 2,26,27
 344 226 344 226 368 198 c 0,28,29
 392 168 392 168 392 118 c 0,30,31
 392 51 392 51 354 19.5 c 128,-1,32
 316 -12 316 -12 254 -12 c 0,33,34
 216 -12 216 -12 188 1.5 c 128,-1,35
 160 15 160 15 144 28.5 c 128,-1,36
 128 42 128 42 117 42 c 0,37,38
 89 42 89 42 82 8 c 2,39,-1
 78 -12 l 1,40,-1
 60 -12 l 1,41,-1
 60 186 l 1,42,-1
 78 186 l 1,43,-1
 112 114 l 2,44,45
 129 77 129 77 166.5 44.5 c 128,-1,46
 204 12 204 12 255 12 c 0,47,48
 301 12 301 12 323.5 34.5 c 128,-1,49
 346 57 346 57 346 96 c 0,50,51
 346 141 346 141 282 167 c 2,52,-1
 168 213 l 2,53,54
 52 260 52 260 52 345 c 0,0,1
EndSplineSet
Validated: 19457
EndChar

StartChar: t
Encoding: 116 116 84
Width: 350
Flags: W
TeX: 116 0
HStem: -12 44<185.004 273.014> 428 28<28 89.7266 174 298>
VStem: 102 72<43.6441 428> 146 28<531.439 648> 298 18<83.7571 152>
AnchorPoint: "Top" 166 684 basechar 0
AnchorPoint: "Bottom" 206 0 basechar 0
LayerCount: 3
Fore
SplineSet
28 428 m 1xe8
 28 456 l 1
 50 456 l 2
 114 456 146 541 146 612 c 2
 146 648 l 1
 174 648 l 1
 174 456 l 1xd8
 298 456 l 1
 298 428 l 1
 174 428 l 1
 174 102 l 2
 174 69 184 32 227 32 c 0
 286 32 298 94 298 152 c 1
 316 152 l 1
 316 99 315 -12 206 -12 c 0
 148 -12 102 32 102 107 c 2
 102 428 l 1
 28 428 l 1xe8
EndSplineSet
Validated: 1
Layer: 2
SplineSet
206 -12 m 0,0,1
 161 -12 161 -12 131.5 20 c 128,-1,2
 102 52 102 52 102 107 c 2,3,-1
 102 428 l 1,4,-1
 28 428 l 1,5,-1
 28 456 l 1,6,-1
 50 456 l 2,7,8
 95 456 95 456 120.5 504.5 c 128,-1,9
 146 553 146 553 146 612 c 2,10,-1
 146 648 l 1,11,-1
 174 648 l 1,12,-1
 174 456 l 1,13,-1
 298 456 l 1,14,-1
 298 428 l 1,15,-1
 174 428 l 1,16,-1
 174 102 l 2,17,18
 174 32 174 32 227 32 c 0,19,20
 298 32 298 32 298 152 c 1,21,-1
 316 152 l 1,22,23
 316 129 316 129 315 114 c 128,-1,24
 314 99 314 99 308.5 72.5 c 128,-1,25
 303 46 303 46 292 30 c 128,-1,26
 281 14 281 14 259 1 c 128,-1,27
 237 -12 237 -12 206 -12 c 0,0,1
EndSplineSet
Validated: 19457
EndChar

StartChar: u
Encoding: 117 117 85
Width: 534
Flags: W
TeX: 117 0
HStem: -12 24<198.076 271.268> 0 24<439.188 502> 432 24<32 94.8125 302 364.812>
VStem: 96 72<44.6194 431.996> 366 72<24 92 107.397 432>
AnchorPoint: "Bottom" 282 0 basechar 0
AnchorPoint: "Top" 282 508 basechar 0
LayerCount: 3
Fore
SplineSet
32 432 m 1xb8
 32 456 l 1
 168 456 l 1
 168 117 l 2
 168 69 180 12 232 12 c 0xb8
 288 12 366 97 366 202 c 2
 366 410 l 2
 366 426 360 432 344 432 c 2
 302 432 l 1
 302 456 l 1
 438 456 l 1
 438 46 l 2
 438 30 444 24 460 24 c 2
 502 24 l 1
 502 0 l 1
 366 0 l 1x78
 366 92 l 1
 362 93 l 1
 327 26 276 -12 223 -12 c 0
 183 -12 161 -2 142 14 c 0
 106 43 96 102 96 137 c 2
 96 410 l 2
 96 426 90 432 74 432 c 2
 32 432 l 1xb8
EndSplineSet
Validated: 1
Layer: 2
SplineSet
223 -12 m 0,0,1
 173 -12 173 -12 142 14 c 0,2,3
 96 51 96 51 96 137 c 2,4,-1
 96 410 l 2,5,6
 96 432 96 432 74 432 c 2,7,-1
 32 432 l 1,8,-1
 32 456 l 1,9,-1
 168 456 l 1,10,-1
 168 117 l 2,11,12
 168 12 168 12 232 12 c 0,13,14
 277 12 277 12 321.5 69.5 c 128,-1,15
 366 127 366 127 366 202 c 2,16,-1
 366 410 l 2,17,18
 366 432 366 432 344 432 c 2,19,-1
 302 432 l 1,20,-1
 302 456 l 1,21,-1
 438 456 l 1,22,-1
 438 46 l 2,23,24
 438 24 438 24 460 24 c 2,25,-1
 502 24 l 1,26,-1
 502 0 l 1,27,-1
 366 0 l 1,28,-1
 366 92 l 1,29,-1
 362 93 l 1,30,31
 336 43 336 43 299.5 15.5 c 128,-1,32
 263 -12 263 -12 223 -12 c 0,0,1
EndSplineSet
Validated: 19457
EndChar

StartChar: v
Encoding: 118 118 86
Width: 530
Flags: W
TeX: 118 0
HStem: -12 21G<255.624 288.857> 432 24<18 77.4712 178.184 234 324 374.828 447.076 506>
DStem2: 292 105 264 -12 0.386277 -0.922383<-324.8 0> 292 105 282 -12 0.324324 0.945946<0 301.902>
AnchorPoint: "Bottom" 268 0 basechar 0
AnchorPoint: "Top" 268 508 basechar 0
LayerCount: 3
Fore
SplineSet
18 432 m 1
 18 456 l 1
 234 456 l 1
 234 432 l 1
 206 432 l 2
 192 432 174 424 174 408 c 0
 174 402 174 391 180 375 c 10
 292 105 l 25
 373 342 l 2
 379 359 384 385 384 393 c 0
 384 415 370 432 348 432 c 2
 324 432 l 1
 324 456 l 1
 506 456 l 1
 506 432 l 1
 483 432 l 2
 456 432 428 415 414 373 c 10
 282 -12 l 25
 264 -12 l 9
 99 382 l 2
 88 409 78 432 47 432 c 2
 18 432 l 1
EndSplineSet
Validated: 19457
Layer: 2
SplineSet
264 -12 m 1,0,-1
 99 382 l 2,1,2
 94 395 94 395 90.5 401.5 c 128,-1,3
 87 408 87 408 80.5 416.5 c 128,-1,4
 74 425 74 425 66 428.5 c 128,-1,5
 58 432 58 432 47 432 c 2,6,-1
 18 432 l 1,7,-1
 18 456 l 1,8,-1
 234 456 l 1,9,-1
 234 432 l 1,10,-1
 206 432 l 2,11,12
 194 432 194 432 184 425.5 c 128,-1,13
 174 419 174 419 174 408 c 0,14,15
 174 391 174 391 180 375 c 2,16,-1
 292 105 l 1,17,-1
 373 342 l 2,18,19
 384 373 384 373 384 393 c 0,20,21
 384 410 384 410 374 421 c 128,-1,22
 364 432 364 432 348 432 c 2,23,-1
 324 432 l 1,24,-1
 324 456 l 1,25,-1
 506 456 l 1,26,-1
 506 432 l 1,27,-1
 483 432 l 2,28,29
 461 432 461 432 442.5 417.5 c 128,-1,30
 424 403 424 403 414 373 c 2,31,-1
 282 -12 l 1,32,-1
 264 -12 l 1,0,-1
EndSplineSet
Validated: 19457
EndChar

StartChar: w
Encoding: 119 119 87
Width: 776
Flags: W
TeX: 119 0
HStem: -12 21G<255.636 288.341 498.683 531.065> 432 24<18 76 178.184 234 290 340.611 441.022 506 570 622.643 693.076 752>
VStem: 367 70<330.719 414.715>
DStem2: 292 105 103 373 0.385806 -0.92258<-324.804 0> 292 105 282 -12 0.302244 0.953231<0 229.543> 442 375 386 316 0.33501 -0.942215<-26.8485 -14.0545 36.8301 286.559> 538 105 524 -12 0.333076 0.9429<0 301.831>
AnchorPoint: "Bottom" 408 0 basechar 0
AnchorPoint: "Top" 408 508 basechar 0
LayerCount: 3
Fore
SplineSet
18 432 m 1
 18 456 l 1
 234 456 l 1
 234 432 l 1
 206 432 l 2
 192 432 174 424 174 408 c 0
 174 402 174 391 180 375 c 2
 292 105 l 1
 365 338 l 2
 367 343 367 357 367 363 c 0
 367 368 358 391 356 396 c 0
 349 411 338 432 313 432 c 2
 290 432 l 1
 290 456 l 1
 506 456 l 1
 506 432 l 1
 466 432 l 2
 439 432 437 413 437 402 c 0
 437 396 437 388 442 375 c 2
 538 105 l 1
 619 342 l 2
 625 359 630 385 630 393 c 0
 630 415 621 432 594 432 c 2
 570 432 l 1
 570 456 l 1
 752 456 l 1
 752 432 l 1
 729 432 l 2
 702 432 674 415 660 373 c 2
 524 -12 l 1
 506 -12 l 1
 386 316 l 1
 282 -12 l 1
 264 -12 l 1
 103 373 l 2
 87 411 77 432 41 432 c 2
 18 432 l 1
EndSplineSet
Validated: 1
Layer: 2
SplineSet
264 -12 m 1,0,-1
 103 373 l 2,1,2
 99 382 99 382 95.5 390.5 c 128,-1,3
 92 399 92 399 88.5 405.5 c 128,-1,4
 85 412 85 412 81 417 c 128,-1,5
 77 422 77 422 71.5 425.5 c 128,-1,6
 66 429 66 429 58.5 430.5 c 128,-1,7
 51 432 51 432 41 432 c 2,8,-1
 18 432 l 1,9,-1
 18 456 l 1,10,-1
 234 456 l 1,11,-1
 234 432 l 1,12,-1
 206 432 l 2,13,14
 194 432 194 432 184 425.5 c 128,-1,15
 174 419 174 419 174 408 c 0,16,17
 174 391 174 391 180 375 c 2,18,-1
 292 105 l 1,19,-1
 363 342 l 2,20,21
 367 352 367 352 367 363 c 0,22,23
 367 368 367 368 356 396 c 0,24,25
 339 432 339 432 313 432 c 2,26,-1
 290 432 l 1,27,-1
 290 456 l 1,28,-1
 506 456 l 1,29,-1
 506 432 l 1,30,-1
 466 432 l 2,31,32
 452 432 452 432 445 426 c 128,-1,33
 438 420 438 420 437.5 415.5 c 128,-1,34
 437 411 437 411 437 402 c 0,35,36
 437 388 437 388 442 375 c 2,37,-1
 538 105 l 1,38,-1
 619 342 l 2,39,40
 630 373 630 373 630 393 c 0,41,42
 630 432 630 432 594 432 c 2,43,-1
 570 432 l 1,44,-1
 570 456 l 1,45,-1
 752 456 l 1,46,-1
 752 432 l 1,47,-1
 729 432 l 2,48,49
 680 432 680 432 660 373 c 2,50,-1
 524 -12 l 1,51,-1
 506 -12 l 1,52,-1
 386 316 l 1,53,-1
 282 -12 l 1,54,-1
 264 -12 l 1,0,-1
EndSplineSet
Validated: 19457
EndChar

StartChar: x
Encoding: 120 120 88
Width: 520
Flags: W
TeX: 120 0
HStem: 0 24<34 95.9171 160.691 200 274 326.163 420.386 482> 432 24<38 94.4582 193.156 236 294 339.078 403.512 468>
DStem2: 133 79 172 89 0.559806 0.828624<-6.88357 151.876 240.739 390.13> 267 279 224 215 0.530874 -0.847451<-152.208 0 29.6803 31.4092 61.0895 233.342>
AnchorPoint: "Bottom" 260 0 basechar 0
AnchorPoint: "Top" 260 508 basechar 0
LayerCount: 3
Fore
SplineSet
34 0 m 1
 34 24 l 1
 60 24 l 2
 96 24 117 55 133 79 c 2
 224 215 l 1
 102 410 l 2
 93 424 86 432 62 432 c 2
 38 432 l 1
 38 456 l 1
 236 456 l 1
 236 432 l 1
 212 432 l 2
 198 432 192 424 192 412 c 0
 192 404 195 396 198 391 c 2
 267 279 l 1
 333 377 l 2
 340 387 342 401 342 409 c 0
 342 425 328 432 318 432 c 2
 294 432 l 1
 294 456 l 1
 468 456 l 1
 468 432 l 1
 443 432 l 2
 416 432 396 421 374 388 c 2
 283 254 l 1
 410 50 l 2
 420 34 427 24 459 24 c 2
 482 24 l 1
 482 0 l 1
 274 0 l 1
 274 24 l 1
 304 24 l 2
 319 24 327 31 327 41 c 0
 327 46 323 57 320 62 c 2
 240 190 l 1
 172 89 l 2
 167 81 157 64 157 54 c 0
 157 34 166 24 182 24 c 2
 200 24 l 1
 200 0 l 1
 34 0 l 1
EndSplineSet
Validated: 1
Layer: 2
SplineSet
34 0 m 1,0,-1
 34 24 l 1,1,-1
 60 24 l 2,2,3
 74 24 74 24 85 29.5 c 128,-1,4
 96 35 96 35 104.5 43 c 128,-1,5
 113 51 113 51 118 57.5 c 128,-1,6
 123 64 123 64 133 79 c 2,7,-1
 224 215 l 1,8,-1
 102 410 l 2,9,10
 97 417 97 417 94.5 422 c 128,-1,11
 92 427 92 427 85.5 429.5 c 128,-1,12
 79 432 79 432 68 432 c 2,13,-1
 38 432 l 1,14,-1
 38 456 l 1,15,-1
 236 456 l 1,16,-1
 236 432 l 1,17,-1
 212 432 l 2,18,19
 192 432 192 432 192 412 c 0,20,21
 192 401 192 401 198 391 c 2,22,-1
 267 279 l 1,23,-1
 333 377 l 2,24,25
 342 390 342 390 342 409 c 0,26,27
 342 420 342 420 334.5 426 c 128,-1,28
 327 432 327 432 318 432 c 2,29,-1
 294 432 l 1,30,-1
 294 456 l 1,31,-1
 468 456 l 1,32,-1
 468 432 l 1,33,-1
 443 432 l 2,34,35
 403 432 403 432 374 388 c 2,36,-1
 283 254 l 1,37,-1
 410 50 l 2,38,39
 416 40 416 40 420 35.5 c 128,-1,40
 424 31 424 31 434 27.5 c 128,-1,41
 444 24 444 24 459 24 c 2,42,-1
 482 24 l 1,43,-1
 482 0 l 1,44,-1
 274 0 l 1,45,-1
 274 24 l 1,46,-1
 304 24 l 2,47,48
 327 24 327 24 327 41 c 0,49,50
 327 50 327 50 320 62 c 2,51,-1
 240 190 l 1,52,-1
 172 89 l 2,53,54
 157 65 157 65 157 54 c 0,55,56
 157 24 157 24 182 24 c 2,57,-1
 200 24 l 1,58,-1
 200 0 l 1,59,-1
 34 0 l 1,0,-1
EndSplineSet
Validated: 19457
EndChar

StartChar: y
Encoding: 121 121 89
Width: 530
Flags: W
TeX: 121 0
HStem: -238 32<124.099 186.506> 432 24<18 84.8576 184.184 244 324 374.828 447.076 506>
VStem: 42 82<-205.7 -126.379>
DStem2: 290 68 110 373 0.325144 -0.945665<-357.022 0> 225 -127 253 -139 0.299972 0.953948<-64.3578 91.0927 205.518 543.377>
AnchorPoint: "Bottom" 388 0 basechar 0
AnchorPoint: "Top" 296 508 basechar 0
LayerCount: 3
Fore
SplineSet
18 432 m 1
 18 456 l 1
 244 456 l 1
 244 432 l 1
 212 432 l 2
 198 432 180 424 180 408 c 0
 180 402 180 391 186 375 c 10
 290 68 l 25
 373 342 l 2
 379 359 384 385 384 393 c 0
 384 415 370 432 348 432 c 2
 324 432 l 1
 324 456 l 1
 506 456 l 1
 506 432 l 1
 483 432 l 2
 456 432 428 415 414 373 c 10
 253 -139 l 18
 241 -179 202 -238 134 -238 c 0
 107 -238 87 -230 70 -213 c 0
 54 -198 42 -175 42 -150 c 0
 42 -132 49 -116 58 -108 c 0
 70 -96 82 -93 92 -93 c 0
 125 -93 138 -118 138 -144 c 0
 138 -152 134 -164 130 -172 c 0
 127 -177 124 -185 124 -191 c 0
 124 -197 127 -206 144 -206 c 0
 188 -206 214 -164 225 -127 c 2
 252 -40 l 9
 110 373 l 2
 97 409 87 432 51 432 c 2
 18 432 l 1
EndSplineSet
Validated: 1
Layer: 2
SplineSet
134 -238 m 0,0,1
 95 -238 95 -238 70 -213 c 0,2,3
 42 -187 42 -187 42 -150 c 0,4,5
 42 -122 42 -122 58 -108 c 0,6,7
 73 -93 73 -93 92 -93 c 0,8,9
 115 -93 115 -93 126.5 -107.5 c 128,-1,10
 138 -122 138 -122 138 -144 c 0,11,12
 138 -156 138 -156 130 -172 c 0,13,14
 124 -182 124 -182 124 -191 c 0,15,16
 124 -206 124 -206 144 -206 c 0,17,18
 174 -206 174 -206 194.5 -182.5 c 128,-1,19
 215 -159 215 -159 225 -127 c 2,20,-1
 252 -40 l 1,21,-1
 110 373 l 2,22,23
 102 395 102 395 96.5 405.5 c 128,-1,24
 91 416 91 416 79.5 424 c 128,-1,25
 68 432 68 432 51 432 c 2,26,-1
 18 432 l 1,27,-1
 18 456 l 1,28,-1
 244 456 l 1,29,-1
 244 432 l 1,30,-1
 212 432 l 2,31,32
 200 432 200 432 190 425.5 c 128,-1,33
 180 419 180 419 180 408 c 0,34,35
 180 391 180 391 186 375 c 2,36,-1
 290 68 l 1,37,-1
 373 342 l 2,38,39
 384 373 384 373 384 393 c 0,40,41
 384 410 384 410 374 421 c 128,-1,42
 364 432 364 432 348 432 c 2,43,-1
 324 432 l 1,44,-1
 324 456 l 1,45,-1
 506 456 l 1,46,-1
 506 432 l 1,47,-1
 483 432 l 2,48,49
 434 432 434 432 414 373 c 2,50,-1
 253 -139 l 2,51,52
 242 -176 242 -176 211 -207 c 128,-1,53
 180 -238 180 -238 134 -238 c 0,0,1
EndSplineSet
Validated: 19457
EndChar

StartChar: z
Encoding: 122 122 90
Width: 440
Flags: W
TeX: 122 0
HStem: 0 24<123 300.666> 432 24<126.927 300>
VStem: 40 20<280 328.633> 368 20<127.367 176>
DStem2: 40 26 123 24 0.539289 0.842121<43.0768 482.116>
AnchorPoint: "Bottom" 220 0 basechar 0
AnchorPoint: "Top" 220 508 basechar 0
LayerCount: 3
Fore
SplineSet
40 0 m 25
 40 26 l 25
 300 432 l 25
 178 432 l 18
 133 432 105 411 90 382 c 0
 66 334 60 280 60 280 c 1
 40 280 l 1
 46 456 l 9
 382 456 l 25
 382 424 l 25
 123 24 l 25
 250 24 l 18
 294 24 323 45 338 74 c 0
 362 122 368 176 368 176 c 1
 388 176 l 1
 382 0 l 9
 40 0 l 25
EndSplineSet
Validated: 1
Layer: 2
SplineSet
40 0 m 25,0,-1
 40 26 l 1,1,-1
 300 432 l 1,2,-1
 178 432 l 2,3,4
 115 432 115 432 90 382 c 0,5,6
 75 352 75 352 68 316 c 2,7,-1
 60 280 l 1,8,-1
 40 280 l 1,9,-1
 46 456 l 1,10,-1
 382 456 l 1,11,-1
 382 424 l 1,12,-1
 123 24 l 1,13,-1
 250 24 l 2,14,15
 313 24 313 24 338 74 c 0,16,17
 353 104 353 104 360 140 c 2,18,-1
 368 176 l 1,19,-1
 388 176 l 1,20,-1
 382 0 l 1,21,-1
 40 0 l 25,0,-1
EndSplineSet
Validated: 19457
EndChar

StartChar: braceleft
Encoding: 123 123 91
Width: 420
Flags: W
TeX: 98 0
HStem: -196 24<306.66 327.5> 258 18<104 167.737> 706 24<306.66 327.5>
VStem: 174 60<-107.191 34.3255 495.588 641.191> 210 60<62.3289 210.125 320.416 468.087>
CounterMasks: 1 e0
LayerCount: 3
Fore
SplineSet
104 258 m 9xe8
 104 276 l 17
 168 276 210 282 210 354 c 0xe8
 210 418 174 490 174 562 c 0
 174 645 229 699 324 730 c 9
 336 706 l 17
 282 687 234 668 234 612 c 0xf0
 234 540 270 478 270 406 c 0
 270 314 220 282 176 268 c 1
 176 266 l 1
 220 252 270 214 270 122 c 0xe8
 270 50 234 -6 234 -78 c 0
 234 -134 282 -153 336 -172 c 9
 324 -196 l 17
 229 -165 174 -111 174 -28 c 0xf0
 174 44 210 110 210 174 c 0
 210 246 168 258 104 258 c 9xe8
EndSplineSet
Validated: 1
Layer: 2
SplineSet
104 276 m 17,0,1
 160 276 160 276 185 290 c 128,-1,2
 210 304 210 304 210 354 c 0,3,4
 210 385 210 385 192 455 c 128,-1,5
 174 525 174 525 174 562 c 0,6,7
 174 681 174 681 324 730 c 1,8,-1
 336 706 l 1,9,10
 311 697 311 697 296.5 690.5 c 128,-1,11
 282 684 282 684 265.5 673 c 128,-1,12
 249 662 249 662 241.5 647 c 128,-1,13
 234 632 234 632 234 612 c 0,14,15
 234 576 234 576 252 509 c 128,-1,16
 270 442 270 442 270 406 c 0,17,18
 270 298 270 298 176 268 c 1,19,-1
 176 266 l 1,20,21
 270 236 270 236 270 122 c 0,22,23
 270 86 270 86 252 22 c 128,-1,24
 234 -42 234 -42 234 -78 c 0,25,26
 234 -116 234 -116 259.5 -135 c 128,-1,27
 285 -154 285 -154 336 -172 c 1,28,-1
 324 -196 l 1,29,30
 174 -147 174 -147 174 -28 c 0,31,32
 174 9 174 9 192 76 c 128,-1,33
 210 143 210 143 210 174 c 0,34,35
 210 224 210 224 184 241 c 128,-1,36
 158 258 158 258 104 258 c 1,37,-1
 104 276 l 17,0,1
EndSplineSet
Validated: 19457
EndChar

StartChar: bar
Encoding: 124 124 92
Width: 284
Flags: W
TeX: 98 0
HStem: 710 20G<120 164>
VStem: 120 44<-198 730>
LayerCount: 3
Fore
SplineSet
120 -198 m 25
 120 730 l 25
 164 730 l 25
 164 -198 l 25
 120 -198 l 25
EndSplineSet
Validated: 1
Layer: 2
SplineSet
120 730 m 25,0,-1
 164 730 l 1,1,-1
 164 -198 l 1,2,-1
 120 -198 l 1,3,-1
 120 730 l 25,0,-1
EndSplineSet
Validated: 19457
EndChar

StartChar: braceright
Encoding: 125 125 93
Width: 420
Flags: W
TeX: 98 0
HStem: -196 24<92.5 113.34> 258 18<246.308 316> 706 24<92.5 113.34>
VStem: 150 60<65.9129 213.584 320.416 468.087> 186 60<-107.191 38.4116 495.588 641.191>
CounterMasks: 1 e0
LayerCount: 3
Fore
SplineSet
84 -172 m 17xe8
 138 -153 186 -134 186 -78 c 0xe8
 186 -6 150 56 150 128 c 0
 150 220 200 252 244 266 c 1
 244 268 l 1
 200 282 150 314 150 406 c 0xf0
 150 478 186 540 186 612 c 0
 186 668 138 687 84 706 c 9
 96 730 l 17
 191 699 246 645 246 562 c 0xe8
 246 490 210 418 210 354 c 0
 210 282 252 276 316 276 c 9
 316 258 l 17
 252 258 210 252 210 180 c 0xf0
 210 116 246 44 246 -28 c 0
 246 -111 191 -165 96 -196 c 9
 84 -172 l 17xe8
EndSplineSet
Validated: 1
Layer: 2
SplineSet
316 258 m 17,0,1
 260 258 260 258 235 244 c 128,-1,2
 210 230 210 230 210 180 c 0,3,4
 210 149 210 149 228 79 c 128,-1,5
 246 9 246 9 246 -28 c 0,6,7
 246 -147 246 -147 96 -196 c 1,8,-1
 84 -172 l 1,9,10
 109 -163 109 -163 123.5 -156.5 c 128,-1,11
 138 -150 138 -150 154.5 -139 c 128,-1,12
 171 -128 171 -128 178.5 -113 c 128,-1,13
 186 -98 186 -98 186 -78 c 0,14,15
 186 -42 186 -42 168 25 c 128,-1,16
 150 92 150 92 150 128 c 0,17,18
 150 236 150 236 244 266 c 1,19,-1
 244 268 l 1,20,21
 150 298 150 298 150 406 c 0,22,23
 150 442 150 442 168 509 c 128,-1,24
 186 576 186 576 186 612 c 0,25,26
 186 650 186 650 160.5 669 c 128,-1,27
 135 688 135 688 84 706 c 1,28,-1
 96 730 l 1,29,30
 246 681 246 681 246 562 c 0,31,32
 246 525 246 525 228 455 c 128,-1,33
 210 385 210 385 210 354 c 0,34,35
 210 304 210 304 235 290 c 128,-1,36
 260 276 260 276 316 276 c 1,37,-1
 316 258 l 17,0,1
EndSplineSet
Validated: 19457
EndChar

StartChar: asciitilde
Encoding: 126 126 94
Width: 660
Flags: W
TeX: 97 0
HStem: 170 62<451.115 572.243> 290 62<87.7566 208.517>
VStem: 48 34<201.963 280.939> 578 34<241.061 320.037>
LayerCount: 3
Fore
SplineSet
48 253 m 0
 48 301 85 352 162 352 c 0
 225 352 300 319 370 288 c 0
 434 259 494 232 538 232 c 0
 558 232 578 249 578 278 c 0
 578 308 561 325 536 338 c 9
 548 359 l 17
 590 340 612 307 612 269 c 0
 612 221 575 170 498 170 c 0
 434 170 360 202 290 234 c 0
 226 263 165 290 122 290 c 0
 102 290 82 273 82 244 c 0
 82 214 99 197 124 184 c 9
 112 163 l 17
 70 182 48 215 48 253 c 0
EndSplineSet
Validated: 19457
Layer: 2
SplineSet
122 290 m 0,0,1
 106 290 106 290 94 277.5 c 128,-1,2
 82 265 82 265 82 244 c 0,3,4
 82 206 82 206 124 184 c 1,5,-1
 112 163 l 1,6,7
 48 192 48 192 48 253 c 0,8,9
 48 293 48 293 78 322.5 c 128,-1,10
 108 352 108 352 162 352 c 0,11,12
 225 352 225 352 370 288 c 0,13,14
 494 232 494 232 538 232 c 0,15,16
 554 232 554 232 566 244.5 c 128,-1,17
 578 257 578 257 578 278 c 0,18,19
 578 316 578 316 536 338 c 1,20,-1
 548 359 l 1,21,22
 612 330 612 330 612 269 c 0,23,24
 612 229 612 229 582 199.5 c 128,-1,25
 552 170 552 170 498 170 c 0,26,27
 468 170 468 170 428.5 181 c 128,-1,28
 389 192 389 192 363.5 202.5 c 128,-1,29
 338 213 338 213 290 234 c 0,30,31
 271 242 271 242 253 250 c 128,-1,32
 235 258 235 258 216.5 265.5 c 128,-1,33
 198 273 198 273 182 278.5 c 128,-1,34
 166 284 166 284 150 287 c 128,-1,35
 134 290 134 290 122 290 c 0,0,1
EndSplineSet
Validated: 19457
EndChar

StartChar: exclamdown
Encoding: 161 161 96
Width: 280
Flags: W
TeX: 101 0
HStem: -238 21G<121.5 158.5> 344 124<91.5898 188.41>
VStem: 78 124<-222.927 9.31541 357.59 454.41>
LayerCount: 3
Fore
SplineSet
78 -166 m 0
 78 -78 104 4 112 100 c 10
 128 300 l 25
 152 300 l 25
 168 100 l 18
 176 4 202 -78 202 -166 c 0
 202 -210 177 -238 140 -238 c 24
 103 -238 78 -210 78 -166 c 0
78 406 m 0
 78 442 104 468 140 468 c 0
 176 468 202 442 202 406 c 0
 202 370 176 344 140 344 c 0
 104 344 78 370 78 406 c 0
EndSplineSet
Validated: 1
Layer: 2
SplineSet
128 300 m 25,0,-1
 152 300 l 1,1,-1
 168 100 l 2,2,3
 171 61 171 61 186.5 -28 c 128,-1,4
 202 -117 202 -117 202 -166 c 0,5,6
 202 -199 202 -199 185 -218.5 c 128,-1,7
 168 -238 168 -238 140 -238 c 256,8,9
 112 -238 112 -238 95 -218.5 c 128,-1,10
 78 -199 78 -199 78 -166 c 0,11,12
 78 -117 78 -117 93.5 -28 c 128,-1,13
 109 61 109 61 112 100 c 2,14,-1
 128 300 l 25,0,-1
140 468 m 256,15,16
 167 468 167 468 184.5 450.5 c 128,-1,17
 202 433 202 433 202 406 c 256,18,19
 202 379 202 379 184.5 361.5 c 128,-1,20
 167 344 167 344 140 344 c 256,21,22
 113 344 113 344 95.5 361.5 c 128,-1,23
 78 379 78 379 78 406 c 256,24,25
 78 433 78 433 95.5 450.5 c 128,-1,26
 113 468 113 468 140 468 c 256,15,16
EndSplineSet
Validated: 19457
EndChar

StartChar: cent
Encoding: 162 162 97
Width: 580
VWidth: 959
Flags: W
TeX: 99 0
HStem: -12 24<322 364.177> 442 25<266.394 290 322 367.229>
VStem: 112 88<112.001 336.694> 290 32<-120 -11 15 442 465.761 576> 406 52<315 403.953> 442 24<104.619 156>
LayerCount: 3
Fore
SplineSet
112 228 m 0xf4
 112 353 187 456 290 467 c 1
 290 576 l 1
 322 576 l 1
 322 467 l 1
 410 461 458 394 458 337 c 0
 458 293 432 271 403 271 c 0
 376 271 356 291 356 315 c 0
 356 341 374 356 390 361 c 0
 402 365 406 371 406 379 c 0xf8
 406 398 383 438 322 443 c 1
 322 12 l 1
 405 17 434 93 442 156 c 1
 466 156 l 1
 461 83 421 -7 322 -12 c 1
 322 -120 l 1
 290 -120 l 1
 290 -11 l 1
 174 2 112 104 112 228 c 0xf4
200 228 m 0
 200 145 218 35 290 15 c 1
 290 442 l 1
 221 425 200 313 200 228 c 0
EndSplineSet
Validated: 1
Layer: 2
SplineSet
112 228 m 0,0,1
 112 322 112 322 162.5 390.5 c 128,-1,2
 213 459 213 459 290 467 c 1,3,-1
 290 576 l 1,4,-1
 322 576 l 1,5,-1
 322 467 l 1,6,7
 384 463 384 463 421 423.5 c 128,-1,8
 458 384 458 384 458 337 c 0,9,10
 458 306 458 306 442 288.5 c 128,-1,11
 426 271 426 271 403 271 c 0,12,13
 383 271 383 271 369.5 284 c 128,-1,14
 356 297 356 297 356 315 c 0,15,16
 356 350 356 350 390 361 c 0,17,18
 406 366 406 366 406 379 c 0,19,20
 406 398 406 398 384.5 419 c 128,-1,21
 363 440 363 440 322 443 c 1,22,-1
 322 12 l 1,23,24
 378 15 378 15 406.5 57 c 128,-1,25
 435 99 435 99 442 156 c 1,26,-1
 466 156 l 1,27,28
 463 116 463 116 449 80.5 c 128,-1,29
 435 45 435 45 402 17.5 c 128,-1,30
 369 -10 369 -10 322 -12 c 1,31,-1
 322 -120 l 1,32,-1
 290 -120 l 1,33,-1
 290 -11 l 1,34,35
 206 -2 206 -2 159 65 c 128,-1,36
 112 132 112 132 112 228 c 0,0,1
200 228 m 256,37,38
 200 152 200 152 220.5 90.5 c 128,-1,39
 241 29 241 29 290 15 c 1,40,-1
 290 442 l 1,41,42
 243 430 243 430 221.5 367 c 128,-1,43
 200 304 200 304 200 228 c 256,37,38
EndSplineSet
Validated: 19457
EndChar

StartChar: sterling
Encoding: 163 163 98
Width: 720
VWidth: 1080
Flags: W
TeX: 115 0
HStem: -18 66<376.91 546.011> -12 24<112.838 199.602> 122 24<114.731 199.823> 328 28<358.287 479.926> 362 28<142.387 265.922> 674 26<435.309 539.52>
VStem: 64 28<29.5198 101.847> 266 91<217.851 337 380 544.992> 276 81<143.852 335.565> 565 62<556 641.557> 620 18<142.755 163.722>
LayerCount: 3
Fore
SplineSet
64 66 m 0x7f20
 64 116 116 146 156 146 c 0
 196 146 234 133 267 117 c 1
 275 152 276 171 276 216 c 0x7ea0
 276 255 272 326 269 353 c 1
 240 358 215 362 204 362 c 0
 166 362 152 354 128 340 c 1
 114 362 l 1
 130 376 152 390 196 390 c 0
 209 390 236 386 267 380 c 1
 266 394 266 409 266 430 c 0
 266 582 366 700 484 700 c 0
 597 700 627 612 627 577 c 0
 627 535 609 502 567 502 c 0
 540 502 517 521 517 549 c 0
 517 568 525 585 542 594 c 0
 557 602 565 607 565 623 c 0
 565 643 546 674 484 674 c 0
 428 674 357 626 357 502 c 2x7f40
 357 364 l 1x7e80
 383 359 406 356 418 356 c 0
 456 356 474 366 494 378 c 1
 508 356 l 1
 495 343 470 328 426 328 c 0
 412 328 386 332 357 337 c 1
 357 272 l 2
 357 192 339 138 309 95 c 1
 362 63 441 48 499 48 c 0
 564 48 608 117 620 168 c 1
 638 161 l 1
 623 85 585 -18 459 -18 c 0xbf20
 403 -18 332 24 279 57 c 1
 256 30 206 -12 162 -12 c 0
 112 -12 64 10 64 66 c 0x7f20
92 66 m 0
 92 18 134 12 162 12 c 0
 195 12 231 41 251 79 c 1
 219 102 188 122 150 122 c 0
 116 122 92 96 92 66 c 0
EndSplineSet
Validated: 19457
Layer: 2
SplineSet
162 -12 m 0,0,1
 121 -12 121 -12 92.5 7.5 c 128,-1,2
 64 27 64 27 64 66 c 0,3,4
 64 101 64 101 93.5 123.5 c 128,-1,5
 123 146 123 146 156 146 c 0,6,7
 207 146 207 146 267 117 c 1,8,9
 276 156 276 156 276 216 c 0,10,11
 276 258 276 258 269 353 c 1,12,13
 217 362 217 362 204 362 c 0,14,15
 183 362 183 362 170.5 359.5 c 128,-1,16
 158 357 158 357 149.5 352 c 128,-1,17
 141 347 141 347 128 340 c 1,18,-1
 114 362 l 1,19,20
 146 390 146 390 196 390 c 0,21,22
 215 390 215 390 267 380 c 1,23,24
 266 394 266 394 266 430 c 0,25,26
 266 543 266 543 330.5 621.5 c 128,-1,27
 395 700 395 700 484 700 c 0,28,29
 536 700 536 700 570.5 675.5 c 128,-1,30
 605 651 605 651 616 625 c 128,-1,31
 627 599 627 599 627 577 c 0,32,33
 627 543 627 543 612 522.5 c 128,-1,34
 597 502 597 502 567 502 c 0,35,36
 546 502 546 502 531.5 515 c 128,-1,37
 517 528 517 528 517 549 c 0,38,39
 517 581 517 581 542 594 c 0,40,41
 555 601 555 601 560 606 c 128,-1,42
 565 611 565 611 565 623 c 0,43,44
 565 642 565 642 545.5 658 c 128,-1,45
 526 674 526 674 484 674 c 0,46,47
 435 674 435 674 396 630.5 c 128,-1,48
 357 587 357 587 357 502 c 2,49,-1
 357 364 l 1,50,51
 399 356 399 356 418 356 c 0,52,53
 434 356 434 356 445.5 358 c 128,-1,54
 457 360 457 360 465 363 c 128,-1,55
 473 366 473 366 480 370 c 2,56,-1
 494 378 l 1,57,-1
 508 356 l 1,58,59
 480 328 480 328 426 328 c 0,60,61
 409 328 409 328 357 337 c 1,62,-1
 357 272 l 2,63,64
 357 164 357 164 309 95 c 1,65,66
 387 48 387 48 499 48 c 0,67,68
 544 48 544 48 577 85.5 c 128,-1,69
 610 123 610 123 620 168 c 1,70,-1
 638 161 l 1,71,72
 603 -18 603 -18 459 -18 c 0,73,74
 399 -18 399 -18 279 57 c 1,75,76
 257 32 257 32 224.5 10 c 128,-1,77
 192 -12 192 -12 162 -12 c 0,0,1
162 12 m 0,78,79
 186 12 186 12 211 31 c 128,-1,80
 236 50 236 50 251 79 c 1,81,82
 242 85 242 85 233.5 91 c 128,-1,83
 225 97 225 97 215 102.5 c 128,-1,84
 205 108 205 108 195.5 112.5 c 128,-1,85
 186 117 186 117 174 119.5 c 128,-1,86
 162 122 162 122 150 122 c 0,87,88
 125 122 125 122 108.5 105.5 c 128,-1,89
 92 89 92 89 92 66 c 0,90,91
 92 12 92 12 162 12 c 0,78,79
EndSplineSet
Validated: 19457
EndChar

StartChar: currency
Encoding: 164 164 99
Width: 580
Flags: W
TeX: 99 0
HStem: 122 40<205.82 374.18> 524 40<205.82 374.18>
VStem: 70 40<257.046 427.474> 470 40<257.046 427.474>
DStem2: 83 581 52 550 0.707107 -0.707107<0 97.8053 531.52 629.325> 52 136 83 105 0.707107 0.707107<0 97.8053 531.52 629.325>
LayerCount: 3
Fore
SplineSet
110 342 m 0
 110 238 186 162 290 162 c 0
 394 162 470 238 470 342 c 0
 470 446 394 524 290 524 c 0
 186 524 110 446 110 342 c 0
52 136 m 1
 119 203 l 1
 88 241 70 289 70 342 c 0
 70 395 89 444 120 482 c 1
 52 550 l 1
 83 581 l 1
 150 514 l 1
 188 545 237 564 290 564 c 0
 343 564 392 545 430 514 c 1
 497 581 l 1
 528 550 l 1
 460 482 l 1
 491 444 510 395 510 342 c 0
 510 289 492 241 461 203 c 1
 528 136 l 1
 497 105 l 1
 430 172 l 1
 392 141 343 122 290 122 c 0
 237 122 188 141 150 172 c 1
 83 105 l 1
 52 136 l 1
EndSplineSet
Validated: 1
Layer: 2
SplineSet
290 162 m 256,0,1
 368 162 368 162 419 213 c 128,-1,2
 470 264 470 264 470 342 c 256,3,4
 470 420 470 420 419 472 c 128,-1,5
 368 524 368 524 290 524 c 256,6,7
 212 524 212 524 161 472 c 128,-1,8
 110 420 110 420 110 342 c 256,9,10
 110 264 110 264 161 213 c 128,-1,11
 212 162 212 162 290 162 c 256,0,1
290 122 m 256,12,13
 211 122 211 122 150 172 c 1,14,-1
 83 105 l 1,15,-1
 52 136 l 1,16,-1
 119 203 l 1,17,18
 70 263 70 263 70 342 c 256,19,20
 70 421 70 421 120 482 c 1,21,-1
 52 550 l 1,22,-1
 83 581 l 1,23,-1
 150 514 l 1,24,25
 211 564 211 564 290 564 c 256,26,27
 369 564 369 564 430 514 c 1,28,-1
 497 581 l 1,29,-1
 528 550 l 1,30,-1
 460 482 l 1,31,32
 510 421 510 421 510 342 c 256,33,34
 510 263 510 263 461 203 c 1,35,-1
 528 136 l 1,36,-1
 497 105 l 1,37,-1
 430 172 l 1,38,39
 369 122 369 122 290 122 c 256,12,13
EndSplineSet
Validated: 19457
EndChar

StartChar: yen
Encoding: 165 165 100
Width: 580
VWidth: 1080
Flags: W
TeX: 121 0
HStem: 0 32<136 236.297 327.562 428> 206 32<98 238 326 466> 298 32<98 232 326 466> 652 32<14 79.8738 182.034 242 364 435.215 507.072 564>
VStem: 238 88<32.4238 206 238 298>
DStem2: 311 364 232 330 0.440859 -0.897576<-299.858 -4.31027> 311 364 326 330 0.485042 0.874491<0 283.067>
LayerCount: 3
Fore
SplineSet
14 652 m 1
 14 684 l 1
 242 684 l 1
 242 652 l 1
 209 652 l 2
 187 652 182 644 182 635 c 0
 182 629 186 619 190 610 c 2
 311 364 l 1
 420 562 l 2
 425 571 440 599 440 617 c 0
 440 629 434 652 406 652 c 2
 364 652 l 1
 364 684 l 1
 564 684 l 1
 564 652 l 1
 542 652 l 2
 508 652 482 609 463 577 c 2
 326 330 l 1
 466 330 l 1
 466 298 l 1
 326 298 l 1
 326 238 l 1
 466 238 l 1
 466 206 l 1
 326 206 l 1
 326 60 l 2
 326 41 334 32 354 32 c 2
 428 32 l 1
 428 0 l 1
 136 0 l 1
 136 32 l 1
 210 32 l 2
 229 32 238 41 238 60 c 2
 238 206 l 1
 98 206 l 1
 98 238 l 1
 238 238 l 1
 238 298 l 1
 98 298 l 1
 98 330 l 1
 232 330 l 1
 93 613 l 2
 83 634 73 652 49 652 c 2
 14 652 l 1
EndSplineSet
Validated: 19457
Layer: 2
SplineSet
136 0 m 1,0,-1
 136 32 l 1,1,-1
 210 32 l 2,2,3
 238 32 238 32 238 60 c 2,4,-1
 238 206 l 1,5,-1
 98 206 l 1,6,-1
 98 238 l 1,7,-1
 238 238 l 1,8,-1
 238 298 l 1,9,-1
 98 298 l 1,10,-1
 98 330 l 1,11,-1
 232 330 l 1,12,-1
 93 613 l 2,13,14
 83 633 83 633 74 642 c 0,15,16
 65 652 65 652 49 652 c 2,17,-1
 14 652 l 1,18,-1
 14 684 l 1,19,-1
 242 684 l 1,20,-1
 242 652 l 1,21,-1
 209 652 l 2,22,23
 182 652 182 652 182 635 c 0,24,25
 182 626 182 626 191 608 c 2,26,-1
 311 364 l 1,27,-1
 420 562 l 2,28,29
 440 598 440 598 440 617 c 0,30,31
 440 630 440 630 432.5 641 c 128,-1,32
 425 652 425 652 406 652 c 2,33,-1
 364 652 l 1,34,-1
 364 684 l 1,35,-1
 564 684 l 1,36,-1
 564 652 l 1,37,-1
 536 652 l 2,38,39
 509 652 509 652 499.5 639 c 128,-1,40
 490 626 490 626 463 577 c 2,41,-1
 326 330 l 1,42,-1
 466 330 l 1,43,-1
 466 298 l 1,44,-1
 326 298 l 1,45,-1
 326 238 l 1,46,-1
 466 238 l 1,47,-1
 466 206 l 1,48,-1
 326 206 l 1,49,-1
 326 60 l 2,50,51
 326 32 326 32 354 32 c 2,52,-1
 428 32 l 1,53,-1
 428 0 l 1,54,-1
 136 0 l 1,0,-1
EndSplineSet
Validated: 19457
EndChar

StartChar: brokenbar
Encoding: 166 166 101
Width: 284
Flags: W
TeX: 98 0
HStem: -168 21G<120 164> 710 20G<120 164>
VStem: 120 44<-168 192 370 730>
LayerCount: 3
Fore
SplineSet
120 -168 m 17
 120 192 l 1
 164 192 l 1
 164 -168 l 9
 120 -168 l 17
120 370 m 1
 120 730 l 9
 164 730 l 17
 164 370 l 1
 120 370 l 1
EndSplineSet
Validated: 1
Layer: 2
SplineSet
120 -168 m 1,0,-1
 120 192 l 1,1,-1
 164 192 l 1,2,-1
 164 -168 l 1,3,-1
 120 -168 l 1,0,-1
120 370 m 1,4,-1
 120 730 l 1,5,-1
 164 730 l 1,6,-1
 164 370 l 1,7,-1
 120 370 l 1,4,-1
EndSplineSet
Validated: 19457
EndChar

StartChar: section
Encoding: 167 167 102
Width: 640
Flags: W
TeX: 115 0
HStem: -186 24<227.082 318.201> 676 24<249.298 341.604>
VStem: 100 38<261.28 348.606> 150 58<521.151 635.372> 152 66<-140.57 -66> 350 66<582 656.223> 360 58<-124.138 -7.5094> 432 38<164.079 253.617>
DStem2: 180 234 166 150 0.764628 -0.644472<-48.3484 213.67> 276 472 210 434 0.75625 -0.654283<-100.526 -25.0497 -1.84986 265.648>
LayerCount: 3
Fore
SplineSet
100 286 m 0xeb
 100 352 160 402 210 434 c 1
 172 468 150 512 150 562 c 0
 150 648 224 700 298 700 c 0
 358 700 416 656 416 600 c 0
 416 564 392 544 364 544 c 0
 336 544 314 564 314 588 c 0
 314 610 324 617 340 628 c 0
 347 633 350 636 350 646 c 0
 350 666 328 676 298 676 c 0
 254 676 208 650 208 598 c 0xf5
 208 534 236 508 276 472 c 2
 404 362 l 2
 452 322 470 290 470 226 c 0
 470 160 410 112 360 80 c 1
 392 46 418 0 418 -52 c 0
 418 -138 346 -186 270 -186 c 0
 212 -186 152 -142 152 -84 c 0
 152 -48 176 -30 206 -30 c 0
 232 -30 254 -50 254 -72 c 0
 254 -94 246 -103 230 -113 c 0
 222 -118 218 -121 218 -132 c 0
 218 -152 242 -162 270 -162 c 0
 314 -162 360 -134 360 -84 c 0
 360 -30 338 4 294 42 c 2
 166 150 l 2
 124 188 100 224 100 286 c 0xeb
138 326 m 0
 138 300 144 266 180 234 c 2
 320 116 l 2
 330 107 336 101 342 94 c 1
 374 112 432 154 432 186 c 0
 432 228 418 256 388 280 c 2
 248 400 l 2
 240 406 234 413 228 420 c 1
 196 400 138 360 138 326 c 0
EndSplineSet
Validated: 1
Layer: 2
SplineSet
298 700 m 0,0,1
 344 700 344 700 380 670.5 c 128,-1,2
 416 641 416 641 416 600 c 0,3,4
 416 574 416 574 401 559 c 128,-1,5
 386 544 386 544 364 544 c 0,6,7
 343 544 343 544 328.5 557 c 128,-1,8
 314 570 314 570 314 588 c 0,9,10
 314 598 314 598 317.5 606 c 128,-1,11
 321 614 321 614 325.5 617.5 c 128,-1,12
 330 621 330 621 340 628 c 128,-1,13
 350 635 350 635 350 646 c 0,14,15
 350 676 350 676 298 676 c 0,16,17
 262 676 262 676 235 655.5 c 128,-1,18
 208 635 208 635 208 598 c 0,19,20
 208 568 208 568 218 544 c 128,-1,21
 228 520 228 520 239.5 507 c 128,-1,22
 251 494 251 494 276 472 c 2,23,-1
 404 362 l 2,24,25
 441 331 441 331 455.5 302 c 128,-1,26
 470 273 470 273 470 226 c 0,27,28
 470 150 470 150 360 80 c 1,29,30
 418 18 418 18 418 -52 c 0,31,32
 418 -114 418 -114 374 -150 c 128,-1,33
 330 -186 330 -186 270 -186 c 0,34,35
 225 -186 225 -186 188.5 -156 c 128,-1,36
 152 -126 152 -126 152 -84 c 0,37,38
 152 -58 152 -58 167 -44 c 128,-1,39
 182 -30 182 -30 206 -30 c 0,40,41
 225 -30 225 -30 239.5 -42.5 c 128,-1,42
 254 -55 254 -55 254 -72 c 0,43,44
 254 -98 254 -98 230 -113 c 0,45,46
 218 -120 218 -120 218 -132 c 0,47,48
 218 -146 218 -146 233 -154 c 128,-1,49
 248 -162 248 -162 270 -162 c 0,50,51
 306 -162 306 -162 333 -141 c 128,-1,52
 360 -120 360 -120 360 -84 c 0,53,54
 360 -45 360 -45 344.5 -16.5 c 128,-1,55
 329 12 329 12 294 42 c 2,56,-1
 166 150 l 2,57,58
 132 181 132 181 116 211.5 c 128,-1,59
 100 242 100 242 100 286 c 0,60,61
 100 364 100 364 210 434 c 1,62,63
 150 488 150 488 150 562 c 0,64,65
 150 624 150 624 194.5 662 c 128,-1,66
 239 700 239 700 298 700 c 0,0,1
342 94 m 1,67,68
 374 112 374 112 403 138.5 c 128,-1,69
 432 165 432 165 432 186 c 0,70,71
 432 245 432 245 388 280 c 2,72,-1
 248 400 l 1,73,-1
 228 420 l 1,74,75
 138 364 138 364 138 326 c 0,76,77
 138 271 138 271 180 234 c 2,78,-1
 320 116 l 1,79,-1
 342 94 l 1,67,68
EndSplineSet
Validated: 19457
EndChar

StartChar: dieresis
Encoding: 168 168 103
Width: 440
Flags: W
TeX: 78 0
HStem: 544 104<83.2363 168.764 271.236 356.764>
VStem: 74 104<553.236 638.764> 262 104<553.236 638.764>
LayerCount: 3
Fore
SplineSet
262 596 m 0
 262 626 284 648 314 648 c 0
 344 648 366 626 366 596 c 0
 366 566 344 544 314 544 c 0
 284 544 262 566 262 596 c 0
74 596 m 0
 74 626 96 648 126 648 c 0
 156 648 178 626 178 596 c 0
 178 566 156 544 126 544 c 0
 96 544 74 566 74 596 c 0
EndSplineSet
Validated: 1
Layer: 2
SplineSet
314 648 m 256,0,1
 336 648 336 648 351 633 c 128,-1,2
 366 618 366 618 366 596 c 256,3,4
 366 574 366 574 351 559 c 128,-1,5
 336 544 336 544 314 544 c 256,6,7
 292 544 292 544 277 559 c 128,-1,8
 262 574 262 574 262 596 c 256,9,10
 262 618 262 618 277 633 c 128,-1,11
 292 648 292 648 314 648 c 256,0,1
126 648 m 256,12,13
 148 648 148 648 163 633 c 128,-1,14
 178 618 178 618 178 596 c 256,15,16
 178 574 178 574 163 559 c 128,-1,17
 148 544 148 544 126 544 c 256,18,19
 104 544 104 544 89 559 c 128,-1,20
 74 574 74 574 74 596 c 256,21,22
 74 618 74 618 89 633 c 128,-1,23
 104 648 104 648 126 648 c 256,12,13
EndSplineSet
Validated: 19457
EndChar

StartChar: copyright
Encoding: 169 169 104
Width: 820
Flags: W
TeX: 99 0
HStem: -18 28<317.408 502.592> 110 24<380.863 475.05> 566 24<378.479 462.619> 702 28<317.408 502.592>
VStem: 48 28<262.544 449.456> 220 88<233.289 461.13> 548 18<420 456.276 557.571 584> 550 24<227.359 278> 744 28<262.544 449.456>
LayerCount: 3
Fore
SplineSet
76 356 m 0xfc80
 76 168 222 10 410 10 c 0
 598 10 744 168 744 356 c 0
 744 544 598 702 410 702 c 0
 222 702 76 544 76 356 c 0xfc80
48 356 m 0
 48 562 204 730 410 730 c 0
 616 730 772 562 772 356 c 0
 772 150 616 -18 410 -18 c 0
 204 -18 48 150 48 356 c 0
220 338 m 0
 220 484 295 590 424 590 c 0
 462 590 497 564 506 557 c 0
 514 551 516 550 526 550 c 0
 538 550 548 568 548 584 c 1
 566 584 l 1
 566 420 l 1
 548 420 l 1xfe80
 540 500 472 566 424 566 c 0
 331 566 308 454 308 338 c 0
 308 260 333 134 422 134 c 0
 512 134 542 213 550 278 c 1
 574 278 l 1xfd80
 569 203 526 110 422 110 c 0
 287 110 220 228 220 338 c 0
EndSplineSet
Validated: 1
Layer: 2
SplineSet
76 356 m 256,0,1
 76 214 76 214 173 112 c 128,-1,2
 270 10 270 10 410 10 c 256,3,4
 550 10 550 10 647 112 c 128,-1,5
 744 214 744 214 744 356 c 256,6,7
 744 498 744 498 647 600 c 128,-1,8
 550 702 550 702 410 702 c 256,9,10
 270 702 270 702 173 600 c 128,-1,11
 76 498 76 498 76 356 c 256,0,1
48 356 m 256,12,13
 48 512 48 512 152.5 621 c 128,-1,14
 257 730 257 730 410 730 c 256,15,16
 563 730 563 730 667.5 621 c 128,-1,17
 772 512 772 512 772 356 c 256,18,19
 772 200 772 200 667.5 91 c 128,-1,20
 563 -18 563 -18 410 -18 c 256,21,22
 257 -18 257 -18 152.5 91 c 128,-1,23
 48 200 48 200 48 356 c 256,12,13
422 110 m 0,24,25
 327 110 327 110 273.5 179 c 128,-1,26
 220 248 220 248 220 338 c 0,27,28
 220 450 220 450 274.5 520 c 128,-1,29
 329 590 329 590 424 590 c 0,30,31
 468 590 468 590 506 558 c 0,32,33
 516 549 516 549 526 549 c 0,34,35
 535 549 535 549 541.5 560.5 c 128,-1,36
 548 572 548 572 548 584 c 1,37,-1
 566 584 l 1,38,-1
 566 420 l 1,39,-1
 548 420 l 1,40,41
 542 477 542 477 502 521.5 c 128,-1,42
 462 566 462 566 424 566 c 0,43,44
 308 566 308 566 308 338 c 0,45,46
 308 306 308 306 313.5 273 c 128,-1,47
 319 240 319 240 331 207.5 c 128,-1,48
 343 175 343 175 366.5 154.5 c 128,-1,49
 390 134 390 134 422 134 c 0,50,51
 483 134 483 134 513 176 c 128,-1,52
 543 218 543 218 550 278 c 1,53,-1
 574 278 l 1,54,55
 570 212 570 212 531.5 161 c 128,-1,56
 493 110 493 110 422 110 c 0,24,25
EndSplineSet
Validated: 19457
EndChar

StartChar: ordfeminine
Encoding: 170 170 105
Width: 380
VWidth: 959
Flags: W
TeX: 111 0
HStem: 362 24<70 310> 412 29<124.764 173.029 258.769 300.801> 590 49<104.094 133.815> 682 18<119.363 188.976>
VStem: 62 56<443.429 521.628> 68 34<620.57 669.614> 208 48<451.875 573 592 672.498> 306 14<450.844 497>
DStem2: 159 570 169 554 0.91227 0.40959<-34.6731 45.93>
LayerCount: 3
Fore
SplineSet
70 362 m 25xf3
 70 386 l 25
 310 386 l 25
 310 362 l 25
 70 362 l 25xf3
118 478 m 0xfb
 118 451 137 441 151 441 c 0
 181 441 196 457 208 480 c 9
 208 573 l 17
 169 554 l 2
 132 536 118 507 118 478 c 0xfb
62 472 m 0
 62 524 126 555 159 570 c 10
 208 592 l 25
 208 630 l 18
 208 671 182 682 157 682 c 0
 129 682 102 669 102 651 c 0
 102 648 102 645 104 642 c 0
 106 639 108 639 112 639 c 0
 127 639 134 626 134 615 c 0
 134 598 119 590 106 590 c 0
 88 590 68 599 68 627 c 0xf7
 68 674 116 700 156 700 c 0
 202 700 256 681 256 615 c 10
 256 474 l 18
 256 454 261 437 279 437 c 0
 304 437 306 471 306 497 c 9
 320 497 l 17
 320 465 314 412 268 412 c 0
 230 412 211 435 209 462 c 1
 207 463 l 1
 196 446 169 412 132 412 c 0
 96 412 62 424 62 472 c 0
EndSplineSet
Validated: 19457
Layer: 2
SplineSet
70 386 m 25,0,-1
 310 386 l 1,1,-1
 310 362 l 1,2,-1
 70 362 l 1,3,-1
 70 386 l 25,0,-1
118 478 m 0,4,5
 118 460 118 460 128.5 450.5 c 128,-1,6
 139 441 139 441 151 441 c 0,7,8
 171 441 171 441 184 450.5 c 128,-1,9
 197 460 197 460 208 480 c 1,10,-1
 208 574 l 17,11,-1
 169 554 l 2,12,13
 118 528 118 528 118 478 c 0,4,5
62 473 m 0,14,15
 62 502 62 502 85.5 524.5 c 128,-1,16
 109 547 109 547 158 569 c 2,17,-1
 208 592 l 1,18,-1
 208 630 l 2,19,20
 208 682 208 682 157 682 c 0,21,22
 135 682 135 682 118.5 673 c 128,-1,23
 102 664 102 664 102 651 c 0,24,25
 102 645 102 645 104 642 c 128,-1,26
 106 639 106 639 112 639 c 0,27,28
 122 639 122 639 128 631.5 c 128,-1,29
 134 624 134 624 134 615 c 0,30,31
 134 603 134 603 125.5 596.5 c 128,-1,32
 117 590 117 590 106 590 c 0,33,34
 89 590 89 590 78.5 599 c 128,-1,35
 68 608 68 608 68 627 c 0,36,37
 68 660 68 660 95.5 680 c 128,-1,38
 123 700 123 700 156 700 c 0,39,40
 197 700 197 700 226.5 680 c 128,-1,41
 256 660 256 660 256 615 c 2,42,-1
 256 474 l 2,43,44
 256 437 256 437 279 437 c 0,45,46
 306 437 306 437 306 497 c 1,47,-1
 320 497 l 1,48,49
 320 412 320 412 268 412 c 0,50,51
 241 412 241 412 226 426 c 128,-1,52
 211 440 211 440 209 462 c 1,53,-1
 207 463 l 1,54,55
 192 440 192 440 173 426 c 128,-1,56
 154 412 154 412 132 412 c 0,57,58
 62 412 62 412 62 473 c 0,14,15
EndSplineSet
Validated: 19457
EndChar

StartChar: guillemotleft
Encoding: 171 171 106
Width: 480
Flags: W
TeX: 103 0
VStem: 108 56<135.803 320.197> 265 48<133.411 322.589>
LayerCount: 3
Fore
SplineSet
265 228 m 0
 265 320 322 385 352 410 c 9
 366 396 l 17
 331 352 313 300 313 228 c 0
 313 156 331 104 366 60 c 9
 352 46 l 17
 322 71 265 136 265 228 c 0
108 228 m 0
 108 324 174 396 224 428 c 9
 239 413 l 17
 190 369 164 300 164 228 c 0
 164 156 190 87 239 43 c 9
 224 28 l 17
 174 60 108 132 108 228 c 0
EndSplineSet
Validated: 1
Layer: 2
SplineSet
265 228 m 256,0,1
 265 289 265 289 292.5 336.5 c 128,-1,2
 320 384 320 384 352 410 c 1,3,-1
 366 396 l 1,4,5
 313 329 313 329 313 228 c 256,6,7
 313 127 313 127 366 60 c 1,8,-1
 352 46 l 1,9,10
 320 72 320 72 292.5 119.5 c 128,-1,11
 265 167 265 167 265 228 c 256,0,1
108 228 m 256,12,13
 108 293 108 293 143.5 346 c 128,-1,14
 179 399 179 399 224 428 c 1,15,-1
 239 413 l 1,16,17
 164 346 164 346 164 228 c 256,18,19
 164 110 164 110 239 43 c 1,20,-1
 224 28 l 1,21,22
 179 57 179 57 143.5 110 c 128,-1,23
 108 163 108 163 108 228 c 256,12,13
EndSplineSet
Validated: 19457
EndChar

StartChar: logicalnot
Encoding: 172 172 107
Width: 580
Flags: W
TeX: 108 0
HStem: 326 40<48 488>
VStem: 488 44<160 326>
LayerCount: 3
Fore
SplineSet
48 326 m 9
 48 366 l 25
 532 366 l 25
 532 160 l 1
 488 160 l 1
 488 326 l 1
 48 326 l 9
EndSplineSet
Validated: 1
Layer: 2
SplineSet
48 326 m 9,0,-1
 48 366 l 1,1,-1
 532 366 l 1,2,-1
 532 160 l 1,3,-1
 488 160 l 1,4,-1
 488 326 l 1,5,-1
 48 326 l 9,0,-1
EndSplineSet
Validated: 19457
EndChar

StartChar: macron
Encoding: 175 175 110
AltUni2: 0002c9.ffffffff.0
Width: 440
Flags: W
TeX: 109 0
HStem: 572 40<90 350>
VStem: 90 260<572 612>
LayerCount: 3
Fore
SplineSet
90 572 m 25
 90 612 l 25
 350 612 l 25
 350 572 l 25
 90 572 l 25
EndSplineSet
Validated: 1
Layer: 2
SplineSet
90 612 m 25,0,-1
 350 612 l 1,1,-1
 350 572 l 1,2,-1
 90 572 l 1,3,-1
 90 612 l 25,0,-1
EndSplineSet
Validated: 19457
EndChar

StartChar: degree
Encoding: 176 176 111
Width: 580
Flags: W
TeX: 100 0
HStem: 428 32<233.23 346.77> 668 32<233.23 346.77>
VStem: 154 32<507.23 620.77> 394 32<507.23 620.77>
LayerCount: 3
Fore
SplineSet
154 564 m 0
 154 640 214 700 290 700 c 0
 366 700 426 640 426 564 c 0
 426 488 366 428 290 428 c 0
 214 428 154 488 154 564 c 0
186 564 m 0
 186 504 230 460 290 460 c 0
 350 460 394 504 394 564 c 0
 394 624 350 668 290 668 c 0
 230 668 186 624 186 564 c 0
EndSplineSet
Validated: 19457
Layer: 2
SplineSet
154 564 m 256,0,1
 154 621 154 621 193.5 660.5 c 128,-1,2
 233 700 233 700 290 700 c 256,3,4
 347 700 347 700 386.5 660.5 c 128,-1,5
 426 621 426 621 426 564 c 256,6,7
 426 507 426 507 386.5 467.5 c 128,-1,8
 347 428 347 428 290 428 c 256,9,10
 233 428 233 428 193.5 467.5 c 128,-1,11
 154 507 154 507 154 564 c 256,0,1
186 564 m 256,12,13
 186 519 186 519 215.5 489.5 c 128,-1,14
 245 460 245 460 290 460 c 256,15,16
 335 460 335 460 364.5 489.5 c 128,-1,17
 394 519 394 519 394 564 c 256,18,19
 394 609 394 609 364.5 638.5 c 128,-1,20
 335 668 335 668 290 668 c 256,21,22
 245 668 245 668 215.5 638.5 c 128,-1,23
 186 609 186 609 186 564 c 256,12,13
EndSplineSet
Validated: 19457
EndChar

StartChar: plusminus
Encoding: 177 177 112
Width: 940
Flags: W
TeX: 112 0
HStem: -40 40<48 884> 338 40<48 448 492 892>
VStem: 448 44<64 338 378 652>
LayerCount: 3
Fore
SplineSet
48 338 m 1
 48 378 l 1
 448 378 l 1
 448 652 l 1
 492 652 l 1
 492 378 l 1
 892 378 l 1
 892 338 l 1
 492 338 l 1
 492 64 l 1
 448 64 l 1
 448 338 l 1
 48 338 l 1
48 0 m 1
 884 0 l 1
 884 -40 l 1
 48 -40 l 1
 48 0 l 1
EndSplineSet
Validated: 1
Layer: 2
SplineSet
48 338 m 1,0,-1
 48 378 l 1,1,-1
 448 378 l 1,2,-1
 448 652 l 1,3,-1
 492 652 l 1,4,-1
 492 378 l 1,5,-1
 892 378 l 1,6,-1
 892 338 l 1,7,-1
 492 338 l 1,8,-1
 492 64 l 1,9,-1
 448 64 l 1,10,-1
 448 338 l 1,11,-1
 48 338 l 1,0,-1
48 -40 m 1,12,-1
 48 0 l 1,13,-1
 884 0 l 1,14,-1
 884 -40 l 1,15,-1
 48 -40 l 1,12,-1
EndSplineSet
Validated: 19457
EndChar

StartChar: twosuperior
Encoding: 178 178 113
Width: 440
VWidth: 770
Flags: W
TeX: 117 0
HStem: 280 56<138.007 327.407> 522 63<115.44 175.497> 676 24<151.406 242.523>
VStem: 82 32<588.588 644.952> 90 48<336 359.775> 286 72<523.175 645.885> 340 14<377 405>
LayerCount: 3
Fore
SplineSet
82 593 m 0xf4
 82 654 137 700 212 700 c 0
 297 700 358 657 358 583 c 0xf4
 358 527 302 483 257 453 c 2
 193 410 l 2
 162 389 138 370 138 350 c 0
 138 338 148 336 158 336 c 2
 280 336 l 2
 319 336 325 346 331 369 c 2
 340 405 l 9
 354 405 l 25
 345 280 l 17
 90 280 l 1xea
 90 310 91 358 164 415 c 2
 227 464 l 2
 265 494 286 529 286 581 c 0
 286 633 255 676 194 676 c 0
 151 676 114 648 114 615 c 0
 114 594 126 588 141 585 c 0
 170 581 178 566 178 549 c 0
 178 534 166 522 144 522 c 0
 109 522 82 549 82 593 c 0xf4
EndSplineSet
Validated: 1
Layer: 2
SplineSet
345 280 m 17,0,-1
 90 280 l 1,1,2
 90 301 90 301 92.5 316.5 c 128,-1,3
 95 332 95 332 112.5 360.5 c 128,-1,4
 130 389 130 389 164 415 c 2,5,-1
 227 464 l 2,6,7
 286 511 286 511 286 581 c 0,8,9
 286 622 286 622 262 649 c 128,-1,10
 238 676 238 676 194 676 c 0,11,12
 162 676 162 676 138 658 c 128,-1,13
 114 640 114 640 114 615 c 256,14,15
 114 590 114 590 141 585 c 0,16,17
 178 580 178 580 178 549 c 0,18,19
 178 537 178 537 169 529.5 c 128,-1,20
 160 522 160 522 144 522 c 0,21,22
 117 522 117 522 99.5 541.5 c 128,-1,23
 82 561 82 561 82 593 c 0,24,25
 82 639 82 639 119 669.5 c 128,-1,26
 156 700 156 700 212 700 c 0,27,28
 277 700 277 700 317.5 668.5 c 128,-1,29
 358 637 358 637 358 583 c 0,30,31
 358 520 358 520 257 453 c 2,32,-1
 193 410 l 2,33,34
 138 373 138 373 138 350 c 0,35,36
 138 336 138 336 158 336 c 2,37,-1
 280 336 l 2,38,39
 307 336 307 336 316.5 343 c 128,-1,40
 326 350 326 350 331 369 c 2,41,-1
 340 405 l 1,42,-1
 354 405 l 1,43,-1
 345 280 l 17,0,-1
EndSplineSet
Validated: 19457
EndChar

StartChar: threesuperior
Encoding: 179 179 114
Width: 440
Flags: W
TeX: 117 0
HStem: 270 24<161.223 273.43> 342 66<144.708 196.984> 474 40<147.01 237.388> 488 18<197.189 270.089> 675 25<175.306 271.365>
VStem: 108 36<306.812 370> 118 44<594.5 662.698> 304 64<537.993 654.256> 314 72<327.763 450.217>
LayerCount: 3
Fore
SplineSet
108 356 m 0xdc80
 108 384 128 408 158 408 c 0
 183 408 199 396 199 374 c 0
 199 357 188 342 169 342 c 0
 159 342 144 341 144 332 c 0
 144 305 176 294 225 294 c 0
 295 294 314 344 314 391 c 0
 314 460 278 488 238 488 c 0xdc80
 225 488 209 484 199 480 c 0
 191 476 184 474 172 474 c 0
 161 474 147 480 147 494 c 0
 147 508 160 514 172 514 c 0xec80
 180 514 190 513 200 510 c 0
 214 506 231 506 240 506 c 0
 285 506 304 550 304 590 c 0
 304 639 281 675 228 675 c 0
 169 675 162 651 162 636 c 0
 162 630 166 622 178 617 c 0
 194 611 201 601 201 588 c 0
 201 572 190 559 166 559 c 0
 139 559 118 583 118 606 c 0
 118 666 174 700 235 700 c 0
 315 700 368 658 368 594 c 0xdb
 368 541 320 509 284 501 c 1
 284 496 l 1
 323 490 386 454 386 391 c 0
 386 316 312 270 225 270 c 0
 159 270 108 300 108 356 c 0xdc80
EndSplineSet
Validated: 1
Layer: 2
SplineSet
235 700 m 0,0,1
 295 700 295 700 331.5 671 c 128,-1,2
 368 642 368 642 368 594 c 0,3,4
 368 558 368 558 342 533 c 128,-1,5
 316 508 316 508 284 501 c 1,6,-1
 284 496 l 1,7,8
 320 491 320 491 353 462.5 c 128,-1,9
 386 434 386 434 386 391 c 0,10,11
 386 336 386 336 339.5 303 c 128,-1,12
 293 270 293 270 225 270 c 0,13,14
 174 270 174 270 141 292.5 c 128,-1,15
 108 315 108 315 108 356 c 0,16,17
 108 378 108 378 122 393 c 128,-1,18
 136 408 136 408 158 408 c 0,19,20
 199 408 199 408 199 374 c 0,21,22
 199 361 199 361 191 351.5 c 128,-1,23
 183 342 183 342 169 342 c 0,24,25
 144 342 144 342 144 332 c 0,26,27
 144 294 144 294 225 294 c 0,28,29
 273 294 273 294 293.5 322 c 128,-1,30
 314 350 314 350 314 391 c 0,31,32
 314 440 314 440 292.5 464 c 128,-1,33
 271 488 271 488 238 488 c 0,34,35
 219 488 219 488 199 480 c 0,36,37
 187 474 187 474 172 474 c 0,38,39
 147 474 147 474 147 494 c 256,40,41
 147 514 147 514 172 514 c 0,42,43
 187 514 187 514 200 510 c 0,44,45
 214 506 214 506 240 506 c 0,46,47
 271 506 271 506 287.5 531 c 128,-1,48
 304 556 304 556 304 590 c 0,49,50
 304 629 304 629 285 652 c 128,-1,51
 266 675 266 675 228 675 c 0,52,53
 162 675 162 675 162 636 c 0,54,55
 162 624 162 624 178 617 c 0,56,57
 201 608 201 608 201 588 c 0,58,59
 201 559 201 559 166 559 c 0,60,61
 146 559 146 559 132 573.5 c 128,-1,62
 118 588 118 588 118 606 c 0,63,64
 118 649 118 649 152.5 674.5 c 128,-1,65
 187 700 187 700 235 700 c 0,0,1
EndSplineSet
Validated: 19457
EndChar

StartChar: acute
Encoding: 180 180 115
AltUni2: 0002ca.ffffffff.0
Width: 440
VWidth: 959
Flags: W
TeX: 78 0
HStem: 508 176
VStem: 195 169
LayerCount: 3
Fore
SplineSet
195 519 m 25
 287 652 l 18
 305 677 318 684 336 684 c 0
 354 684 364 671 364 653 c 0
 364 635 352 621 336 609 c 10
 208 508 l 25
 195 519 l 25
EndSplineSet
Validated: 1
Layer: 2
SplineSet
336 684 m 0,0,1
 364 684 364 684 364 653 c 0,2,3
 364 630 364 630 336 609 c 10,4,-1
 208 508 l 1,5,-1
 195 519 l 1,6,-1
 287 652 l 2,7,8
 310 684 310 684 336 684 c 0,0,1
EndSplineSet
Validated: 19457
EndChar

StartChar: paragraph
Encoding: 182 182 117
Width: 540
Flags: W
TeX: 112 0
HStem: -156 21G<232 270 370 408> 678 34<270 370 408 476>
VStem: 64 206<461.471 629.052> 232 38<-156 386> 370 38<-156 678>
LayerCount: 3
Fore
SplineSet
64 544 m 0xe8
 64 640 136 712 232 712 c 2
 476 712 l 1
 476 678 l 1
 408 678 l 1
 408 -156 l 1
 370 -156 l 1
 370 678 l 1
 270 678 l 1
 270 -156 l 1
 232 -156 l 1
 232 386 l 1xd8
 136 386 64 448 64 544 c 0xe8
EndSplineSet
Validated: 1
Layer: 2
SplineSet
476 712 m 1,0,-1
 476 678 l 1,1,-1
 408 678 l 1,2,-1
 408 -156 l 1,3,-1
 370 -156 l 1,4,-1
 370 678 l 1,5,-1
 270 678 l 1,6,-1
 270 -156 l 1,7,-1
 232 -156 l 1,8,-1
 232 386 l 1,9,10
 159 386 159 386 111.5 429.5 c 128,-1,11
 64 473 64 473 64 544 c 0,12,13
 64 616 64 616 112 664 c 128,-1,14
 160 712 160 712 232 712 c 2,15,-1
 476 712 l 1,0,-1
EndSplineSet
Validated: 19457
EndChar

StartChar: cedilla
Encoding: 184 184 119
Width: 440
VWidth: 959
Flags: W
TeX: 99 0
HStem: -212 28<147.032 233.309> -180 20G<114 137> -20 20G<189.043 221>
VStem: 250 64<-173.711 -89.1911>
DStem2: 172 -69 203 -53 0.328521 0.944497<25.2961 73.0548> 203 -53 206 -76 0.979457 -0.201653<0 43.6603>
LayerCount: 3
Fore
SplineSet
114 -176 m 9
 126 -160 l 17
 148 -177 166 -184 188 -184 c 0
 220 -184 250 -170 250 -133 c 0
 250 -96 234 -82 206 -76 c 2
 172 -69 l 9
 196 0 l 25
 221 0 l 25
 203 -53 l 17
 227 -58 l 2
 266 -66 314 -88 314 -142 c 0
 314 -180 278 -212 200 -212 c 0
 166 -212 130 -192 114 -176 c 9
EndSplineSet
Validated: 19457
Layer: 2
SplineSet
114 -176 m 9,0,1
 126 -160 l 1,2,3
 137 -169 137 -169 152.5 -176.5 c 128,-1,4
 168 -184 168 -184 188 -184 c 0,5,6
 215 -184 215 -184 232.5 -171.5 c 128,-1,7
 250 -159 250 -159 250 -133 c 0,8,9
 250 -106 250 -106 240 -94 c 0,10,11
 229 -81 229 -81 206 -76 c 2,12,-1
 172 -69 l 1,13,-1
 196 0 l 1,14,-1
 221 0 l 1,15,-1
 203 -53 l 1,16,-1
 227 -58 l 2,17,18
 268 -67 268 -67 291 -87.5 c 128,-1,19
 314 -108 314 -108 314 -142 c 0,20,21
 314 -172 314 -172 285 -192 c 128,-1,22
 256 -212 256 -212 200 -212 c 0,23,24
 177 -212 177 -212 152.5 -201 c 128,-1,25
 128 -190 128 -190 114 -176 c 9,0,1
EndSplineSet
Validated: 19457
EndChar

StartChar: onesuperior
Encoding: 185 185 120
Width: 448
VWidth: 767
Flags: W
TeX: 117 0
HStem: 278 24<112 191.818 256.182 336> 594 28<112 190.545> 670 20G<230.5 256>
VStem: 192 64<302.003 594> 234 22<662.81 690>
LayerCount: 3
Fore
SplineSet
112 278 m 25xf0
 112 302 l 25
 175 302 l 18
 187 302 192 306 192 317 c 10
 192 594 l 25xf0
 112 594 l 25
 112 622 l 17
 122 622 152 622 152 622 c 2
 203 622 227 661 234 690 c 9
 256 690 l 25xe8
 256 317 l 18
 256 306 261 302 273 302 c 10
 336 302 l 25
 336 278 l 25
 112 278 l 25xf0
EndSplineSet
Validated: 1
Layer: 2
SplineSet
112 278 m 1,0,-1
 112 302 l 1,1,-1
 175 302 l 2,2,3
 192 302 192 302 192 317 c 10,4,-1
 192 594 l 1,5,-1
 112 594 l 1,6,-1
 112 622 l 1,7,-1
 152 622 l 2,8,9
 187 622 187 622 207.5 642.5 c 128,-1,10
 228 663 228 663 234 690 c 1,11,-1
 256 690 l 1,12,-1
 256 317 l 2,13,14
 256 302 256 302 273 302 c 2,15,-1
 336 302 l 1,16,-1
 336 278 l 1,17,-1
 112 278 l 1,0,-1
EndSplineSet
Validated: 19457
EndChar

StartChar: ordmasculine
Encoding: 186 186 121
Width: 380
VWidth: 959
Flags: W
TeX: 111 0
HStem: 362 24<70 310> 412 18<162.319 216.191> 682 18<162.319 216.191>
VStem: 70 56<472.623 639.377> 254 56<473.787 638.213>
LayerCount: 3
Fore
SplineSet
70 362 m 25
 70 386 l 25
 310 386 l 25
 310 362 l 25
 70 362 l 25
126 556 m 0
 126 501 139 430 189 430 c 0
 240 430 254 501 254 556 c 0
 254 611 240 682 189 682 c 0
 139 682 126 611 126 556 c 0
70 556 m 0
 70 635 122 700 189 700 c 0
 257 700 310 635 310 556 c 0
 310 477 257 412 189 412 c 0
 122 412 70 477 70 556 c 0
EndSplineSet
Validated: 1
Layer: 2
SplineSet
70 386 m 25,0,-1
 310 386 l 1,1,-1
 310 362 l 1,2,-1
 70 362 l 1,3,-1
 70 386 l 25,0,-1
189 430 m 0,4,5
 224 430 224 430 239 468 c 128,-1,6
 254 506 254 506 254 556 c 256,7,8
 254 606 254 606 239 644 c 128,-1,9
 224 682 224 682 189 682 c 0,10,11
 155 682 155 682 140.5 644.5 c 128,-1,12
 126 607 126 607 126 556 c 256,13,14
 126 505 126 505 140.5 467.5 c 128,-1,15
 155 430 155 430 189 430 c 0,4,5
189 412 m 0,16,17
 139 412 139 412 104.5 454 c 128,-1,18
 70 496 70 496 70 556 c 256,19,20
 70 616 70 616 104.5 658 c 128,-1,21
 139 700 139 700 189 700 c 0,22,23
 240 700 240 700 275 658 c 128,-1,24
 310 616 310 616 310 556 c 256,25,26
 310 496 310 496 275 454 c 128,-1,27
 240 412 240 412 189 412 c 0,16,17
EndSplineSet
Validated: 19457
EndChar

StartChar: guillemotright
Encoding: 187 187 122
Width: 480
Flags: W
TeX: 103 0
VStem: 167 48<133.411 322.589> 316 56<135.803 320.197>
LayerCount: 3
Fore
SplineSet
241 43 m 17
 290 87 316 156 316 228 c 0
 316 300 290 369 241 413 c 9
 256 428 l 17
 306 396 372 324 372 228 c 0
 372 132 306 60 256 28 c 9
 241 43 l 17
114 60 m 17
 149 104 167 156 167 228 c 0
 167 300 149 352 114 396 c 9
 128 410 l 17
 158 385 215 320 215 228 c 0
 215 136 158 71 128 46 c 9
 114 60 l 17
EndSplineSet
Validated: 1
Layer: 2
SplineSet
372 228 m 256,0,1
 372 163 372 163 336.5 110 c 128,-1,2
 301 57 301 57 256 28 c 1,3,-1
 241 43 l 1,4,5
 316 110 316 110 316 228 c 256,6,7
 316 346 316 346 241 413 c 1,8,-1
 256 428 l 1,9,10
 301 399 301 399 336.5 346 c 128,-1,11
 372 293 372 293 372 228 c 256,0,1
215 228 m 256,12,13
 215 167 215 167 187.5 119.5 c 128,-1,14
 160 72 160 72 128 46 c 1,15,-1
 114 60 l 1,16,17
 167 127 167 127 167 228 c 256,18,19
 167 329 167 329 114 396 c 1,20,-1
 128 410 l 1,21,22
 160 384 160 384 187.5 336.5 c 128,-1,23
 215 289 215 289 215 228 c 256,12,13
EndSplineSet
Validated: 19457
EndChar

StartChar: questiondown
Encoding: 191 191 126
Width: 470
Flags: W
TeX: 113 0
HStem: -238 30<177.749 301.06> -97 85<281.383 350.394> 272 30<174.074 257.178> 344 124<165.59 262.41>
VStem: 34 88<-159.605 -10.9812> 130 24<176.614 246.452> 152 124<357.59 454.41> 270 34<173.056 260.828> 354 44<-165.2 -71>
LayerCount: 3
Fore
SplineSet
34 -86 m 0xfd80
 34 2 112 57 181 105 c 0
 229 138 270 178 270 224 c 0
 270 260 244 272 214 272 c 0
 179 272 154 246 154 206 c 0
 154 200 154 190 159 180 c 1
 141 172 l 1
 136 180 130 191 130 207 c 0
 130 264 176 302 214 302 c 0
 263 302 304 275 304 221 c 0
 304 178 286 154 256 122 c 2
 180 40 l 2
 145 2 122 -32 122 -86 c 0
 122 -151 156 -208 237 -208 c 0
 299 -208 354 -170 354 -130 c 0
 354 -115 352 -105 348 -101 c 0
 343 -97 341 -97 338 -97 c 0
 335 -97 331 -97 328 -98 c 0
 321 -100 317 -100 310 -100 c 0
 287 -100 274 -82 274 -60 c 0
 274 -34 291 -12 329 -12 c 0
 364 -12 398 -43 398 -99 c 0
 398 -181 310 -238 230 -238 c 0
 128 -238 34 -186 34 -86 c 0xfd80
152 406 m 0xfa80
 152 442 178 468 214 468 c 0
 250 468 276 442 276 406 c 0
 276 370 250 344 214 344 c 0
 178 344 152 370 152 406 c 0xfa80
EndSplineSet
Validated: 1
Layer: 2
SplineSet
230 -238 m 0,0,1
 148 -238 148 -238 91 -197.5 c 128,-1,2
 34 -157 34 -157 34 -86 c 0,3,4
 34 -55 34 -55 46 -27 c 128,-1,5
 58 1 58 1 83 26 c 128,-1,6
 108 51 108 51 127 66 c 128,-1,7
 146 81 146 81 181 105 c 0,8,9
 270 166 270 166 270 224 c 0,10,11
 270 272 270 272 214 272 c 0,12,13
 188 272 188 272 171 254 c 128,-1,14
 154 236 154 236 154 206 c 0,15,16
 154 190 154 190 159 180 c 1,17,-1
 141 172 l 1,18,19
 130 190 130 190 130 207 c 0,20,21
 130 247 130 247 156.5 274.5 c 128,-1,22
 183 302 183 302 214 302 c 0,23,24
 253 302 253 302 278.5 281 c 128,-1,25
 304 260 304 260 304 221 c 0,26,27
 304 191 304 191 292.5 170 c 128,-1,28
 281 149 281 149 256 122 c 2,29,-1
 180 40 l 2,30,31
 151 8 151 8 136.5 -20 c 128,-1,32
 122 -48 122 -48 122 -86 c 0,33,34
 122 -139 122 -139 151 -173.5 c 128,-1,35
 180 -208 180 -208 237 -208 c 0,36,37
 283 -208 283 -208 318.5 -184 c 128,-1,38
 354 -160 354 -160 354 -130 c 0,39,40
 354 -107 354 -107 348 -101 c 0,41,42
 343 -97 343 -97 338 -97 c 0,43,44
 331 -97 331 -97 328 -98 c 0,45,46
 321 -100 321 -100 310 -100 c 0,47,48
 293 -100 293 -100 283.5 -88.5 c 128,-1,49
 274 -77 274 -77 274 -60 c 0,50,51
 274 -39 274 -39 288 -25.5 c 128,-1,52
 302 -12 302 -12 329 -12 c 0,53,54
 357 -12 357 -12 377.5 -35.5 c 128,-1,55
 398 -59 398 -59 398 -99 c 0,56,57
 398 -158 398 -158 345.5 -198 c 128,-1,58
 293 -238 293 -238 230 -238 c 0,0,1
214 468 m 256,59,60
 241 468 241 468 258.5 450.5 c 128,-1,61
 276 433 276 433 276 406 c 256,62,63
 276 379 276 379 258.5 361.5 c 128,-1,64
 241 344 241 344 214 344 c 256,65,66
 187 344 187 344 169.5 361.5 c 128,-1,67
 152 379 152 379 152 406 c 256,68,69
 152 433 152 433 169.5 450.5 c 128,-1,70
 187 468 187 468 214 468 c 256,59,60
EndSplineSet
Validated: 19457
EndChar

StartChar: AE
Encoding: 198 198 133
Width: 1004
VWidth: 1039
Flags: W
TeX: 65 0
HStem: 0 32<26 111.821 213.01 296 381 473.517 568.483 818.165> 210 36<277 475> 344 36<567 704.373> 680 32<376 441.625 568.483 826.333>
VStem: 475 92<32.323 210 246 344 380 620> 737 26<205 296.625 427.25 518> 913 25<486 557.746> 921 25<195.642 268>
DStem2: 159 105 223 145 0.467484 0.884002<4.53589 139.101 179.807 602.484>
AnchorPoint: "Bottom" 550 0 basechar 0
AnchorPoint: "Top" 550 762 basechar 0
LayerCount: 3
Fore
SplineSet
26 0 m 1xfd
 26 32 l 1
 58 32 l 2
 114 32 142 72 159 105 c 2
 425 608 l 2
 435 626 442 642 442 659 c 0
 442 673 436 680 417 680 c 2
 376 680 l 1
 376 712 l 1
 934 712 l 1
 938 486 l 1
 913 486 l 1xfe
 913 486 912 561 872 622 c 0
 841 669 795 680 755 680 c 2
 594 680 l 2
 576 680 567 672 567 653 c 2
 567 380 l 1
 655 380 l 2
 732 380 737 460 737 518 c 1
 763 518 l 1
 763 205 l 1
 737 205 l 1
 737 264 732 344 655 344 c 2
 567 344 l 1
 567 59 l 2
 567 41 576 32 594 32 c 2
 753 32 l 2
 783 32 834 45 865 84 c 0
 910 146 921 268 921 268 c 1
 946 268 l 1
 934 0 l 1
 381 0 l 1
 381 32 l 1
 448 32 l 2
 466 32 475 41 475 59 c 2
 475 210 l 1
 258 210 l 1
 223 145 l 2
 213 126 205 102 205 85 c 0
 205 63 207 32 249 32 c 2
 296 32 l 1
 296 0 l 1
 26 0 l 1xfd
277 246 m 1
 475 246 l 1
 475 620 l 1
 277 246 l 1
EndSplineSet
Validated: 19457
Layer: 2
SplineSet
26 0 m 1,0,-1
 26 32 l 1,1,-1
 58 32 l 2,2,3
 91 32 91 32 115.5 50 c 128,-1,4
 140 68 140 68 159 105 c 2,5,-1
 425 608 l 2,6,7
 435 627 435 627 438 636 c 0,8,9
 442 648 442 648 442 660 c 0,10,11
 442 680 442 680 417 680 c 2,12,-1
 376 680 l 1,13,-1
 376 712 l 1,14,-1
 934 712 l 1,15,-1
 938 486 l 1,16,-1
 913 486 l 1,17,-1
 912 506 l 2,18,19
 911 522 911 522 900 561 c 0,20,21
 890 595 890 595 872 622 c 0,22,23
 834 680 834 680 755 680 c 2,24,-1
 594 680 l 2,25,26
 567 680 567 680 567 653 c 2,27,-1
 567 380 l 1,28,-1
 655 380 l 2,29,30
 682 380 682 380 700 392.5 c 128,-1,31
 718 405 718 405 725 428 c 128,-1,32
 732 451 732 451 734.5 471 c 128,-1,33
 737 491 737 491 737 518 c 1,34,-1
 763 518 l 1,35,-1
 763 205 l 1,36,-1
 737 205 l 1,37,38
 737 233 737 233 735 252.5 c 128,-1,39
 733 272 733 272 725.5 295.5 c 128,-1,40
 718 319 718 319 700 331.5 c 128,-1,41
 682 344 682 344 655 344 c 2,42,-1
 567 344 l 1,43,-1
 567 59 l 2,44,45
 567 32 567 32 594 32 c 2,46,-1
 753 32 l 2,47,48
 783 32 783 32 812 44 c 0,49,50
 846 58 846 58 865 84 c 0,51,52
 885 112 885 112 899 158 c 128,-1,53
 913 204 913 204 917 236 c 2,54,-1
 921 268 l 1,55,-1
 946 268 l 1,56,-1
 934 0 l 1,57,-1
 381 0 l 1,58,-1
 381 32 l 1,59,-1
 448 32 l 2,60,61
 475 32 475 32 475 59 c 2,62,-1
 475 210 l 1,63,-1
 258 210 l 1,64,-1
 223 145 l 2,65,66
 205 112 205 112 205 79 c 0,67,68
 205 32 205 32 249 32 c 2,69,-1
 296 32 l 1,70,-1
 296 0 l 1,71,-1
 26 0 l 1,0,-1
475 246 m 1,72,-1
 475 620 l 1,73,-1
 277 246 l 1,74,-1
 475 246 l 1,72,-1
EndSplineSet
Validated: 19457
EndChar

StartChar: Ccedilla
Encoding: 199 199 134
Width: 670
VWidth: 1039
LigCaretCntFixed: 1
Flags: W
TeX: 67 0
HStem: -238 32<272.293 370.316> -18 32<355 438.52> 698 32<277.884 409.745>
VStem: 70 106<215.807 510.125> 388 72<-194.04 -97.4008> 565 25<444 482.27> 570 36<164.753 259>
DStem2: 343 -54 335 -83 0.975441 -0.220261<0 44.957>
AnchorPoint: "Top" 358 762 basechar 0
LayerCount: 3
Fore
SplineSet
70 362 m 0xfa
 70 562 174 730 350 730 c 0
 401 730 448 703 474 684 c 0
 486 676 494 670 500 665 c 0
 511 655 519 651 528 651 c 0
 539 651 542 658 548 673 c 2
 565 722 l 1
 590 722 l 1
 590 444 l 1
 565 444 l 1xfc
 519 614 429 698 350 698 c 0
 206 698 176 566 176 362 c 0
 176 158 212 14 366 14 c 0
 505 14 563 139 570 259 c 1
 606 259 l 1
 602 165 558 -18 366 -18 c 2
 355 -18 l 1
 343 -54 l 1
 369 -60 l 2
 425 -73 460 -107 460 -154 c 0
 460 -204 416 -238 334 -238 c 0
 285 -238 249 -211 230 -187 c 1
 246 -170 l 1
 272 -195 296 -206 320 -206 c 0
 353 -206 388 -194 388 -148 c 0
 388 -110 373 -92 335 -83 c 2
 304 -76 l 1
 324 -15 l 1
 157 11 70 188 70 362 c 0xfa
EndSplineSet
Validated: 19457
Layer: 2
SplineSet
70 362 m 0,0,1
 70 463 70 463 103 546 c 128,-1,2
 136 629 136 629 200 679.5 c 128,-1,3
 264 730 264 730 350 730 c 0,4,5
 411 730 411 730 474 684 c 0,6,7
 490 674 490 674 500 665 c 0,8,9
 516 651 516 651 528 651 c 0,10,11
 536 651 536 651 539.5 655.5 c 128,-1,12
 543 660 543 660 548 673 c 2,13,-1
 565 722 l 1,14,-1
 590 722 l 1,15,-1
 590 444 l 1,16,-1
 565 444 l 1,17,18
 532 566 532 566 472.5 632 c 128,-1,19
 413 698 413 698 350 698 c 0,20,21
 308 698 308 698 277 682 c 128,-1,22
 246 666 246 666 227 639 c 128,-1,23
 208 612 208 612 196 568 c 128,-1,24
 184 524 184 524 180 475.5 c 128,-1,25
 176 427 176 427 176 362 c 128,-1,26
 176 297 176 297 181 247 c 128,-1,27
 186 197 186 197 199 151.5 c 128,-1,28
 212 106 212 106 233 77 c 128,-1,29
 254 48 254 48 287.5 31 c 128,-1,30
 321 14 321 14 366 14 c 0,31,32
 406 14 406 14 439.5 28 c 128,-1,33
 473 42 473 42 496 65.5 c 128,-1,34
 519 89 519 89 535.5 121 c 128,-1,35
 552 153 552 153 560 187.5 c 128,-1,36
 568 222 568 222 570 259 c 1,37,-1
 606 259 l 1,38,39
 605 237 605 237 601.5 214 c 128,-1,40
 598 191 598 191 590 163.5 c 128,-1,41
 582 136 582 136 570 111 c 128,-1,42
 558 86 558 86 539 62 c 128,-1,43
 520 38 520 38 496.5 20.5 c 128,-1,44
 473 3 473 3 439.5 -7.5 c 128,-1,45
 406 -18 406 -18 366 -18 c 2,46,-1
 355 -18 l 1,47,-1
 343 -54 l 1,48,-1
 369 -60 l 2,49,50
 412 -70 412 -70 436 -94.5 c 128,-1,51
 460 -119 460 -119 460 -154 c 0,52,53
 460 -192 460 -192 427 -215 c 128,-1,54
 394 -238 394 -238 334 -238 c 0,55,56
 300 -238 300 -238 273 -223 c 128,-1,57
 246 -208 246 -208 230 -187 c 1,58,-1
 246 -170 l 1,59,60
 284 -206 284 -206 320 -206 c 0,61,62
 349 -206 349 -206 368.5 -193 c 128,-1,63
 388 -180 388 -180 388 -148 c 0,64,65
 388 -120 388 -120 376 -105 c 128,-1,66
 364 -90 364 -90 335 -83 c 2,67,-1
 304 -76 l 1,68,-1
 324 -15 l 1,69,70
 264 -6 264 -6 214.5 30 c 128,-1,71
 165 66 165 66 134 118 c 128,-1,72
 103 170 103 170 86.5 233 c 128,-1,73
 70 296 70 296 70 362 c 0,0,1
EndSplineSet
Validated: 19457
Ligature2: "'ccmp' Standard Composition Rules-1" C uni0327
EndChar

StartChar: Eth
Encoding: 208 208 143
AltUni2: 000110.ffffffff.0
Width: 768
VWidth: 1039
Flags: W
TeX: 69 0
HStem: 0 32<62 159.643 254.357 492.382> 356 36<68 161 253 368> 680 32<62 159.643 254.357 495.957>
VStem: 161 92<32.2373 356 392 679.787> 624 106<227.72 497.702>
LayerCount: 3
Fore
SplineSet
62 0 m 1
 62 32 l 1
 134 32 l 2
 153 32 161 41 161 59 c 2
 161 356 l 1
 68 356 l 1
 68 392 l 1
 161 392 l 1
 161 653 l 2
 161 672 153 680 134 680 c 2
 62 680 l 1
 62 712 l 1
 428 712 l 2
 594 712 730 570 730 362 c 0
 730 154 594 0 428 0 c 2
 62 0 l 1
253 59 m 2
 253 41 261 32 280 32 c 2
 424 32 l 2
 573 32 624 204 624 362 c 0
 624 520 573 680 424 680 c 2
 280 680 l 2
 261 680 253 672 253 653 c 2
 253 392 l 1
 368 392 l 1
 368 356 l 1
 253 356 l 1
 253 59 l 2
EndSplineSet
Validated: 1
Layer: 2
SplineSet
62 0 m 1,0,-1
 62 32 l 1,1,-1
 134 32 l 2,2,3
 161 32 161 32 161 59 c 2,4,-1
 161 356 l 1,5,-1
 68 356 l 1,6,-1
 68 392 l 1,7,-1
 161 392 l 1,8,-1
 161 653 l 2,9,10
 161 680 161 680 134 680 c 2,11,-1
 62 680 l 1,12,-1
 62 712 l 1,13,-1
 428 712 l 2,14,15
 555 712 555 712 642.5 613.5 c 128,-1,16
 730 515 730 515 730 362 c 0,17,18
 730 208 730 208 642 104 c 128,-1,19
 554 0 554 0 428 0 c 2,20,-1
 62 0 l 1,0,-1
624 362 m 0,21,22
 624 447 624 447 606 515.5 c 128,-1,23
 588 584 588 584 541.5 632 c 128,-1,24
 495 680 495 680 424 680 c 2,25,-1
 280 680 l 2,26,27
 253 680 253 680 253 653 c 2,28,-1
 253 392 l 1,29,-1
 368 392 l 1,30,-1
 368 356 l 1,31,-1
 253 356 l 1,32,-1
 253 59 l 2,33,34
 253 32 253 32 280 32 c 2,35,-1
 424 32 l 2,36,37
 477 32 477 32 517.5 61 c 128,-1,38
 558 90 558 90 580.5 138.5 c 128,-1,39
 603 187 603 187 613.5 243 c 128,-1,40
 624 299 624 299 624 362 c 0,21,22
EndSplineSet
Validated: 19457
EndChar

StartChar: multiply
Encoding: 215 215 150
Width: 940
Flags: W
TeX: 109 0
HStem: 233 62<439 501>
VStem: 439 62<233 295>
DStem2: 188 578 156 546 0.707107 -0.707107<0 399.515 443.356 842.871> 156 -18 188 -50 0.707107 0.707107<0 399.515 443.356 842.871>
LayerCount: 3
Fore
SplineSet
156 -18 m 1
 439 264 l 1
 156 546 l 1
 188 578 l 1
 470 295 l 1
 752 578 l 1
 784 546 l 1
 501 264 l 1
 784 -18 l 1
 752 -50 l 1
 470 233 l 1
 188 -50 l 1
 156 -18 l 1
EndSplineSet
Validated: 1
Layer: 2
SplineSet
188 -50 m 1,0,-1
 156 -18 l 1,1,-1
 439 264 l 1,2,-1
 156 546 l 1,3,-1
 188 578 l 1,4,-1
 470 295 l 1,5,-1
 752 578 l 1,6,-1
 784 546 l 1,7,-1
 501 264 l 1,8,-1
 784 -18 l 1,9,-1
 752 -50 l 1,10,-1
 470 233 l 1,11,-1
 188 -50 l 1,0,-1
EndSplineSet
Validated: 19457
EndChar

